<svg version="1.1" xmlns="http://www.w3.org/2000/svg" viewBox="0 0 10020 727.5625305175781" width="10020" height="727.5625305175781">
  <!-- svg-source:excalidraw -->
  
  <defs>
    <style>
      @font-face {
        font-family: "Virgil";
        src: url("https://excalidraw.com/Virgil.woff2");
      }
      @font-face {
        font-family: "Cascadia";
        src: url("https://excalidraw.com/Cascadia.woff2");
      }
    </style>
  </defs>
  <rect x="0" y="0" width="10020" height="727.5625305175781" fill="#fff0"></rect><g stroke-linecap="round" transform="translate(10 10) rotate(0 5000 0.5)"><path d="M-0.52 -0.26 C3022.65 -30.2, 6044.59 -29.2, 9999.32 0.22 M0.38 -0.31 C3948.03 -0.44, 7895.41 0.2, 9999.95 0.08 M10000.08 -0.06 C10000.09 0.27, 10000.05 0.48, 10000.09 0.92 M9999.97 0.01 C9999.95 0.33, 9999.98 0.72, 10000 0.99 M10000.22 1.51 C7095.77 35.76, 4193.15 34.95, -0.25 0.75 M10000.01 1.13 C7827.97 2.74, 5656.23 3.35, -0.33 0.84 M-0.04 1.01 C0 0.63, -0.06 0.15, 0.05 -0.03 M-0.04 0.95 C-0.04 0.73, -0.03 0.59, -0.05 -0.02" stroke="transparent" stroke-width="1" fill="none"></path></g><g stroke-linecap="round"><g transform="translate(519.1499938964844 603.7625122070312) rotate(0 83.19999694824219 -0.399993896484375)"><path d="M-0.41 -0.76 C27.63 -0.95, 139.32 -1.17, 167.25 -1.35 M1.58 1.46 C29.62 1.45, 139.21 0.32, 166.74 -0.1" stroke="#1864ab" stroke-width="1" fill="none"></path></g></g><g transform="translate(515.1499633789062 667.5625305175781) rotate(0 105.5 25)"><text x="0" y="17" font-family="Virgil, Segoe UI Emoji" font-size="20px" fill="#1864ab" text-anchor="start" style="white-space: pre;" direction="ltr">pendenza (componente</text><text x="0" y="42" font-family="Virgil, Segoe UI Emoji" font-size="20px" fill="#1864ab" text-anchor="start" style="white-space: pre;" direction="ltr">incidente) dell'onda</text></g><g stroke-linecap="round"><g transform="translate(601.5499877929688 655.7624816894531) rotate(0 0.4000244140625 -22.800003051757812)"><path d="M0.13 0.46 C0.08 -7, 0.61 -37.83, 0.67 -45.33 M-1.26 -0.35 C-1.57 -8.14, -0.48 -39.64, -0.35 -47.31" stroke="#1864ab" stroke-width="1" fill="none"></path></g><g transform="translate(601.5499877929688 655.7624816894531) rotate(0 0.4000244140625 -22.800003051757812)"><path d="M7.65 -25.9 C4.66 -34.48, 3.15 -42.56, -2.06 -45.57 M7.66 -25.21 C3.98 -33.13, 0.67 -42.03, 0.15 -46.56" stroke="#1864ab" stroke-width="1" fill="none"></path></g><g transform="translate(601.5499877929688 655.7624816894531) rotate(0 0.4000244140625 -22.800003051757812)"><path d="M-7.94 -26.31 C-4.96 -34.75, -0.49 -42.67, -2.06 -45.57 M-7.94 -25.62 C-5.87 -33.46, -3.44 -42.21, 0.15 -46.56" stroke="#1864ab" stroke-width="1" fill="none"></path></g></g><g stroke-linecap="round"><g transform="translate(711.1500244140625 603.7625122070312) rotate(0 84 0)"><path d="M-0.08 -0.36 C27.85 -0.45, 139.01 -1.14, 167.22 -0.9 M-1.59 -1.6 C26.77 -1.53, 141.08 0.01, 169.52 0.17" stroke="#d9480f" stroke-width="1" fill="none"></path></g></g><g stroke-linecap="round"><g transform="translate(798.3500366210938 654.1625061035156) rotate(0 0.399993896484375 -23.600006103515625)"><path d="M-0.62 0.66 C-0.72 -7, -0.02 -38.97, 0.32 -46.82 M1.26 -0.03 C0.88 -8, -0.83 -40.69, -0.88 -48.75" stroke="#d9480f" stroke-width="1" fill="none"></path></g><g transform="translate(798.3500366210938 654.1625061035156) rotate(0 0.399993896484375 -23.600006103515625)"><path d="M9.02 -27.64 C5.4 -34.09, 2.72 -44.67, -2.88 -49.24 M7 -26.3 C5.93 -31.56, 4.75 -35.08, -1.66 -47.94" stroke="#d9480f" stroke-width="1" fill="none"></path></g><g transform="translate(798.3500366210938 654.1625061035156) rotate(0 0.399993896484375 -23.600006103515625)"><path d="M-7.12 -27.11 C-4.68 -33.68, -1.3 -44.46, -2.88 -49.24 M-9.13 -25.77 C-6.86 -31.19, -4.68 -34.82, -1.66 -47.94" stroke="#d9480f" stroke-width="1" fill="none"></path></g></g><g transform="translate(743.1500244140625 666.7625122070312) rotate(0 105.5 25)"><text x="0" y="17" font-family="Virgil, Segoe UI Emoji" font-size="20px" fill="#d9480f" text-anchor="start" style="white-space: pre;" direction="ltr">pendenza (componente</text><text x="0" y="42" font-family="Virgil, Segoe UI Emoji" font-size="20px" fill="#d9480f" text-anchor="start" style="white-space: pre;" direction="ltr">riflessa) dell'onda</text></g><g stroke-linecap="round"><g transform="translate(515.1499938964844 569.3624877929688) rotate(0 196.40000915527344 -0.79998779296875)"><path d="M1.11 0.8 C66.68 0.14, 327.89 -2.44, 393.2 -2.79 M0.23 0.17 C65.7 0.13, 327.12 -1.88, 392.47 -1.88" stroke="#000000" stroke-width="1" fill="none"></path></g></g><g stroke-linecap="round"><g transform="translate(1065.5499877929688 598.1625061035156) rotate(0 -176.39999389648438 -34.40000915527344)"><path d="M0.82 0.89 C-24.74 -10.58, -94.31 -60.64, -153.42 -67.95 C-212.53 -75.25, -320.58 -47.37, -353.86 -42.93 M-0.2 0.31 C-25.9 -11.57, -95.72 -62.59, -154.28 -69.62 C-212.83 -76.66, -318.39 -46.28, -351.52 -41.89" stroke="#000000" stroke-width="1" fill="none"></path></g><g transform="translate(1065.5499877929688 598.1625061035156) rotate(0 -176.39999389648438 -34.40000915527344)"><path d="M-324.42 -57.2 C-331.92 -54.48, -341.78 -48.65, -349.7 -41.61 M-325.97 -57.16 C-336.36 -52.26, -346.15 -44.6, -351.76 -41.43" stroke="#000000" stroke-width="1" fill="none"></path></g><g transform="translate(1065.5499877929688 598.1625061035156) rotate(0 -176.39999389648438 -34.40000915527344)"><path d="M-320.38 -37.08 C-329.22 -40.27, -340.27 -40.37, -349.7 -41.61 M-321.93 -37.04 C-333.94 -40.07, -345.31 -40.3, -351.76 -41.43" stroke="#000000" stroke-width="1" fill="none"></path></g></g><g transform="translate(977.5499877929688 601.9624938964844) rotate(0 104 25)"><text x="0" y="17" font-family="Virgil, Segoe UI Emoji" font-size="20px" fill="#000000" text-anchor="start" style="white-space: pre;" direction="ltr">la pendenza dell'onda</text><text x="0" y="42" font-family="Virgil, Segoe UI Emoji" font-size="20px" fill="#000000" text-anchor="start" style="white-space: pre;" direction="ltr">dev'essere = 0</text></g></svg>