<svg version="1.1" xmlns="http://www.w3.org/2000/svg" viewBox="0 0 10020 870.4000244140625" width="10020" height="870.4000244140625">
  <!-- svg-source:excalidraw -->
  
  <defs>
    <style>
      @font-face {
        font-family: "Virgil";
        src: url("https://excalidraw.com/Virgil.woff2");
      }
      @font-face {
        font-family: "Cascadia";
        src: url("https://excalidraw.com/Cascadia.woff2");
      }
    </style>
  </defs>
  <rect x="0" y="0" width="10020" height="870.4000244140625" fill="#fff0"></rect><g stroke-linecap="round" transform="translate(10 10) rotate(0 5000 0.5)"><path d="M-0.52 -0.26 C3022.65 -30.2, 6044.59 -29.2, 9999.32 0.22 M0.38 -0.31 C3948.03 -0.44, 7895.41 0.2, 9999.95 0.08 M10000.08 -0.06 C10000.09 0.27, 10000.05 0.48, 10000.09 0.92 M9999.97 0.01 C9999.95 0.33, 9999.98 0.72, 10000 0.99 M10000.22 1.51 C7095.77 35.76, 4193.15 34.95, -0.25 0.75 M10000.01 1.13 C7827.97 2.74, 5656.23 3.35, -0.33 0.84 M-0.04 1.01 C0 0.63, -0.06 0.15, 0.05 -0.03 M-0.04 0.95 C-0.04 0.73, -0.03 0.59, -0.05 -0.02" stroke="transparent" stroke-width="1" fill="none"></path></g><g transform="translate(654.0499877929688 560.3999938964844) rotate(0 6 0)" stroke="none"><path fill="#1864ab" d="M 0,-2.59 Q 0,-2.59 1.61,-2.55 3.22,-2.51 4.75,-2.60 6.28,-2.68 7.44,-2.76 8.61,-2.83 10.17,-2.84 11.73,-2.86 12.19,-2.79 12.65,-2.71 13.06,-2.49 13.47,-2.28 13.78,-1.94 14.10,-1.60 14.30,-1.18 14.49,-0.76 14.54,-0.30 14.59,0.15 14.49,0.60 14.39,1.06 14.15,1.45 13.91,1.85 13.56,2.15 13.21,2.45 12.78,2.62 12.35,2.79 11.88,2.82 11.42,2.84 10.97,2.72 10.53,2.60 10.14,2.34 9.76,2.08 9.48,1.71 9.20,1.34 9.05,0.90 8.90,0.46 8.90,-0.00 8.90,-0.46 9.05,-0.90 9.20,-1.34 9.48,-1.71 9.76,-2.08 10.14,-2.34 10.53,-2.60 10.97,-2.72 11.42,-2.84 11.88,-2.82 12.35,-2.79 12.78,-2.62 13.21,-2.45 13.56,-2.15 13.92,-1.85 14.15,-1.45 14.39,-1.06 14.49,-0.60 14.59,-0.15 14.54,0.30 14.49,0.76 14.30,1.18 14.10,1.60 13.78,1.94 13.46,2.28 13.05,2.49 12.64,2.71 12.19,2.79 11.73,2.86 11.73,2.86 11.73,2.86 10.17,2.84 8.61,2.83 7.44,2.76 6.28,2.68 4.75,2.60 3.22,2.51 1.61,2.55 0,2.59 -0.31,2.56 -0.62,2.52 -0.91,2.41 -1.20,2.30 -1.46,2.12 -1.72,1.94 -1.93,1.71 -2.13,1.47 -2.28,1.19 -2.42,0.92 -2.50,0.61 -2.57,0.31 -2.57,-0.00 -2.57,-0.31 -2.50,-0.61 -2.42,-0.92 -2.28,-1.19 -2.13,-1.47 -1.93,-1.71 -1.72,-1.94 -1.46,-2.12 -1.20,-2.30 -0.91,-2.41 -0.62,-2.52 -0.31,-2.56 0.00,-2.59 0.00,-2.59 L 0,-2.59 Z"></path></g><g transform="translate(656.4500122070312 643.6000061035156) rotate(0 16 -0.4000091552734375)" stroke="none"><path fill="#1864ab" d="M 0.42,-2.57 Q 0.42,-2.57 1.80,-2.34 3.18,-2.10 4.55,-1.99 5.92,-1.88 7.49,-2.22 9.06,-2.55 11.00,-3.03 12.94,-3.51 14.07,-3.64 15.20,-3.77 16.41,-3.83 17.62,-3.89 18.93,-4.24 20.24,-4.60 21.35,-4.73 22.46,-4.87 23.55,-4.90 24.65,-4.93 26.01,-4.97 27.38,-5.00 29.56,-5.02 31.74,-5.04 32.29,-4.95 32.84,-4.86 33.33,-4.59 33.83,-4.33 34.21,-3.93 34.59,-3.53 34.82,-3.02 35.06,-2.52 35.12,-1.96 35.18,-1.41 35.06,-0.87 34.94,-0.32 34.65,0.15 34.37,0.62 33.94,0.98 33.52,1.34 33.00,1.55 32.48,1.75 31.93,1.78 31.37,1.81 30.84,1.67 30.30,1.52 29.84,1.20 29.38,0.89 29.04,0.45 28.70,0.01 28.53,-0.51 28.35,-1.04 28.35,-1.60 28.35,-2.15 28.53,-2.68 28.70,-3.21 29.04,-3.65 29.38,-4.09 29.84,-4.41 30.30,-4.72 30.84,-4.87 31.37,-5.02 31.93,-4.98 32.48,-4.95 33.00,-4.75 33.52,-4.54 33.94,-4.18 34.37,-3.82 34.65,-3.34 34.94,-2.87 35.06,-2.32 35.18,-1.78 35.12,-1.23 35.06,-0.67 34.82,-0.17 34.59,0.33 34.21,0.73 33.82,1.13 33.33,1.39 32.84,1.66 32.29,1.75 31.74,1.84 31.74,1.84 31.74,1.84 29.56,1.82 27.38,1.80 26.03,1.77 24.68,1.74 23.21,1.64 21.74,1.54 19.70,1.92 17.67,2.30 16.56,2.26 15.45,2.23 14.28,2.19 13.10,2.16 12.09,2.48 11.07,2.80 9.74,2.82 8.41,2.84 7.01,3.02 5.62,3.20 3.97,3.11 2.33,3.02 0.95,2.80 -0.42,2.57 -0.73,2.48 -1.03,2.40 -1.30,2.24 -1.57,2.08 -1.80,1.86 -2.03,1.64 -2.19,1.37 -2.36,1.11 -2.46,0.81 -2.56,0.51 -2.58,0.19 -2.61,-0.11 -2.55,-0.42 -2.50,-0.73 -2.38,-1.02 -2.25,-1.31 -2.06,-1.56 -1.87,-1.81 -1.63,-2.01 -1.38,-2.21 -1.10,-2.34 -0.81,-2.48 -0.50,-2.54 -0.19,-2.60 0.11,-2.59 0.43,-2.57 0.42,-2.57 L 0.42,-2.57 Z"></path></g><g transform="translate(771.6500244140625 602) rotate(0 -44.399993896484375 13.600006103515625)" stroke="none"><path fill="#1864ab" d="M -0.17,1.58 Q -0.17,1.58 -2.24,1.32 -4.30,1.07 -6.06,1.01 -7.82,0.96 -10.62,0.87 -13.43,0.79 -15.78,0.74 -18.13,0.70 -20.50,0.67 -22.88,0.64 -25.27,0.62 -27.66,0.60 -30.29,0.59 -32.91,0.57 -36.71,1.02 -40.50,1.46 -43.99,1.88 -47.48,2.30 -50.51,2.93 -53.55,3.56 -55.78,4.05 -58.00,4.55 -59.78,5.23 -61.56,5.91 -63.21,6.68 -64.87,7.45 -66.42,8.43 -67.96,9.41 -69.60,10.34 -71.23,11.28 -72.78,12.32 -74.33,13.36 -75.67,14.31 -77.00,15.27 -77.86,16.28 -78.72,17.29 -79.58,18.26 -80.43,19.24 -81.63,20.96 -82.82,22.68 -83.58,23.56 -84.33,24.43 -85.32,26.47 -86.31,28.51 -86.49,28.87 -86.68,29.23 -86.98,29.52 -87.27,29.80 -87.64,29.98 -88.01,30.15 -88.41,30.20 -88.82,30.25 -89.22,30.16 -89.62,30.08 -89.97,29.87 -90.32,29.66 -90.59,29.36 -90.86,29.05 -91.01,28.67 -91.17,28.29 -91.19,27.88 -91.22,27.48 -91.11,27.08 -91.01,26.69 -90.78,26.35 -90.56,26.01 -90.23,25.76 -89.91,25.51 -89.53,25.37 -89.14,25.24 -88.73,25.23 -88.32,25.23 -87.93,25.36 -87.55,25.48 -87.22,25.73 -86.89,25.97 -86.66,26.31 -86.43,26.64 -86.31,27.03 -86.20,27.43 -86.22,27.83 -86.24,28.24 -86.38,28.62 -86.53,29.00 -86.79,29.32 -87.05,29.63 -87.40,29.85 -87.75,30.06 -88.15,30.15 -88.55,30.24 -88.95,30.20 -89.36,30.16 -89.73,30.00 -90.10,29.83 -90.40,29.55 -90.70,29.27 -90.90,28.91 -91.09,28.55 -91.16,28.15 -91.23,27.75 -91.17,27.35 -91.11,26.94 -91.11,26.94 -91.11,26.94 -90.16,24.98 -89.22,23.01 -88.50,22.09 -87.79,21.17 -86.31,19.72 -84.83,18.28 -84.06,17.36 -83.29,16.44 -82.33,15.58 -81.38,14.71 -80.15,13.56 -78.92,12.42 -77.51,11.55 -76.11,10.68 -74.43,9.58 -72.76,8.49 -71.16,7.65 -69.55,6.81 -67.80,5.77 -66.05,4.74 -64.28,4.01 -62.50,3.29 -60.54,2.62 -58.59,1.95 -56.34,1.45 -54.10,0.94 -50.95,0.28 -47.80,-0.36 -44.31,-0.79 -40.82,-1.22 -36.87,-1.70 -32.91,-2.17 -30.29,-2.18 -27.66,-2.19 -25.26,-2.20 -22.87,-2.21 -20.49,-2.23 -18.10,-2.24 -15.74,-2.26 -13.38,-2.27 -10.51,-2.27 -7.65,-2.27 -5.81,-2.13 -3.97,-1.99 -1.89,-1.78 0.17,-1.58 0.36,-1.54 0.55,-1.49 0.72,-1.40 0.89,-1.32 1.03,-1.19 1.18,-1.07 1.29,-0.91 1.40,-0.75 1.47,-0.57 1.54,-0.39 1.57,-0.20 1.59,-0.01 1.57,0.17 1.55,0.36 1.48,0.54 1.42,0.72 1.31,0.88 1.20,1.04 1.06,1.17 0.91,1.30 0.75,1.39 0.58,1.48 0.39,1.53 0.20,1.58 0.01,1.58 -0.17,1.58 -0.17,1.58 L -0.17,1.58 Z"></path></g><g transform="translate(677.25 623.6000061035156) rotate(0 5.600006103515625 5.600006103515625)" stroke="none"><path fill="#1864ab" d="M 2.27,-0.75 Q 2.27,-0.75 2.83,1.35 3.39,3.46 3.91,5.03 4.43,6.60 4.99,7.84 5.54,9.08 5.93,7.35 6.33,5.62 7.41,3.35 8.49,1.08 8.72,0.71 8.95,0.34 9.28,0.06 9.62,-0.21 10.03,-0.37 10.43,-0.53 10.87,-0.55 11.31,-0.57 11.73,-0.44 12.15,-0.32 12.50,-0.07 12.86,0.17 13.12,0.52 13.38,0.87 13.52,1.28 13.65,1.70 13.65,2.13 13.65,2.57 13.50,2.98 13.36,3.40 13.09,3.74 12.82,4.09 12.46,4.33 12.09,4.57 11.67,4.68 11.25,4.79 10.81,4.77 10.38,4.74 9.97,4.57 9.57,4.40 9.24,4.12 8.91,3.83 8.69,3.45 8.47,3.08 8.38,2.65 8.29,2.22 8.34,1.79 8.39,1.35 8.58,0.96 8.77,0.57 9.07,0.25 9.37,-0.05 9.76,-0.25 10.15,-0.45 10.58,-0.52 11.01,-0.58 11.45,-0.51 11.88,-0.43 12.26,-0.23 12.64,-0.02 12.94,0.29 13.24,0.61 13.42,1.01 13.60,1.41 13.64,1.85 13.68,2.28 13.58,2.71 13.48,3.13 13.48,3.13 13.48,3.13 12.04,5.92 10.60,8.70 9.77,9.83 8.95,10.96 7.61,12.04 6.27,13.11 3.88,12.31 1.49,11.50 0.95,9.72 0.41,7.94 -0.10,6.37 -0.63,4.81 -1.45,2.78 -2.27,0.75 -2.33,0.47 -2.39,0.19 -2.38,-0.09 -2.37,-0.38 -2.29,-0.66 -2.20,-0.94 -2.06,-1.19 -1.91,-1.44 -1.71,-1.65 -1.51,-1.86 -1.27,-2.01 -1.02,-2.17 -0.75,-2.26 -0.47,-2.35 -0.19,-2.37 0.09,-2.40 0.38,-2.35 0.66,-2.30 0.93,-2.19 1.20,-2.08 1.43,-1.90 1.66,-1.73 1.84,-1.50 2.03,-1.28 2.15,-1.02 2.27,-0.75 2.27,-0.75 L 2.27,-0.75 Z"></path></g><g transform="translate(723.6500244140625 606.8000183105469) rotate(0 -26.399993896484375 -15.600006103515625)" stroke="none"><path fill="#1864ab" d="M -0.43,1.73 Q -0.43,1.73 -1.37,1.60 -2.31,1.46 -4.69,1.41 -7.07,1.36 -8.95,1.30 -10.82,1.24 -12.77,1.18 -14.72,1.12 -17.53,0.56 -20.35,0.01 -23.84,-0.94 -27.33,-1.90 -29.82,-3.05 -32.31,-4.21 -34.25,-5.16 -36.19,-6.11 -39.22,-8.69 -42.25,-11.27 -43.75,-12.83 -45.26,-14.38 -46.43,-15.72 -47.61,-17.05 -49.16,-18.47 -50.72,-19.88 -51.78,-21.10 -52.84,-22.31 -53.57,-23.30 -54.30,-24.28 -54.81,-25.64 -55.32,-27.00 -55.40,-28.97 -55.47,-30.93 -55.41,-31.36 -55.34,-31.79 -55.14,-32.17 -54.94,-32.55 -54.62,-32.85 -54.31,-33.15 -53.92,-33.34 -53.52,-33.52 -53.09,-33.57 -52.66,-33.62 -52.24,-33.53 -51.81,-33.44 -51.44,-33.22 -51.07,-32.99 -50.79,-32.67 -50.50,-32.34 -50.34,-31.93 -50.18,-31.53 -50.15,-31.10 -50.13,-30.67 -50.24,-30.25 -50.36,-29.83 -50.60,-29.47 -50.84,-29.11 -51.18,-28.85 -51.53,-28.58 -51.94,-28.44 -52.35,-28.30 -52.78,-28.30 -53.21,-28.30 -53.63,-28.43 -54.04,-28.57 -54.38,-28.83 -54.73,-29.09 -54.98,-29.45 -55.22,-29.81 -55.34,-30.22 -55.46,-30.64 -55.44,-31.07 -55.41,-31.51 -55.26,-31.91 -55.10,-32.31 -54.82,-32.65 -54.54,-32.98 -54.17,-33.20 -53.80,-33.43 -53.37,-33.52 -52.95,-33.62 -52.52,-33.57 -52.09,-33.53 -51.69,-33.35 -51.30,-33.17 -50.98,-32.87 -50.67,-32.58 -50.46,-32.19 -50.26,-31.81 -50.19,-31.38 -50.11,-30.96 -50.11,-30.96 -50.11,-30.96 -50.20,-29.06 -50.29,-27.17 -49.84,-26.19 -49.38,-25.20 -48.62,-23.88 -47.85,-22.55 -47.14,-21.67 -46.43,-20.78 -45.81,-19.90 -45.19,-19.01 -44.21,-17.68 -43.22,-16.36 -41.81,-14.91 -40.39,-13.46 -37.64,-11.12 -34.89,-8.78 -32.97,-7.90 -31.04,-7.03 -28.77,-6.05 -26.51,-5.07 -23.13,-4.25 -19.75,-3.44 -17.22,-3.07 -14.70,-2.70 -12.74,-2.74 -10.78,-2.78 -8.88,-2.81 -6.97,-2.84 -4.16,-2.61 -1.36,-2.38 -0.46,-2.06 0.43,-1.73 0.63,-1.66 0.83,-1.58 1.01,-1.46 1.19,-1.33 1.33,-1.17 1.47,-1.01 1.57,-0.82 1.67,-0.63 1.72,-0.42 1.78,-0.21 1.77,0.00 1.77,0.22 1.72,0.43 1.67,0.64 1.57,0.83 1.47,1.02 1.32,1.18 1.18,1.34 1.00,1.46 0.82,1.59 0.62,1.66 0.42,1.74 0.20,1.76 -0.00,1.79 -0.22,1.76 -0.43,1.73 -0.43,1.73 L -0.43,1.73 Z"></path></g><g transform="translate(666.0499877929688 585.2000122070312) rotate(0 6 -5.1999969482421875)" stroke="none"><path fill="#1864ab" d="M -2.49,-0.27 Q -2.49,-0.27 -2.12,-2.33 -1.75,-4.38 -1.39,-6.07 -1.04,-7.76 -0.62,-8.75 -0.20,-9.74 0.55,-10.94 1.32,-12.14 2.43,-12.40 3.55,-12.65 4.88,-12.14 6.22,-11.64 7.56,-10.85 8.91,-10.05 10.36,-9.71 11.82,-9.37 12.28,-9.25 12.74,-9.12 13.14,-8.86 13.53,-8.60 13.82,-8.22 14.12,-7.85 14.27,-7.40 14.43,-6.95 14.44,-6.47 14.44,-5.99 14.29,-5.54 14.15,-5.09 13.86,-4.71 13.58,-4.32 13.19,-4.05 12.79,-3.78 12.34,-3.65 11.88,-3.52 11.40,-3.54 10.93,-3.56 10.48,-3.73 10.04,-3.90 9.67,-4.21 9.31,-4.51 9.06,-4.92 8.81,-5.32 8.70,-5.79 8.59,-6.25 8.64,-6.73 8.69,-7.20 8.88,-7.63 9.08,-8.07 9.40,-8.42 9.73,-8.77 10.14,-8.99 10.56,-9.22 11.03,-9.30 11.50,-9.38 11.97,-9.31 12.44,-9.24 12.87,-9.02 13.29,-8.80 13.62,-8.46 13.95,-8.12 14.15,-7.69 14.36,-7.26 14.42,-6.78 14.47,-6.31 14.37,-5.84 14.28,-5.38 14.03,-4.97 13.79,-4.56 13.43,-4.25 13.07,-3.93 12.63,-3.75 12.19,-3.57 11.72,-3.54 11.24,-3.51 11.24,-3.51 11.24,-3.51 8.79,-4.13 6.33,-4.74 5.55,-5.47 4.76,-6.20 4.55,-7.43 4.33,-8.67 3.80,-7.73 3.27,-6.79 2.97,-5.34 2.67,-3.89 2.58,-1.80 2.49,0.27 2.42,0.57 2.35,0.86 2.21,1.13 2.07,1.40 1.88,1.63 1.68,1.86 1.43,2.03 1.18,2.20 0.90,2.31 0.62,2.42 0.32,2.46 0.02,2.50 -0.27,2.47 -0.57,2.44 -0.85,2.33 -1.14,2.23 -1.39,2.06 -1.64,1.89 -1.84,1.66 -2.04,1.44 -2.19,1.17 -2.33,0.91 -2.41,0.62 -2.48,0.32 -2.48,0.02 -2.49,-0.27 -2.49,-0.27 L -2.49,-0.27 Z"></path></g><g transform="translate(778.8500366210938 575.3999938964844) rotate(0 168.5 25)"><text x="0" y="17" font-family="Virgil, Segoe UI Emoji" font-size="20px" fill="#1864ab" text-anchor="start" style="white-space: pre;" direction="ltr">v = rω</text><text x="0" y="42" font-family="Virgil, Segoe UI Emoji" font-size="20px" fill="#1864ab" text-anchor="start" style="white-space: pre;" direction="ltr">con r = distanza dall'asse di rot.</text></g><g transform="translate(735.6500244140625 730) rotate(0 -71.60000610351562 0.8000030517578125)" stroke="none"><path fill="#d9480f" d="M -0.26,1.61 Q -0.26,1.61 -3.02,1.11 -5.77,0.60 -8.10,0.15 -10.43,-0.30 -12.57,-0.74 -14.71,-1.17 -16.98,-1.59 -19.26,-2.01 -22.10,-2.66 -24.94,-3.31 -27.21,-3.58 -29.48,-3.85 -31.88,-4.20 -34.27,-4.55 -35.94,-4.62 -37.61,-4.68 -40.19,-5.00 -42.77,-5.32 -45.70,-5.69 -48.63,-6.07 -51.90,-6.23 -55.16,-6.39 -59.12,-6.69 -63.08,-7.00 -67.36,-7.83 -71.64,-8.66 -76.11,-9.00 -80.58,-9.35 -83.41,-9.50 -86.25,-9.65 -89.05,-9.71 -91.85,-9.77 -94.65,-9.80 -97.45,-9.83 -101.40,-9.84 -105.35,-9.86 -108.41,-9.86 -111.47,-9.87 -113.62,-9.65 -115.78,-9.42 -117.07,-9.00 -118.37,-8.58 -119.75,-7.95 -121.14,-7.32 -122.17,-6.76 -123.21,-6.20 -124.37,-5.69 -125.53,-5.17 -126.95,-3.81 -128.37,-2.45 -129.50,-1.64 -130.62,-0.82 -131.68,0.10 -132.74,1.04 -133.57,2.04 -134.40,3.05 -135.27,4.04 -136.15,5.04 -136.70,6.19 -137.24,7.34 -138.44,8.68 -139.63,10.02 -140.45,12.46 -141.28,14.90 -141.68,15.13 -142.08,15.35 -142.53,15.43 -142.98,15.52 -143.44,15.45 -143.90,15.39 -144.31,15.18 -144.72,14.97 -145.04,14.65 -145.36,14.32 -145.57,13.90 -145.77,13.49 -145.83,13.03 -145.88,12.58 -145.80,12.13 -145.71,11.68 -145.48,11.28 -145.25,10.88 -144.90,10.57 -144.56,10.27 -144.13,10.09 -143.71,9.91 -143.25,9.88 -142.79,9.84 -142.35,9.96 -141.90,10.07 -141.52,10.32 -141.13,10.57 -140.84,10.93 -140.56,11.29 -140.40,11.72 -140.25,12.16 -140.24,12.62 -140.23,13.08 -140.37,13.52 -140.50,13.95 -140.77,14.33 -141.05,14.70 -141.42,14.96 -141.80,15.23 -142.24,15.36 -142.68,15.49 -143.14,15.48 -143.60,15.46 -144.03,15.30 -144.46,15.14 -144.82,14.85 -145.17,14.56 -145.42,14.17 -145.66,13.78 -145.77,13.33 -145.88,12.89 -145.84,12.43 -145.80,11.97 -145.61,11.55 -145.43,11.13 -145.12,10.79 -144.81,10.45 -144.81,10.45 -144.81,10.45 -144.48,8.84 -144.15,7.22 -143.27,6.44 -142.40,5.66 -141.78,4.69 -141.16,3.71 -140.42,2.75 -139.68,1.78 -138.82,0.90 -137.97,0.02 -136.89,-1.21 -135.81,-2.45 -134.54,-3.55 -133.28,-4.65 -132.17,-5.38 -131.07,-6.11 -130.12,-6.74 -129.17,-7.37 -128.10,-8.14 -127.03,-8.90 -125.87,-9.26 -124.71,-9.62 -123.54,-10.03 -122.37,-10.44 -120.72,-11.01 -119.07,-11.58 -117.56,-11.81 -116.05,-12.04 -113.76,-12.27 -111.47,-12.51 -108.41,-12.50 -105.35,-12.50 -101.39,-12.49 -97.43,-12.48 -94.61,-12.45 -91.79,-12.43 -88.95,-12.37 -86.11,-12.31 -83.24,-12.16 -80.37,-12.02 -75.75,-11.67 -71.12,-11.32 -67.00,-10.52 -62.87,-9.72 -58.95,-9.44 -55.03,-9.16 -51.66,-9.02 -48.30,-8.88 -45.37,-8.54 -42.44,-8.21 -39.90,-7.94 -37.35,-7.68 -35.62,-7.45 -33.89,-7.22 -31.53,-6.89 -29.17,-6.55 -26.75,-6.28 -24.34,-6.01 -21.55,-5.39 -18.77,-4.78 -16.47,-4.39 -14.16,-4.00 -12.03,-3.61 -9.89,-3.23 -7.58,-2.84 -5.26,-2.44 -2.49,-2.03 0.26,-1.61 0.45,-1.56 0.64,-1.50 0.81,-1.40 0.99,-1.30 1.13,-1.16 1.27,-1.03 1.37,-0.86 1.48,-0.69 1.54,-0.50 1.60,-0.32 1.62,-0.12 1.63,0.07 1.60,0.26 1.57,0.46 1.49,0.64 1.41,0.82 1.29,0.98 1.17,1.14 1.02,1.26 0.87,1.38 0.69,1.47 0.51,1.55 0.31,1.59 0.12,1.63 -0.07,1.62 -0.26,1.61 -0.26,1.61 L -0.26,1.61 Z"></path></g><g transform="translate(586.0500183105469 736.3999938964844) rotate(0 7.5999908447265625 6.4000091552734375)" stroke="none"><path fill="#d9480f" d="M 2.53,-0.42 Q 2.53,-0.42 2.75,0.95 2.98,2.34 3.07,3.97 3.16,5.60 3.24,6.73 3.32,7.86 3.66,9.48 4.01,11.10 4.60,9.90 5.19,8.70 6.23,8.06 7.27,7.41 8.88,6.22 10.50,5.03 12.10,4.04 13.71,3.06 14.16,2.94 14.62,2.82 15.09,2.86 15.57,2.89 16.00,3.08 16.44,3.26 16.79,3.58 17.15,3.89 17.38,4.30 17.62,4.71 17.71,5.17 17.80,5.64 17.74,6.11 17.68,6.58 17.47,7.00 17.26,7.43 16.93,7.76 16.60,8.10 16.17,8.31 15.75,8.52 15.28,8.59 14.82,8.66 14.35,8.57 13.89,8.48 13.47,8.25 13.06,8.02 12.74,7.67 12.42,7.32 12.23,6.89 12.04,6.46 12.00,5.98 11.96,5.51 12.07,5.05 12.19,4.59 12.44,4.19 12.69,3.79 13.06,3.50 13.42,3.20 13.87,3.03 14.31,2.87 14.78,2.85 15.26,2.84 15.71,2.97 16.16,3.11 16.55,3.38 16.93,3.65 17.21,4.04 17.49,4.42 17.63,4.87 17.77,5.32 17.76,5.80 17.75,6.27 17.59,6.71 17.43,7.16 17.14,7.53 16.84,7.90 16.44,8.16 16.05,8.41 16.05,8.41 16.05,8.41 14.92,9.09 13.79,9.77 12.06,10.99 10.33,12.21 9.21,12.94 8.10,13.67 6.72,14.36 5.34,15.05 2.69,14.66 0.05,14.28 -0.64,12.55 -1.33,10.83 -1.58,9.45 -1.84,8.07 -1.85,7.00 -1.85,5.93 -1.96,4.55 -2.06,3.17 -2.29,1.80 -2.53,0.42 -2.54,0.11 -2.55,-0.19 -2.49,-0.49 -2.43,-0.80 -2.30,-1.08 -2.17,-1.36 -1.97,-1.60 -1.78,-1.84 -1.53,-2.03 -1.29,-2.21 -1.00,-2.33 -0.72,-2.46 -0.41,-2.51 -0.11,-2.56 0.19,-2.53 0.50,-2.51 0.79,-2.41 1.09,-2.32 1.35,-2.15 1.61,-1.99 1.83,-1.77 2.04,-1.54 2.20,-1.28 2.35,-1.01 2.44,-0.71 2.53,-0.42 2.53,-0.42 L 2.53,-0.42 Z"></path></g><g transform="translate(745.25 691.3999938964844) rotate(0 164.5 37)"><text x="0" y="17.666666666666668" font-family="Virgil, Segoe UI Emoji" font-size="20px" fill="#d9480f" text-anchor="start" style="white-space: pre;" direction="ltr">possiamo raccogliere i valori</text><text x="0" y="42.333333333333336" font-family="Virgil, Segoe UI Emoji" font-size="20px" fill="#d9480f" text-anchor="start" style="white-space: pre;" direction="ltr">costanti (ogni punto del corpo ha</text><text x="0" y="67" font-family="Virgil, Segoe UI Emoji" font-size="20px" fill="#d9480f" text-anchor="start" style="white-space: pre;" direction="ltr">la stessa velocità angolare)</text></g><g transform="translate(670.8500366210938 793.2000122070312) rotate(0 20.79998779296875 16.79998779296875)" stroke="none"><path fill="#1864ab" d="M 1.52,-0.45 Q 1.52,-0.45 2.17,1.85 2.83,4.15 3.73,5.94 4.64,7.72 5.52,9.97 6.40,12.22 7.81,13.90 9.22,15.58 11.02,18.00 12.83,20.43 14.65,22.04 16.47,23.66 18.41,25.30 20.35,26.93 22.24,28.03 24.13,29.13 25.88,30.04 27.62,30.96 30.00,31.30 32.38,31.65 34.13,31.75 35.89,31.86 37.09,31.82 38.29,31.78 39.79,31.79 41.29,31.79 41.58,31.84 41.87,31.90 42.12,32.04 42.37,32.18 42.57,32.40 42.76,32.61 42.88,32.88 42.99,33.15 43.02,33.44 43.04,33.73 42.97,34.01 42.90,34.29 42.75,34.54 42.59,34.78 42.37,34.97 42.14,35.15 41.87,35.25 41.59,35.35 41.30,35.36 41.01,35.37 40.73,35.28 40.46,35.20 40.22,35.03 39.98,34.86 39.81,34.63 39.64,34.39 39.56,34.11 39.47,33.83 39.48,33.54 39.49,33.25 39.58,32.98 39.68,32.71 39.87,32.48 40.05,32.25 40.29,32.10 40.54,31.94 40.82,31.87 41.10,31.80 41.39,31.82 41.68,31.84 41.95,31.96 42.21,32.07 42.43,32.26 42.65,32.46 42.79,32.71 42.94,32.96 42.99,33.25 43.05,33.53 43.01,33.82 42.97,34.11 42.84,34.37 42.71,34.63 42.51,34.84 42.30,35.04 42.04,35.17 41.78,35.30 41.49,35.34 41.21,35.38 41.21,35.38 41.21,35.38 39.65,35.29 38.09,35.19 36.85,35.01 35.61,34.82 33.78,34.58 31.96,34.35 29.16,33.88 26.36,33.41 24.57,32.42 22.79,31.43 20.71,30.21 18.63,28.99 16.65,27.34 14.66,25.68 12.66,23.88 10.65,22.08 8.86,19.71 7.07,17.35 5.43,15.33 3.79,13.31 2.92,11.19 2.04,9.06 0.98,7.05 -0.07,5.04 -0.79,2.74 -1.52,0.45 -1.55,0.26 -1.58,0.07 -1.57,-0.11 -1.56,-0.30 -1.50,-0.48 -1.44,-0.66 -1.34,-0.83 -1.24,-0.99 -1.10,-1.12 -0.96,-1.26 -0.80,-1.36 -0.63,-1.45 -0.45,-1.51 -0.27,-1.56 -0.07,-1.57 0.11,-1.58 0.30,-1.55 0.48,-1.51 0.66,-1.43 0.83,-1.35 0.98,-1.23 1.13,-1.11 1.25,-0.96 1.37,-0.80 1.44,-0.63 1.52,-0.45 1.52,-0.45 L 1.52,-0.45 Z"></path></g><g transform="translate(669.25 792.4000244140625) rotate(0 4.399993896484375 0.79998779296875)" stroke="none"><path fill="#1864ab" d="M -2.41,-0.96 Q -2.41,-0.96 -1.96,-2.11 -1.51,-3.27 -1.33,-3.93 -1.15,-4.60 -1.03,-4.91 -0.91,-5.21 -0.71,-5.48 -0.52,-5.74 -0.27,-5.96 -0.02,-6.17 0.27,-6.31 0.56,-6.46 0.89,-6.53 1.21,-6.60 1.54,-6.59 1.87,-6.59 2.18,-6.50 2.50,-6.41 2.79,-6.25 3.08,-6.09 3.32,-5.87 3.56,-5.65 3.74,-5.37 3.92,-5.09 4.03,-4.78 4.14,-4.47 4.17,-4.15 4.20,-3.82 4.16,-3.49 4.11,-3.17 3.29,-0.94 2.47,1.28 1.66,3.16 0.85,5.04 0.47,5.87 0.09,6.71 -0.03,7.04 -0.16,7.37 -0.36,7.66 -0.57,7.95 -0.84,8.18 -1.11,8.41 -1.42,8.57 -1.74,8.73 -2.09,8.81 -2.43,8.89 -2.79,8.88 -3.14,8.88 -3.48,8.79 -3.83,8.70 -4.14,8.53 -4.45,8.36 -4.71,8.12 -4.97,7.88 -5.17,7.58 -5.37,7.29 -5.49,6.96 -5.61,6.62 -5.65,6.27 -5.68,5.92 -5.63,5.57 -5.59,5.21 -4.84,3.27 -4.10,1.32 -3.38,-0.00 -2.65,-1.32 -1.66,-3.04 -0.67,-4.76 0.25,-5.58 1.18,-6.40 2.61,-6.73 4.05,-7.05 5.13,-6.69 6.21,-6.33 7.20,-5.58 8.20,-4.82 9.01,-4.06 9.82,-3.30 11.56,-1.91 13.30,-0.52 13.67,-0.17 14.03,0.18 14.26,0.63 14.50,1.08 14.57,1.59 14.65,2.09 14.56,2.59 14.47,3.09 14.22,3.54 13.98,3.99 13.60,4.33 13.23,4.68 12.76,4.89 12.30,5.09 11.79,5.14 11.28,5.19 10.79,5.07 10.29,4.96 9.86,4.69 9.43,4.42 9.10,4.03 8.78,3.63 8.60,3.16 8.41,2.68 8.39,2.17 8.37,1.66 8.52,1.18 8.66,0.69 8.95,0.27 9.24,-0.14 9.65,-0.44 10.06,-0.74 10.55,-0.90 11.03,-1.06 11.54,-1.05 12.05,-1.04 12.53,-0.87 13.01,-0.70 13.41,-0.39 13.81,-0.08 14.09,0.34 14.37,0.77 14.50,1.26 14.63,1.75 14.60,2.26 14.56,2.77 14.37,3.24 14.17,3.71 13.84,4.09 13.50,4.48 13.06,4.73 12.62,4.99 12.12,5.09 11.63,5.19 11.12,5.13 10.61,5.07 10.15,4.85 9.70,4.63 9.70,4.63 9.70,4.63 7.63,2.93 5.57,1.23 4.51,0.39 3.44,-0.45 2.43,1.43 1.41,3.31 0.75,5.01 0.09,6.71 -0.03,7.04 -0.16,7.37 -0.36,7.66 -0.57,7.95 -0.84,8.18 -1.11,8.41 -1.42,8.57 -1.74,8.73 -2.09,8.81 -2.43,8.89 -2.79,8.88 -3.14,8.88 -3.48,8.79 -3.83,8.70 -4.14,8.53 -4.45,8.36 -4.71,8.12 -4.97,7.88 -5.17,7.58 -5.37,7.29 -5.49,6.96 -5.61,6.62 -5.64,6.27 -5.68,5.92 -5.63,5.57 -5.59,5.21 -4.99,4.09 -4.39,2.97 -3.43,0.86 -2.47,-1.23 -1.81,-2.92 -1.15,-4.60 -1.03,-4.91 -0.91,-5.21 -0.71,-5.48 -0.52,-5.74 -0.27,-5.96 -0.02,-6.17 0.27,-6.31 0.56,-6.46 0.89,-6.53 1.21,-6.60 1.54,-6.59 1.87,-6.59 2.18,-6.50 2.50,-6.41 2.79,-6.25 3.08,-6.09 3.32,-5.87 3.56,-5.65 3.74,-5.37 3.92,-5.09 4.03,-4.78 4.14,-4.47 4.17,-4.15 4.20,-3.82 4.16,-3.49 4.11,-3.17 3.73,-2.24 3.35,-1.32 2.88,-0.18 2.41,0.96 2.26,1.23 2.11,1.51 1.89,1.74 1.68,1.97 1.42,2.14 1.16,2.32 0.87,2.42 0.57,2.53 0.26,2.56 -0.04,2.59 -0.35,2.55 -0.66,2.51 -0.95,2.39 -1.24,2.27 -1.50,2.09 -1.75,1.91 -1.96,1.67 -2.16,1.43 -2.30,1.15 -2.44,0.87 -2.51,0.57 -2.58,0.26 -2.57,-0.04 -2.57,-0.35 -2.49,-0.66 -2.41,-0.96 -2.41,-0.96 L -2.41,-0.96 Z"></path></g><g transform="translate(701.25 826) rotate(0 -50.399993896484375 14.4000244140625)" stroke="none"><path fill="#1864ab" d="M -0.18,2.04 Q -0.18,2.04 -2.70,1.71 -5.22,1.38 -8.77,1.22 -12.31,1.05 -17.70,1.18 -23.09,1.32 -26.57,1.36 -30.04,1.40 -32.90,1.41 -35.76,1.41 -37.33,1.71 -38.89,2.02 -40.76,2.37 -42.62,2.73 -43.70,2.82 -44.78,2.91 -46.45,3.55 -48.11,4.19 -49.96,4.35 -51.81,4.52 -54.17,5.17 -56.53,5.83 -58.05,6.19 -59.57,6.56 -61.29,7.07 -63.01,7.59 -67.32,8.67 -71.63,9.76 -74.05,10.61 -76.47,11.46 -78.51,12.06 -80.55,12.67 -81.77,13.23 -83.00,13.78 -84.69,15.05 -86.39,16.31 -87.36,16.97 -88.33,17.62 -89.28,18.96 -90.23,20.30 -90.84,21.49 -91.46,22.68 -92.54,24.23 -93.62,25.78 -94.80,27.33 -95.99,28.89 -97.04,29.92 -98.09,30.96 -98.40,31.34 -98.71,31.71 -99.13,31.97 -99.55,32.23 -100.03,32.34 -100.50,32.45 -100.99,32.40 -101.48,32.35 -101.92,32.15 -102.37,31.95 -102.73,31.61 -103.09,31.28 -103.32,30.85 -103.56,30.42 -103.64,29.93 -103.72,29.45 -103.65,28.97 -103.57,28.48 -103.35,28.05 -103.12,27.61 -102.77,27.27 -102.42,26.93 -101.97,26.72 -101.53,26.51 -101.04,26.46 -100.56,26.40 -100.08,26.50 -99.60,26.60 -99.18,26.85 -98.76,27.10 -98.43,27.47 -98.11,27.84 -97.93,28.29 -97.74,28.75 -97.71,29.24 -97.68,29.73 -97.81,30.20 -97.94,30.67 -98.21,31.08 -98.48,31.49 -98.87,31.79 -99.25,32.09 -99.72,32.25 -100.18,32.41 -100.67,32.41 -101.16,32.42 -101.62,32.26 -102.09,32.11 -102.48,31.82 -102.87,31.53 -103.15,31.12 -103.43,30.72 -103.57,30.25 -103.70,29.78 -103.68,29.29 -103.66,28.80 -103.48,28.34 -103.30,27.89 -103.30,27.89 -103.30,27.89 -101.41,25.87 -99.51,23.86 -98.86,22.99 -98.22,22.11 -97.30,21.16 -96.38,20.21 -95.50,18.83 -94.63,17.44 -93.58,16.73 -92.54,16.02 -91.72,14.99 -90.90,13.96 -88.86,12.84 -86.82,11.72 -85.58,11.02 -84.35,10.32 -82.98,9.88 -81.60,9.43 -79.69,8.76 -77.78,8.08 -75.25,7.01 -72.71,5.93 -68.59,4.65 -64.47,3.36 -62.60,2.64 -60.73,1.91 -59.22,1.51 -57.71,1.12 -56.30,0.77 -54.90,0.42 -53.56,0.13 -52.23,-0.14 -50.86,-0.25 -49.49,-0.37 -48.36,-0.66 -47.23,-0.96 -45.03,-1.11 -42.83,-1.26 -41.09,-1.20 -39.35,-1.14 -37.58,-1.33 -35.80,-1.51 -32.95,-1.57 -30.11,-1.64 -26.66,-1.76 -23.21,-1.87 -17.71,-2.12 -12.22,-2.36 -8.55,-2.33 -4.89,-2.30 -2.35,-2.17 0.18,-2.04 0.42,-1.99 0.66,-1.94 0.89,-1.83 1.11,-1.72 1.30,-1.56 1.49,-1.40 1.64,-1.20 1.78,-1.00 1.88,-0.77 1.97,-0.55 2.01,-0.30 2.05,-0.06 2.02,0.18 2.00,0.43 1.92,0.66 1.84,0.89 1.71,1.10 1.57,1.31 1.39,1.48 1.21,1.65 1.00,1.77 0.78,1.89 0.54,1.96 0.30,2.02 0.06,2.03 -0.18,2.04 -0.18,2.04 L -0.18,2.04 Z"></path></g><g transform="translate(596.4500122070312 850.7999877929688) rotate(0 6.8000030517578125 4.800018310546875)" stroke="none"><path fill="#1864ab" d="M 2.53,0.42 Q 2.53,0.42 2.30,1.80 2.06,3.18 2.02,4.66 1.98,6.14 4.05,6.43 6.12,6.71 7.90,5.81 9.68,4.90 11.10,4.16 12.53,3.42 12.95,3.24 13.37,3.06 13.83,3.02 14.29,2.98 14.73,3.09 15.18,3.21 15.57,3.45 15.95,3.70 16.24,4.06 16.53,4.42 16.69,4.85 16.84,5.28 16.85,5.74 16.87,6.20 16.73,6.64 16.60,7.08 16.33,7.45 16.06,7.83 15.68,8.09 15.31,8.36 14.87,8.50 14.43,8.63 13.97,8.62 13.51,8.60 13.08,8.44 12.65,8.28 12.29,8.00 11.93,7.71 11.69,7.32 11.44,6.93 11.33,6.49 11.22,6.04 11.26,5.58 11.30,5.12 11.48,4.70 11.66,4.28 11.97,3.94 12.28,3.60 12.68,3.37 13.08,3.15 13.53,3.06 13.98,2.97 14.43,3.04 14.89,3.10 15.30,3.30 15.71,3.51 16.04,3.83 16.36,4.16 16.57,4.57 16.77,4.98 16.83,5.44 16.89,5.90 16.80,6.35 16.72,6.80 16.49,7.20 16.26,7.60 15.92,7.90 15.58,8.21 15.58,8.21 15.58,8.21 13.96,9.01 12.33,9.82 10.96,10.57 9.59,11.33 7.89,11.88 6.19,12.44 4.89,12.44 3.59,12.44 1.25,12.14 -1.08,11.84 -1.88,11.13 -2.67,10.42 -3.09,9.30 -3.51,8.17 -3.48,7.02 -3.46,5.86 -3.22,4.10 -2.98,2.33 -2.76,0.95 -2.53,-0.42 -2.44,-0.72 -2.36,-1.01 -2.20,-1.28 -2.05,-1.55 -1.83,-1.77 -1.61,-1.99 -1.35,-2.16 -1.09,-2.32 -0.79,-2.42 -0.50,-2.52 -0.19,-2.54 0.11,-2.56 0.41,-2.51 0.72,-2.46 1.01,-2.34 1.29,-2.22 1.54,-2.03 1.78,-1.84 1.98,-1.60 2.17,-1.36 2.31,-1.08 2.44,-0.80 2.50,-0.50 2.56,-0.19 2.55,0.11 2.53,0.42 2.53,0.42 L 2.53,0.42 Z"></path></g><g transform="translate(721.050048828125 802) rotate(0 143.5 25)"><text x="0" y="17" font-family="Virgil, Segoe UI Emoji" font-size="20px" fill="#1864ab" text-anchor="start" style="white-space: pre;" direction="ltr">[∑mr^2] è la definizione di I</text><text x="0" y="42" font-family="Virgil, Segoe UI Emoji" font-size="20px" fill="#1864ab" text-anchor="start" style="white-space: pre;" direction="ltr">(momento di inerzia)</text></g></svg>