<svg version="1.1" xmlns="http://www.w3.org/2000/svg" viewBox="0 0 10020 728.8499755859375" width="10020" height="728.8499755859375">
  <!-- svg-source:excalidraw -->
  
  <defs>
    <style>
      @font-face {
        font-family: "Virgil";
        src: url("https://excalidraw.com/Virgil.woff2");
      }
      @font-face {
        font-family: "Cascadia";
        src: url("https://excalidraw.com/Cascadia.woff2");
      }
    </style>
  </defs>
  <rect x="0" y="0" width="10020" height="728.8499755859375" fill="#fff0"></rect><g stroke-linecap="round" transform="translate(10 10) rotate(0 5000 0.5)"><path d="M-0.52 -0.26 C3022.65 -30.2, 6044.59 -29.2, 9999.32 0.22 M0.38 -0.31 C3948.03 -0.44, 7895.41 0.2, 9999.95 0.08 M10000.08 -0.06 C10000.09 0.27, 10000.05 0.48, 10000.09 0.92 M9999.97 0.01 C9999.95 0.33, 9999.98 0.72, 10000 0.99 M10000.22 1.51 C7095.77 35.76, 4193.15 34.95, -0.25 0.75 M10000.01 1.13 C7827.97 2.74, 5656.23 3.35, -0.33 0.84 M-0.04 1.01 C0 0.63, -0.06 0.15, 0.05 -0.03 M-0.04 0.95 C-0.04 0.73, -0.03 0.59, -0.05 -0.02" stroke="transparent" stroke-width="1" fill="none"></path></g><g stroke-linecap="round"><g transform="translate(557.4049068127963 686.4304077118635) rotate(0 0.7225496453596598 -61.090219114720796)"><path d="M-0.77 1.09 C-0.73 -19.24, 0.74 -102.08, 0.95 -122.65 M1.03 0.62 C0.8 -19.5, -0.57 -101.07, -0.26 -121.36" stroke="#000" stroke-width="1" fill="none"></path></g><g transform="translate(557.4049068127963 686.4304077118635) rotate(0 0.7225496453596598 -61.090219114720796)"><path d="M11.9 -94.03 C5.7 -105.03, 2.45 -112.84, 1.55 -120.97 M9.61 -92.68 C7.92 -102.13, 3.61 -112.01, -0.68 -120.52" stroke="#000" stroke-width="1" fill="none"></path></g><g transform="translate(557.4049068127963 686.4304077118635) rotate(0 0.7225496453596598 -61.090219114720796)"><path d="M-8.62 -93.96 C-7.38 -104.86, -3.19 -112.69, 1.55 -120.97 M-10.91 -92.62 C-5.78 -101.97, -3.27 -111.86, -0.68 -120.52" stroke="#000" stroke-width="1" fill="none"></path></g></g><g transform="translate(517.25 696.8499755859375) rotate(0 53 11)"><text x="0" y="15" font-family="Virgil, Segoe UI Emoji" font-size="17.032254126764116px" fill="#000" text-anchor="start" style="white-space: pre;" direction="ltr">allungamento</text></g><g stroke-linecap="round"><g transform="translate(613.6991712474928 627.4500122070312) rotate(0 0.1754082727379398 -26.800018310546875)"><path d="M0.22 0.34 C0.21 -8.81, -0.63 -45.35, -0.48 -54.46 M-1.12 -0.53 C-0.72 -9.58, 1.48 -44.57, 1.8 -53.37" stroke="#d9480f" stroke-width="1" fill="none"></path></g><g transform="translate(613.6991712474928 627.4500122070312) rotate(0 0.1754082727379398 -26.800018310546875)"><path d="M10.23 -29.13 C6.03 -33.27, 4.21 -40.79, 2.11 -52.85 M9.45 -28.21 C7.51 -37.84, 3.12 -47.49, 1.22 -52.41" stroke="#d9480f" stroke-width="1" fill="none"></path></g><g transform="translate(613.6991712474928 627.4500122070312) rotate(0 0.1754082727379398 -26.800018310546875)"><path d="M-8.08 -30.07 C-7.36 -33.99, -4.26 -41.26, 2.11 -52.85 M-8.86 -29.15 C-3.73 -38.33, -1.05 -47.62, 1.22 -52.41" stroke="#d9480f" stroke-width="1" fill="none"></path></g></g><g transform="translate(579.6499938964844 633.6499938964844) rotate(0 76.5 25)"><text x="0" y="17" font-family="Virgil, Segoe UI Emoji" font-size="20px" fill="#d9480f" text-anchor="start" style="white-space: pre;" direction="ltr">Modulo di Young</text><text x="0" y="42" font-family="Virgil, Segoe UI Emoji" font-size="20px" fill="#d9480f" text-anchor="start" style="white-space: pre;" direction="ltr">(o elasticità)</text></g><g stroke-linecap="round"><g transform="translate(780.371196307178 610.590391414792) rotate(0 -51.16057373952651 -14.770201810911587)"><path d="M-1.14 0.62 C-18.48 -4.2, -86.19 -24.12, -103.05 -29.16 M0.47 -0.1 C-16.58 -5.28, -83.47 -26.37, -100.73 -31.09" stroke="#1864ab" stroke-width="1" fill="none"></path></g><g transform="translate(780.371196307178 610.590391414792) rotate(0 -51.16057373952651 -14.770201810911587)"><path d="M-69.74 -34.12 C-81.65 -32.49, -93.96 -31.77, -100.36 -30.78 M-71.21 -32.8 C-78.69 -32.16, -86.53 -33.03, -100.94 -31.99" stroke="#1864ab" stroke-width="1" fill="none"></path></g><g transform="translate(780.371196307178 610.590391414792) rotate(0 -51.16057373952651 -14.770201810911587)"><path d="M-75.59 -14.45 C-85.21 -20.31, -95.28 -27.14, -100.36 -30.78 M-77.05 -13.13 C-82.88 -17.64, -89.19 -23.67, -100.94 -31.99" stroke="#1864ab" stroke-width="1" fill="none"></path></g></g><g transform="translate(792.4500122070312 608.8499755859375) rotate(0 111 25)"><text x="0" y="17" font-family="Virgil, Segoe UI Emoji" font-size="20px" fill="#1864ab" text-anchor="start" style="white-space: pre;" direction="ltr">Sforzo = F/A [N/m^2]</text><text x="0" y="42" font-family="Virgil, Segoe UI Emoji" font-size="20px" fill="#1864ab" text-anchor="start" style="white-space: pre;" direction="ltr"></text></g><g transform="translate(635.6500244140625 555.4499816894531) rotate(0 19.199981689453125 11.199996948242188)" stroke="none"><path fill="#1864ab" d="M 2.49,-0.55 Q 2.49,-0.55 2.79,1.55 3.10,3.65 3.36,4.80 3.61,5.95 3.75,7.23 3.89,8.50 4.22,10.06 4.55,11.61 4.82,13.52 5.09,15.42 5.48,16.62 5.88,17.83 7.49,17.72 9.10,17.61 10.83,17.78 12.55,17.95 16.00,18.63 19.44,19.30 21.26,19.58 23.08,19.85 24.29,19.90 25.50,19.94 27.10,19.88 28.69,19.83 29.85,19.75 31.01,19.68 32.53,19.61 34.05,19.54 35.40,19.49 36.76,19.43 36.03,17.68 35.31,15.93 35.40,14.35 35.49,12.76 35.34,11.36 35.20,9.95 34.72,8.13 34.25,6.31 34.22,5.86 34.18,5.40 34.30,4.96 34.41,4.51 34.66,4.13 34.91,3.75 35.27,3.46 35.63,3.18 36.06,3.03 36.49,2.87 36.95,2.86 37.41,2.86 37.85,3.00 38.28,3.13 38.65,3.40 39.02,3.68 39.28,4.05 39.55,4.42 39.68,4.86 39.81,5.30 39.79,5.76 39.77,6.22 39.61,6.65 39.45,7.07 39.16,7.43 38.87,7.78 38.48,8.02 38.09,8.27 37.65,8.37 37.20,8.48 36.75,8.44 36.29,8.39 35.87,8.21 35.45,8.02 35.11,7.72 34.78,7.41 34.56,7.01 34.33,6.61 34.25,6.15 34.17,5.70 34.24,5.25 34.30,4.80 34.51,4.39 34.72,3.98 35.05,3.66 35.37,3.34 35.78,3.14 36.20,2.94 36.65,2.89 37.11,2.83 37.55,2.92 38.00,3.01 38.40,3.24 38.80,3.47 39.10,3.81 39.40,4.16 39.58,4.58 39.75,5.00 39.75,5.00 39.75,5.00 40.21,7.09 40.66,9.17 40.97,10.97 41.28,12.77 41.36,14.40 41.43,16.02 41.37,18.09 41.31,20.15 40.93,21.88 40.55,23.60 38.65,24.48 36.76,25.36 35.40,25.30 34.04,25.24 32.51,25.17 30.99,25.10 29.78,25.01 28.57,24.92 26.88,24.76 25.18,24.60 23.88,24.46 22.59,24.33 20.67,24.20 18.75,24.07 15.58,23.78 12.40,23.50 10.44,23.57 8.48,23.65 6.39,23.26 4.30,22.87 3.12,22.49 1.94,22.11 1.23,21.15 0.52,20.18 0.32,19.11 0.13,18.04 -0.14,16.90 -0.42,15.77 -0.44,14.39 -0.47,13.02 -0.72,11.86 -0.97,10.70 -0.98,8.73 -0.99,6.76 -1.13,5.69 -1.26,4.62 -1.87,2.58 -2.49,0.55 -2.52,0.24 -2.55,-0.05 -2.51,-0.36 -2.46,-0.66 -2.35,-0.95 -2.23,-1.23 -2.05,-1.48 -1.87,-1.73 -1.63,-1.93 -1.40,-2.13 -1.12,-2.27 -0.85,-2.40 -0.55,-2.47 -0.24,-2.54 0.05,-2.53 0.36,-2.52 0.66,-2.44 0.96,-2.36 1.23,-2.21 1.49,-2.06 1.72,-1.85 1.95,-1.64 2.12,-1.39 2.28,-1.13 2.39,-0.84 2.49,-0.55 2.49,-0.55 L 2.49,-0.55 Z"></path></g><g stroke-linecap="round"><g transform="translate(806.0499267578125 557.8983080253616) rotate(0 -48.673069472699424 -4.073487752706576)"><path d="M0.01 -0.02 C-16.34 -1.72, -81.5 -7.61, -97.61 -9.05 M-1.45 -1.08 C-18.01 -2.14, -82.76 -6.89, -98.69 -7.98" stroke="#d9480f" stroke-width="1" fill="none"></path></g><g transform="translate(806.0499267578125 557.8983080253616) rotate(0 -48.673069472699424 -4.073487752706576)"><path d="M-69.88 -16.65 C-81 -12.24, -90.07 -9.51, -99.18 -8.62 M-69.6 -16.87 C-77.57 -13.68, -85.47 -11.49, -98.58 -7.81" stroke="#d9480f" stroke-width="1" fill="none"></path></g><g transform="translate(806.0499267578125 557.8983080253616) rotate(0 -48.673069472699424 -4.073487752706576)"><path d="M-71.33 3.82 C-82.16 1.32, -90.74 -2.86, -99.18 -8.62 M-71.05 3.6 C-78.68 0.88, -86.17 -2.84, -98.58 -7.81" stroke="#d9480f" stroke-width="1" fill="none"></path></g></g><g transform="translate(813.6500244140625 545.0499877929688) rotate(0 95 12.5)"><text x="0" y="18" font-family="Virgil, Segoe UI Emoji" font-size="20px" fill="#d9480f" text-anchor="start" style="white-space: pre;" direction="ltr">Lunghezza a riposo</text></g></svg>