<svg version="1.1" xmlns="http://www.w3.org/2000/svg" viewBox="0 0 10020 729.3999938964844" width="10020" height="729.3999938964844">
  <!-- svg-source:excalidraw -->
  
  <defs>
    <style>
      @font-face {
        font-family: "Virgil";
        src: url("https://excalidraw.com/Virgil.woff2");
      }
      @font-face {
        font-family: "Cascadia";
        src: url("https://excalidraw.com/Cascadia.woff2");
      }
    </style>
  </defs>
  <rect x="0" y="0" width="10020" height="729.3999938964844" fill="#fff0"></rect><g stroke-linecap="round" transform="translate(10 10) rotate(0 5000 0.5)"><path d="M-0.52 -0.26 C3022.65 -30.2, 6044.59 -29.2, 9999.32 0.22 M0.38 -0.31 C3948.03 -0.44, 7895.41 0.2, 9999.95 0.08 M10000.08 -0.06 C10000.09 0.27, 10000.05 0.48, 10000.09 0.92 M9999.97 0.01 C9999.95 0.33, 9999.98 0.72, 10000 0.99 M10000.22 1.51 C7095.77 35.76, 4193.15 34.95, -0.25 0.75 M10000.01 1.13 C7827.97 2.74, 5656.23 3.35, -0.33 0.84 M-0.04 1.01 C0 0.63, -0.06 0.15, 0.05 -0.03 M-0.04 0.95 C-0.04 0.73, -0.03 0.59, -0.05 -0.02" stroke="transparent" stroke-width="1" fill="none"></path></g><g stroke-linecap="round"><g transform="translate(579.6163253111858 658.5932399258018) rotate(0 0.4168434479227301 -39.29661996290088)"><path d="M-0.11 0.19 C-0.22 -13.25, 0.2 -66.44, 0.21 -79.77 M-1.63 -0.75 C-1.41 -14.17, 1.92 -65.79, 2.6 -78.84" stroke="#000" stroke-width="1" fill="none"></path></g><g transform="translate(579.6163253111858 658.5932399258018) rotate(0 0.4168434479227301 -39.29661996290088)"><path d="M11.52 -51.14 C5.85 -62.18, 2.66 -71.87, 3.42 -77.65 M11.19 -50.97 C9.01 -56.61, 6.55 -64.66, 2.61 -78.49" stroke="#000" stroke-width="1" fill="none"></path></g><g transform="translate(579.6163253111858 658.5932399258018) rotate(0 0.4168434479227301 -39.29661996290088)"><path d="M-8.96 -52.33 C-7.05 -62.91, -2.66 -72.16, 3.42 -77.65 M-9.29 -52.16 C-6.55 -57.42, -4.08 -65.19, 2.61 -78.49" stroke="#000" stroke-width="1" fill="none"></path></g></g><g transform="translate(524.4500122070312 669.3999938964844) rotate(0 118.5 25)"><text x="0" y="17" font-family="Virgil, Segoe UI Emoji" font-size="20px" fill="#000" text-anchor="start" style="white-space: pre;" direction="ltr">Modulo di taglio:</text><text x="0" y="42" font-family="Virgil, Segoe UI Emoji" font-size="20px" fill="#000" text-anchor="start" style="white-space: pre;" direction="ltr">Equivalente a E (Young)</text></g><g stroke-linecap="round"><g transform="translate(749.25 643.2000122070312) rotate(0 -63.600006103515625 -36.40000915527344)"><path d="M0.2 -0.07 C-21.01 -12.29, -106.41 -60.72, -127.45 -72.7 M-1.16 -1.15 C-22.53 -13.21, -107.69 -58.99, -128.53 -71.12" stroke="#1864ab" stroke-width="1" fill="none"></path></g><g transform="translate(749.25 643.2000122070312) rotate(0 -63.600006103515625 -36.40000915527344)"><path d="M-99.01 -66.78 C-107.17 -65.72, -114.35 -69.87, -130.27 -71.78 M-99.26 -66.83 C-106.44 -67.35, -114.94 -69.14, -127.75 -71.38" stroke="#1864ab" stroke-width="1" fill="none"></path></g><g transform="translate(749.25 643.2000122070312) rotate(0 -63.600006103515625 -36.40000915527344)"><path d="M-108.99 -48.85 C-114.41 -52.89, -118.76 -62.13, -130.27 -71.78 M-109.24 -48.9 C-113.76 -54.17, -119.57 -60.8, -127.75 -71.38" stroke="#1864ab" stroke-width="1" fill="none"></path></g></g><g transform="translate(765.25 626.2000122070312) rotate(0 187.5 25)"><text x="0" y="17" font-family="Virgil, Segoe UI Emoji" font-size="20px" fill="#1864ab" text-anchor="start" style="white-space: pre;" direction="ltr">Area della faccia parallela alle forze</text><text x="0" y="42" font-family="Virgil, Segoe UI Emoji" font-size="20px" fill="#1864ab" text-anchor="start" style="white-space: pre;" direction="ltr">(vedi figura)</text></g><g transform="translate(768.25 533.3999938964844) rotate(0 194.5 12.5)"><text x="0" y="18" font-family="Virgil, Segoe UI Emoji" font-size="20px" fill="#d9480f" text-anchor="start" style="white-space: pre;" direction="ltr">ΔL è perpendicolare a L0! (vedi figura)</text></g></svg>