<svg version="1.1" xmlns="http://www.w3.org/2000/svg" viewBox="0 0 10020 649.9998664170504" width="10020" height="649.9998664170504">
  <!-- svg-source:excalidraw -->
  
  <defs>
    <style>
      @font-face {
        font-family: "Virgil";
        src: url("https://excalidraw.com/Virgil.woff2");
      }
      @font-face {
        font-family: "Cascadia";
        src: url("https://excalidraw.com/Cascadia.woff2");
      }
    </style>
  </defs>
  <rect x="0" y="0" width="10020" height="649.9998664170504" fill="#fff0"></rect><g stroke-linecap="round" transform="translate(10 10) rotate(0 5000 0.5)"><path d="M-0.52 -0.26 C3022.65 -30.2, 6044.59 -29.2, 9999.32 0.22 M0.38 -0.31 C3948.03 -0.44, 7895.41 0.2, 9999.95 0.08 M10000.08 -0.06 C10000.09 0.27, 10000.05 0.48, 10000.09 0.92 M9999.97 0.01 C9999.95 0.33, 9999.98 0.72, 10000 0.99 M10000.22 1.51 C7095.77 35.76, 4193.15 34.95, -0.25 0.75 M10000.01 1.13 C7827.97 2.74, 5656.23 3.35, -0.33 0.84 M-0.04 1.01 C0 0.63, -0.06 0.15, 0.05 -0.03 M-0.04 0.95 C-0.04 0.73, -0.03 0.59, -0.05 -0.02" stroke="transparent" stroke-width="1" fill="none"></path></g><g stroke-linecap="round"><g transform="translate(673.4198833248206 559.3329510503821) rotate(0 -10.582917192140599 40.33345768333412)"><path d="M-0.73 0.87 C-4.38 14.33, -18.35 67.83, -21.76 81.09 M1.08 0.28 C-2.17 13.35, -15.51 65.64, -19.36 79.19" stroke="#d9480f" stroke-width="1" fill="none"></path></g><g transform="translate(673.4198833248206 559.3329510503821) rotate(0 -10.582917192140599 40.33345768333412)"><path d="M-20.54 48.31 C-20.39 58.49, -20.68 68.07, -18.4 79.13 M-21.87 49.32 C-20.86 56.87, -19.52 66.12, -19.2 79.77" stroke="#d9480f" stroke-width="1" fill="none"></path></g><g transform="translate(673.4198833248206 559.3329510503821) rotate(0 -10.582917192140599 40.33345768333412)"><path d="M-0.72 53.62 C-6.72 62.03, -13.15 69.97, -18.4 79.13 M-2.04 54.62 C-6.73 60.78, -11.02 68.53, -19.2 79.77" stroke="#d9480f" stroke-width="1" fill="none"></path></g></g></svg>