<svg version="1.1" xmlns="http://www.w3.org/2000/svg" viewBox="0 0 10020 744.4999694824219" width="10020" height="744.4999694824219">
  <!-- svg-source:excalidraw -->
  
  <defs>
    <style>
      @font-face {
        font-family: "Virgil";
        src: url("https://excalidraw.com/Virgil.woff2");
      }
      @font-face {
        font-family: "Cascadia";
        src: url("https://excalidraw.com/Cascadia.woff2");
      }
    </style>
  </defs>
  <rect x="0" y="0" width="10020" height="744.4999694824219" fill="#fff0"></rect><g stroke-linecap="round" transform="translate(10 10) rotate(0 5000 0.5)"><path d="M-0.52 -0.26 C3022.65 -30.2, 6044.59 -29.2, 9999.32 0.22 M0.38 -0.31 C3948.03 -0.44, 7895.41 0.2, 9999.95 0.08 M10000.08 -0.06 C10000.09 0.27, 10000.05 0.48, 10000.09 0.92 M9999.97 0.01 C9999.95 0.33, 9999.98 0.72, 10000 0.99 M10000.22 1.51 C7095.77 35.76, 4193.15 34.95, -0.25 0.75 M10000.01 1.13 C7827.97 2.74, 5656.23 3.35, -0.33 0.84 M-0.04 1.01 C0 0.63, -0.06 0.15, 0.05 -0.03 M-0.04 0.95 C-0.04 0.73, -0.03 0.59, -0.05 -0.02" stroke="transparent" stroke-width="1" fill="none"></path></g><g transform="translate(667.6500244140625 571.9000091552734) rotate(0 29.199981689453125 18.400001525878906)" stroke="none"><path fill="#d9480f" d="M 1.35,-0.76 Q 1.35,-0.76 2.37,1.10 3.39,2.97 4.84,5.22 6.29,7.46 8.25,9.65 10.20,11.84 11.93,13.74 13.65,15.63 16.59,18.05 19.52,20.46 24.05,23.33 28.58,26.19 32.57,28.14 36.56,30.08 39.80,31.27 43.03,32.46 46.30,33.33 49.56,34.20 51.46,34.54 53.36,34.87 55.71,35.05 58.06,35.24 58.30,35.30 58.54,35.36 58.75,35.50 58.95,35.63 59.10,35.82 59.26,36.02 59.34,36.25 59.42,36.48 59.43,36.73 59.43,36.97 59.36,37.21 59.28,37.44 59.14,37.64 58.99,37.84 58.79,37.98 58.59,38.12 58.35,38.19 58.12,38.26 57.87,38.25 57.62,38.24 57.39,38.16 57.16,38.07 56.97,37.91 56.78,37.76 56.65,37.55 56.52,37.34 56.46,37.10 56.41,36.86 56.43,36.62 56.45,36.37 56.55,36.15 56.65,35.92 56.82,35.74 56.98,35.56 57.20,35.44 57.41,35.32 57.66,35.28 57.90,35.23 58.14,35.27 58.39,35.30 58.61,35.41 58.82,35.53 59.00,35.70 59.17,35.88 59.28,36.10 59.38,36.32 59.41,36.56 59.45,36.81 59.40,37.05 59.35,37.29 59.22,37.50 59.10,37.72 58.92,37.88 58.73,38.04 58.50,38.14 58.28,38.23 58.03,38.25 57.79,38.27 57.79,38.27 57.79,38.27 55.31,37.94 52.83,37.61 50.86,37.19 48.88,36.77 45.50,35.87 42.11,34.96 38.75,33.73 35.39,32.49 31.27,30.48 27.14,28.47 22.47,25.52 17.79,22.57 14.70,20.04 11.62,17.51 9.86,15.62 8.11,13.73 5.99,11.39 3.88,9.05 2.34,6.75 0.79,4.44 -0.28,2.60 -1.35,0.76 -1.43,0.59 -1.50,0.42 -1.53,0.23 -1.56,0.04 -1.54,-0.13 -1.52,-0.32 -1.46,-0.50 -1.40,-0.68 -1.30,-0.84 -1.20,-0.99 -1.06,-1.12 -0.92,-1.25 -0.76,-1.35 -0.59,-1.44 -0.41,-1.49 -0.23,-1.54 -0.04,-1.55 0.13,-1.55 0.32,-1.51 0.50,-1.47 0.67,-1.39 0.84,-1.31 0.99,-1.19 1.13,-1.07 1.24,-0.92 1.35,-0.76 1.35,-0.76 L 1.35,-0.76 Z"></path></g><g transform="translate(661.25 569.5) rotate(0 9.20001220703125 -2.399993896484375)" stroke="none"><path fill="#d9480f" d="M -2.48,0 Q -2.48,0 -2.50,-1.16 -2.53,-2.33 -2.29,-3.43 -2.05,-4.53 -1.18,-6.02 -0.31,-7.50 1.34,-7.88 3.00,-8.25 5.65,-7.77 8.30,-7.30 9.39,-6.89 10.48,-6.49 12.24,-5.44 14.00,-4.39 16.47,-3.14 18.94,-1.88 19.31,-1.65 19.67,-1.42 19.95,-1.08 20.22,-0.74 20.37,-0.33 20.52,0.07 20.53,0.50 20.54,0.94 20.41,1.35 20.29,1.77 20.03,2.12 19.78,2.47 19.43,2.73 19.07,2.98 18.66,3.11 18.24,3.24 17.81,3.22 17.37,3.21 16.97,3.06 16.56,2.91 16.22,2.64 15.88,2.37 15.65,2.00 15.41,1.64 15.31,1.21 15.20,0.79 15.24,0.36 15.27,-0.06 15.45,-0.46 15.62,-0.86 15.91,-1.19 16.20,-1.51 16.58,-1.72 16.95,-1.94 17.38,-2.02 17.81,-2.10 18.24,-2.04 18.67,-1.98 19.06,-1.79 19.45,-1.60 19.76,-1.29 20.06,-0.98 20.26,-0.59 20.45,-0.20 20.51,0.22 20.57,0.65 20.48,1.07 20.40,1.50 20.19,1.88 19.97,2.26 19.65,2.55 19.33,2.84 18.93,3.01 18.53,3.18 18.10,3.22 17.66,3.25 17.24,3.15 16.82,3.04 16.82,3.04 16.82,3.04 14.18,1.63 11.55,0.22 10.03,-0.45 8.52,-1.14 6.80,-1.92 5.08,-2.70 3.81,-2.48 2.53,-2.26 2.50,-1.13 2.48,0 2.44,0.29 2.40,0.59 2.30,0.87 2.19,1.15 2.02,1.39 1.85,1.64 1.63,1.84 1.40,2.04 1.14,2.18 0.87,2.31 0.58,2.39 0.29,2.46 -0.00,2.46 -0.29,2.46 -0.58,2.39 -0.87,2.31 -1.14,2.17 -1.40,2.04 -1.63,1.84 -1.85,1.64 -2.02,1.39 -2.19,1.15 -2.30,0.87 -2.40,0.59 -2.44,0.29 -2.48,-0.00 -2.48,-0.00 L -2.48,0 Z"></path></g><g transform="translate(742.8500366210938 594.1000061035156) rotate(0 150.5 12.5)"><text x="0" y="18" font-family="Virgil, Segoe UI Emoji" font-size="20px" fill="#d9480f" text-anchor="start" style="white-space: pre;" direction="ltr">valido per piccoli angoli (θ&lt;10°)</text></g><g transform="translate(828.4500732421875 673.2181303604789) rotate(0 161.89999389648438 30.640919560971497)"><text x="0" y="14.427279707314327" font-family="Virgil, Segoe UI Emoji" font-size="16.562659222146756px" fill="#d9480f" text-anchor="start" style="white-space: pre;" direction="ltr">analogo all'accelerazione nell'oscillatore</text><text x="0" y="34.85455941462865" font-family="Virgil, Segoe UI Emoji" font-size="16.562659222146756px" fill="#d9480f" text-anchor="start" style="white-space: pre;" direction="ltr">armonico, ma al posto dell'estensione</text><text x="0" y="55.28183912194298" font-family="Virgil, Segoe UI Emoji" font-size="16.562659222146756px" fill="#d9480f" text-anchor="start" style="white-space: pre;" direction="ltr">abbiamo θ</text></g><g transform="translate(550.0500183105469 662.2999877929688) rotate(0 -10 12.800003051757812)" stroke="none"><path fill="#d9480f" d="M 2.30,0.64 Q 2.30,0.64 1.80,2.28 1.30,3.93 0.27,5.74 -0.76,7.55 -1.62,8.92 -2.48,10.29 -3.30,11.53 -4.12,12.76 -5.29,13.96 -6.45,15.15 -7.30,16.08 -8.16,17.02 -9.31,18.02 -10.46,19.02 -11.78,20.27 -13.09,21.52 -13.89,22.27 -14.69,23.02 -16.72,25.60 -18.76,28.18 -19.21,28.29 -19.66,28.39 -20.12,28.35 -20.58,28.30 -21.00,28.11 -21.43,27.92 -21.77,27.60 -22.11,27.29 -22.33,26.88 -22.55,26.48 -22.63,26.02 -22.71,25.56 -22.64,25.11 -22.57,24.65 -22.35,24.24 -22.14,23.82 -21.81,23.50 -21.48,23.18 -21.06,22.98 -20.64,22.78 -20.18,22.73 -19.72,22.67 -19.27,22.77 -18.81,22.86 -18.41,23.10 -18.01,23.33 -17.71,23.68 -17.41,24.03 -17.23,24.46 -17.05,24.89 -17.02,25.35 -16.99,25.81 -17.11,26.26 -17.23,26.71 -17.49,27.09 -17.75,27.48 -18.11,27.76 -18.48,28.05 -18.91,28.20 -19.35,28.35 -19.82,28.36 -20.28,28.36 -20.72,28.22 -21.16,28.08 -21.53,27.80 -21.90,27.52 -22.17,27.14 -22.43,26.76 -22.56,26.32 -22.69,25.87 -22.67,25.41 -22.65,24.95 -22.48,24.51 -22.31,24.08 -22.02,23.73 -21.72,23.37 -21.33,23.13 -20.93,22.88 -20.93,22.88 -20.93,22.88 -20.08,21.54 -19.23,20.19 -17.95,19.00 -16.67,17.81 -15.11,16.59 -13.55,15.36 -12.56,14.55 -11.57,13.74 -10.62,12.80 -9.67,11.86 -8.76,11.02 -7.86,10.19 -7.04,9.04 -6.23,7.90 -5.42,6.65 -4.62,5.40 -3.88,4.03 -3.14,2.66 -2.72,1.00 -2.30,-0.64 -2.19,-0.91 -2.08,-1.17 -1.91,-1.41 -1.74,-1.64 -1.52,-1.82 -1.30,-2.01 -1.04,-2.13 -0.78,-2.26 -0.49,-2.32 -0.21,-2.38 0.07,-2.37 0.36,-2.36 0.63,-2.29 0.91,-2.21 1.16,-2.07 1.42,-1.92 1.63,-1.73 1.84,-1.53 1.99,-1.29 2.15,-1.04 2.24,-0.77 2.34,-0.50 2.36,-0.21 2.39,0.07 2.35,0.35 2.30,0.64 2.30,0.64 L 2.30,0.64 Z"></path></g><g transform="translate(519.6499938964844 683.8999938964844) rotate(0 12.400009155273438 8)" stroke="none"><path fill="#d9480f" d="M 2.35,-0.78 Q 2.35,-0.78 2.89,1.33 3.44,3.45 3.93,5.30 4.41,7.15 5.35,8.82 6.28,10.48 6.80,11.78 7.32,13.07 8.49,12.57 9.67,12.07 11.36,11.27 13.06,10.47 14.46,9.66 15.86,8.84 17.45,8.02 19.04,7.20 21.17,5.84 23.30,4.48 23.67,4.37 24.04,4.25 24.42,4.27 24.81,4.28 25.17,4.41 25.53,4.54 25.83,4.79 26.13,5.03 26.34,5.35 26.54,5.68 26.63,6.05 26.73,6.43 26.69,6.81 26.66,7.19 26.51,7.55 26.36,7.90 26.10,8.18 25.84,8.47 25.50,8.66 25.17,8.85 24.79,8.92 24.41,8.99 24.03,8.94 23.65,8.88 23.31,8.71 22.96,8.54 22.69,8.27 22.42,7.99 22.25,7.65 22.08,7.30 22.03,6.92 21.98,6.54 22.05,6.16 22.12,5.79 22.31,5.45 22.50,5.12 22.79,4.86 23.08,4.60 23.43,4.45 23.79,4.30 24.17,4.27 24.55,4.24 24.93,4.34 25.30,4.43 25.62,4.64 25.95,4.85 26.19,5.15 26.43,5.45 26.56,5.81 26.69,6.17 26.70,6.56 26.71,6.94 26.60,7.31 26.48,7.68 26.26,7.99 26.03,8.30 25.72,8.52 25.41,8.75 25.41,8.75 25.41,8.75 23.32,9.99 21.24,11.24 19.79,12.07 18.34,12.91 16.90,13.83 15.46,14.75 13.72,15.87 11.99,16.98 9.93,17.69 7.86,18.39 6.57,17.80 5.28,17.22 4.04,15.72 2.79,14.23 2.05,12.44 1.31,10.64 0.87,9.48 0.43,8.32 -0.12,6.57 -0.68,4.82 -1.51,2.80 -2.35,0.78 -2.41,0.49 -2.47,0.19 -2.45,-0.10 -2.44,-0.39 -2.36,-0.68 -2.27,-0.97 -2.13,-1.23 -1.98,-1.48 -1.77,-1.70 -1.56,-1.92 -1.31,-2.08 -1.06,-2.23 -0.77,-2.33 -0.49,-2.42 -0.19,-2.45 0.10,-2.47 0.39,-2.42 0.69,-2.38 0.96,-2.26 1.24,-2.14 1.47,-1.96 1.71,-1.78 1.90,-1.55 2.09,-1.32 2.22,-1.05 2.35,-0.78 2.35,-0.78 L 2.35,-0.78 Z"></path></g><g transform="translate(769.2500610351562 723.1000061035156) rotate(0 7.199981689453125 -5.5999908447265625)" stroke="none"><path fill="#d9480f" d="M -1.12,-1.80 Q -1.12,-1.80 0.76,-2.86 2.66,-3.91 4.31,-5.19 5.96,-6.46 7.35,-7.72 8.74,-8.98 10.74,-10.56 12.73,-12.14 12.97,-12.31 13.21,-12.49 13.50,-12.58 13.78,-12.67 14.08,-12.67 14.38,-12.66 14.66,-12.56 14.94,-12.46 15.18,-12.28 15.41,-12.09 15.58,-11.84 15.74,-11.59 15.82,-11.30 15.89,-11.01 15.87,-10.71 15.85,-10.42 15.73,-10.14 15.62,-9.86 15.42,-9.64 15.22,-9.41 14.97,-9.26 14.71,-9.11 14.41,-9.05 14.12,-8.99 13.82,-9.03 13.53,-9.07 13.26,-9.20 12.99,-9.33 12.77,-9.54 12.56,-9.75 12.42,-10.01 12.29,-10.28 12.24,-10.58 12.20,-10.87 12.25,-11.17 12.31,-11.46 12.45,-11.72 12.60,-11.99 12.82,-12.19 13.04,-12.39 13.31,-12.51 13.59,-12.63 13.88,-12.66 14.18,-12.69 14.47,-12.62 14.76,-12.55 15.02,-12.39 15.27,-12.23 15.46,-12.00 15.65,-11.77 15.76,-11.49 15.86,-11.21 15.87,-10.91 15.89,-10.61 15.80,-10.33 15.72,-10.04 15.54,-9.79 15.37,-9.55 15.37,-9.55 15.37,-9.55 13.22,-7.98 11.07,-6.40 9.63,-5.08 8.20,-3.76 6.44,-2.22 4.69,-0.68 2.91,0.56 1.12,1.80 0.89,1.91 0.66,2.02 0.41,2.07 0.15,2.12 -0.09,2.10 -0.35,2.09 -0.59,2.02 -0.84,1.95 -1.06,1.82 -1.28,1.69 -1.47,1.51 -1.65,1.33 -1.79,1.11 -1.92,0.90 -2.00,0.65 -2.08,0.41 -2.10,0.15 -2.12,-0.09 -2.08,-0.34 -2.03,-0.60 -1.93,-0.83 -1.83,-1.07 -1.68,-1.27 -1.52,-1.48 -1.32,-1.64 -1.12,-1.80 -1.12,-1.80 L -1.12,-1.80 Z"></path></g><g transform="translate(771.6500244140625 722.3000183105469) rotate(0 6 4.8000030517578125)" stroke="none"><path fill="#d9480f" d="M 1.48,-1.69 Q 1.48,-1.69 3.24,0.00 5.00,1.71 6.45,3.15 7.90,4.59 8.95,5.29 10.00,5.98 11.27,6.77 12.55,7.55 12.83,7.74 13.11,7.93 13.31,8.20 13.51,8.47 13.62,8.79 13.73,9.11 13.73,9.45 13.72,9.79 13.62,10.11 13.51,10.43 13.30,10.69 13.10,10.96 12.82,11.15 12.53,11.34 12.21,11.43 11.88,11.52 11.55,11.50 11.21,11.48 10.90,11.35 10.58,11.23 10.33,11.01 10.07,10.79 9.90,10.50 9.72,10.21 9.65,9.88 9.58,9.55 9.62,9.21 9.66,8.87 9.80,8.57 9.94,8.26 10.18,8.02 10.41,7.77 10.71,7.62 11.01,7.46 11.34,7.41 11.67,7.35 12.01,7.41 12.34,7.47 12.64,7.63 12.94,7.78 13.17,8.03 13.40,8.28 13.54,8.58 13.68,8.89 13.71,9.23 13.75,9.56 13.68,9.89 13.60,10.22 13.43,10.51 13.25,10.80 12.99,11.02 12.73,11.23 12.42,11.36 12.11,11.48 11.77,11.50 11.43,11.52 11.11,11.42 10.78,11.33 10.78,11.33 10.78,11.33 9.18,10.27 7.58,9.20 6.46,8.27 5.34,7.34 3.85,6.03 2.35,4.72 0.43,3.21 -1.48,1.69 -1.66,1.49 -1.84,1.29 -1.97,1.05 -2.10,0.81 -2.16,0.54 -2.23,0.28 -2.23,0.01 -2.23,-0.25 -2.17,-0.52 -2.11,-0.78 -1.98,-1.02 -1.86,-1.26 -1.68,-1.47 -1.50,-1.67 -1.28,-1.83 -1.05,-1.98 -0.80,-2.08 -0.55,-2.18 -0.28,-2.21 -0.01,-2.25 0.25,-2.22 0.52,-2.18 0.77,-2.09 1.03,-2.00 1.25,-1.84 1.48,-1.69 1.48,-1.69 L 1.48,-1.69 Z"></path></g><g transform="translate(775.6500244140625 719.8999938964844) rotate(0 23.600006103515625 -6.3999786376953125)" stroke="none"><path fill="#d9480f" d="M 0.57,-0.88 Q 0.57,-0.88 1.63,-0.66 2.70,-0.44 4.43,-0.38 6.15,-0.32 7.39,-0.31 8.63,-0.29 10.89,-1.16 13.15,-2.04 14.08,-2.64 15.01,-3.24 16.74,-4.46 18.48,-5.68 19.41,-6.31 20.33,-6.94 21.66,-7.70 23.00,-8.45 24.05,-9.20 25.10,-9.94 26.94,-11.19 28.78,-12.44 30.27,-12.98 31.77,-13.52 33.10,-13.96 34.43,-14.41 35.80,-14.67 37.17,-14.93 38.94,-15.46 40.72,-15.99 42.02,-16.51 43.32,-17.04 45.06,-17.60 46.79,-18.17 47.28,-18.13 47.76,-18.08 48.20,-17.89 48.65,-17.69 49.01,-17.37 49.36,-17.04 49.60,-16.62 49.83,-16.19 49.92,-15.71 50.01,-15.24 49.94,-14.76 49.87,-14.28 49.65,-13.84 49.43,-13.41 49.08,-13.07 48.74,-12.73 48.30,-12.52 47.87,-12.31 47.39,-12.25 46.90,-12.19 46.43,-12.28 45.95,-12.38 45.53,-12.62 45.11,-12.86 44.79,-13.23 44.47,-13.59 44.28,-14.04 44.10,-14.48 44.06,-14.97 44.03,-15.45 44.15,-15.92 44.27,-16.39 44.53,-16.80 44.80,-17.20 45.18,-17.50 45.56,-17.80 46.02,-17.97 46.47,-18.13 46.96,-18.14 47.44,-18.15 47.90,-18.00 48.37,-17.85 48.76,-17.57 49.15,-17.28 49.43,-16.89 49.71,-16.49 49.85,-16.02 49.98,-15.56 49.97,-15.08 49.95,-14.59 49.78,-14.14 49.61,-13.68 49.30,-13.31 48.99,-12.93 48.58,-12.68 48.17,-12.42 47.70,-12.31 47.23,-12.19 47.23,-12.19 47.23,-12.19 45.50,-11.72 43.76,-11.25 42.09,-10.80 40.42,-10.35 38.29,-9.85 36.16,-9.36 34.88,-8.90 33.59,-8.45 32.48,-8.05 31.37,-7.65 29.76,-6.67 28.15,-5.70 26.91,-4.80 25.67,-3.90 23.64,-2.67 21.61,-1.45 19.62,-0.18 17.63,1.07 16.51,1.71 15.40,2.35 13.44,3.43 11.48,4.51 10.03,4.77 8.58,5.03 7.26,5.01 5.95,4.99 3.73,4.74 1.51,4.50 0.47,4.21 -0.57,3.92 -0.85,3.81 -1.13,3.71 -1.37,3.54 -1.62,3.37 -1.82,3.15 -2.02,2.93 -2.16,2.67 -2.30,2.41 -2.37,2.12 -2.44,1.83 -2.45,1.53 -2.45,1.23 -2.38,0.94 -2.31,0.65 -2.17,0.39 -2.04,0.13 -1.84,-0.09 -1.64,-0.31 -1.40,-0.48 -1.16,-0.65 -0.88,-0.76 -0.60,-0.87 -0.31,-0.91 -0.01,-0.94 0.28,-0.91 0.57,-0.88 0.57,-0.88 L 0.57,-0.88 Z"></path></g><g transform="translate(646.8500366210938 661.4999694824219) rotate(0 16.399993896484375 14.400009155273438)" stroke="none"><path fill="#d9480f" d="M 2.49,-0.67 Q 2.49,-0.67 2.89,1.20 3.29,3.09 3.66,4.10 4.02,5.11 4.71,6.50 5.40,7.88 6.18,9.13 6.97,10.38 7.95,10.87 8.94,11.35 9.88,11.95 10.83,12.56 12.03,13.13 13.22,13.69 14.79,14.39 16.37,15.08 17.36,15.49 18.36,15.89 19.80,16.22 21.25,16.55 22.27,17.00 23.29,17.45 25.06,18.19 26.82,18.92 28.05,19.54 29.28,20.16 30.94,21.44 32.59,22.73 34.09,25.00 35.59,27.27 35.72,27.76 35.84,28.26 35.80,28.77 35.77,29.28 35.57,29.76 35.37,30.23 35.03,30.61 34.69,31.00 34.24,31.25 33.79,31.51 33.29,31.61 32.79,31.71 32.28,31.64 31.77,31.58 31.31,31.35 30.85,31.13 30.48,30.76 30.12,30.40 29.89,29.95 29.66,29.49 29.58,28.98 29.51,28.47 29.60,27.97 29.70,27.46 29.95,27.01 30.20,26.57 30.58,26.22 30.96,25.87 31.43,25.67 31.90,25.46 32.41,25.42 32.92,25.37 33.42,25.49 33.92,25.62 34.35,25.89 34.79,26.16 35.11,26.56 35.43,26.96 35.61,27.44 35.79,27.92 35.81,28.43 35.83,28.95 35.68,29.44 35.53,29.93 35.24,30.35 34.94,30.77 34.52,31.07 34.11,31.37 33.62,31.52 33.13,31.68 32.62,31.67 32.10,31.66 31.62,31.48 31.14,31.31 30.74,30.99 30.33,30.67 30.05,30.24 29.78,29.81 29.78,29.81 29.78,29.81 28.41,28.03 27.03,26.25 25.86,25.51 24.69,24.77 23.66,24.39 22.62,24.01 21.64,23.57 20.65,23.13 19.45,22.63 18.25,22.12 17.19,21.86 16.13,21.60 14.25,20.83 12.37,20.05 10.90,19.36 9.42,18.66 7.72,17.58 6.01,16.50 4.92,15.63 3.83,14.77 2.64,13.25 1.45,11.74 0.78,10.28 0.11,8.82 -0.27,7.71 -0.65,6.60 -0.97,5.46 -1.28,4.33 -1.89,2.50 -2.49,0.67 -2.54,0.36 -2.58,0.05 -2.55,-0.25 -2.52,-0.56 -2.42,-0.85 -2.31,-1.14 -2.14,-1.41 -1.97,-1.67 -1.74,-1.88 -1.51,-2.09 -1.24,-2.24 -0.97,-2.39 -0.67,-2.48 -0.37,-2.56 -0.05,-2.56 0.25,-2.57 0.55,-2.50 0.86,-2.44 1.14,-2.30 1.42,-2.16 1.65,-1.96 1.89,-1.76 2.08,-1.50 2.26,-1.25 2.38,-0.96 2.49,-0.67 2.49,-0.67 L 2.49,-0.67 Z"></path></g><g transform="translate(672.4500122070312 692.7000122070312) rotate(0 8.399993896484375 -1.20001220703125)" stroke="none"><path fill="#d9480f" d="M 1.02,-2.38 Q 1.02,-2.38 2.60,-1.62 4.18,-0.87 5.51,-0.36 6.83,0.13 8.51,0.60 10.18,1.07 11.78,1.09 13.37,1.11 13.55,-0.58 13.74,-2.28 13.74,-4.20 13.73,-6.11 13.81,-6.60 13.89,-7.09 14.13,-7.53 14.36,-7.97 14.72,-8.30 15.08,-8.64 15.53,-8.85 15.98,-9.06 16.47,-9.11 16.97,-9.16 17.45,-9.06 17.93,-8.95 18.36,-8.69 18.78,-8.44 19.10,-8.06 19.42,-7.68 19.60,-7.22 19.79,-6.76 19.81,-6.26 19.84,-5.77 19.70,-5.29 19.57,-4.81 19.29,-4.40 19.01,-3.99 18.62,-3.70 18.22,-3.40 17.75,-3.24 17.28,-3.08 16.79,-3.08 16.29,-3.09 15.82,-3.24 15.35,-3.40 14.96,-3.70 14.57,-4.01 14.29,-4.42 14.01,-4.83 13.88,-5.30 13.75,-5.78 13.78,-6.28 13.81,-6.77 13.99,-7.23 14.17,-7.69 14.50,-8.07 14.82,-8.45 15.24,-8.70 15.67,-8.95 16.15,-9.06 16.64,-9.16 17.13,-9.11 17.62,-9.05 18.07,-8.85 18.52,-8.64 18.88,-8.29 19.24,-7.95 19.47,-7.51 19.70,-7.08 19.78,-6.59 19.86,-6.10 19.86,-6.10 19.86,-6.10 19.83,-4.16 19.81,-2.21 19.81,-1.01 19.81,0.19 19.78,1.52 19.75,2.84 19.38,4.04 19.01,5.23 18.03,5.90 17.06,6.57 15.69,6.73 14.32,6.89 12.92,6.79 11.52,6.69 9.87,6.32 8.22,5.96 6.66,5.33 5.09,4.71 3.67,4.17 2.25,3.63 0.61,3.00 -1.02,2.38 -1.29,2.22 -1.56,2.06 -1.78,1.85 -2.01,1.63 -2.17,1.36 -2.34,1.10 -2.44,0.80 -2.53,0.51 -2.56,0.20 -2.58,-0.10 -2.53,-0.41 -2.48,-0.72 -2.36,-1.01 -2.24,-1.30 -2.05,-1.54 -1.86,-1.79 -1.62,-1.99 -1.37,-2.19 -1.09,-2.32 -0.81,-2.45 -0.50,-2.52 -0.20,-2.58 0.10,-2.56 0.42,-2.55 0.72,-2.46 1.02,-2.38 1.02,-2.38 L 1.02,-2.38 Z"></path></g><g transform="translate(689.2500610351562 639.9000244140625) rotate(0 29.5999755859375 28.399978637695312)" stroke="none"><path fill="#1864ab" d="M 0.62,-2.08 Q 0.62,-2.08 1.80,-1.78 2.98,-1.47 4.64,-0.94 6.29,-0.41 8.53,0.85 10.77,2.12 12.91,2.97 15.05,3.81 16.83,4.74 18.62,5.67 19.79,6.13 20.97,6.59 22.94,7.66 24.90,8.74 26.21,9.53 27.51,10.31 28.63,11.01 29.74,11.70 31.00,12.79 32.26,13.87 33.55,14.76 34.84,15.65 36.31,16.59 37.78,17.53 39.11,18.25 40.43,18.97 41.72,20.14 43.01,21.32 44.09,22.21 45.18,23.10 46.27,23.76 47.36,24.43 48.37,25.45 49.38,26.48 50.29,27.24 51.20,27.99 52.18,28.94 53.15,29.89 54.30,31.74 55.44,33.59 56.35,35.00 57.26,36.40 58.10,37.44 58.93,38.48 59.60,39.32 60.28,40.16 60.75,41.37 61.23,42.59 61.52,44.22 61.81,45.86 61.92,47.19 62.02,48.51 62.06,50.28 62.09,52.05 62.14,54.31 62.18,56.57 62.10,57.04 62.02,57.52 61.80,57.94 61.57,58.37 61.22,58.70 60.87,59.03 60.43,59.24 59.99,59.44 59.51,59.49 59.03,59.54 58.56,59.44 58.09,59.34 57.68,59.09 57.26,58.84 56.95,58.47 56.64,58.10 56.46,57.66 56.28,57.21 56.26,56.73 56.23,56.24 56.36,55.78 56.49,55.31 56.76,54.91 57.03,54.52 57.41,54.22 57.80,53.93 58.26,53.78 58.71,53.62 59.19,53.62 59.68,53.62 60.13,53.78 60.59,53.93 60.98,54.22 61.36,54.52 61.63,54.91 61.90,55.31 62.03,55.78 62.16,56.24 62.13,56.73 62.11,57.21 61.93,57.66 61.75,58.10 61.44,58.47 61.13,58.84 60.71,59.09 60.30,59.34 59.83,59.44 59.36,59.54 58.88,59.49 58.40,59.44 57.96,59.24 57.52,59.03 57.17,58.70 56.82,58.37 56.59,57.94 56.37,57.52 56.29,57.04 56.21,56.57 56.21,56.57 56.21,56.57 56.25,54.31 56.29,52.06 56.32,50.32 56.35,48.59 56.39,47.41 56.44,46.24 56.43,45.11 56.41,43.98 55.85,42.63 55.30,41.28 54.41,40.08 53.53,38.89 52.59,37.51 51.64,36.14 50.63,34.76 49.61,33.38 48.79,32.53 47.98,31.67 46.40,29.98 44.82,28.29 43.54,27.43 42.26,26.58 41.07,25.55 39.87,24.52 39.07,23.65 38.28,22.79 36.90,22.01 35.53,21.24 33.93,20.32 32.32,19.39 30.77,18.38 29.22,17.36 28.19,16.45 27.17,15.53 26.19,14.82 25.21,14.11 23.80,13.25 22.38,12.39 20.85,11.25 19.33,10.11 18.15,9.47 16.97,8.84 15.41,8.02 13.84,7.20 11.40,6.42 8.95,5.64 6.98,4.73 5.00,3.82 3.34,3.35 1.67,2.88 0.52,2.48 -0.62,2.08 -0.86,1.97 -1.10,1.87 -1.31,1.71 -1.52,1.55 -1.68,1.34 -1.85,1.14 -1.96,0.90 -2.07,0.66 -2.12,0.40 -2.17,0.15 -2.15,-0.11 -2.14,-0.37 -2.06,-0.62 -1.99,-0.87 -1.86,-1.10 -1.72,-1.32 -1.54,-1.51 -1.35,-1.70 -1.13,-1.83 -0.91,-1.97 -0.66,-2.05 -0.41,-2.13 -0.15,-2.15 0.11,-2.17 0.36,-2.12 0.62,-2.08 0.62,-2.08 L 0.62,-2.08 Z"></path></g><g transform="translate(742.050048828125 693.5) rotate(0 8 4.4000091552734375)" stroke="none"><path fill="#1864ab" d="M 2.35,-1.01 Q 2.35,-1.01 2.98,0.62 3.61,2.26 3.99,3.26 4.37,4.27 5.20,5.57 6.03,6.86 6.46,5.69 6.89,4.51 8.08,3.71 9.26,2.91 10.58,1.43 11.90,-0.03 12.54,-0.93 13.17,-1.84 13.45,-2.23 13.73,-2.62 14.13,-2.90 14.52,-3.19 14.99,-3.33 15.45,-3.47 15.93,-3.45 16.42,-3.44 16.87,-3.27 17.33,-3.10 17.71,-2.80 18.08,-2.49 18.34,-2.08 18.60,-1.67 18.72,-1.20 18.83,-0.73 18.79,-0.25 18.75,0.23 18.56,0.67 18.37,1.11 18.04,1.47 17.72,1.83 17.29,2.07 16.87,2.31 16.39,2.40 15.92,2.49 15.44,2.42 14.96,2.35 14.52,2.14 14.09,1.92 13.75,1.58 13.41,1.23 13.19,0.80 12.98,0.36 12.91,-0.11 12.85,-0.59 12.94,-1.06 13.04,-1.54 13.28,-1.96 13.52,-2.38 13.88,-2.70 14.24,-3.03 14.69,-3.22 15.13,-3.41 15.62,-3.44 16.10,-3.48 16.57,-3.36 17.04,-3.25 17.45,-2.98 17.85,-2.72 18.16,-2.34 18.46,-1.96 18.62,-1.51 18.79,-1.05 18.80,-0.57 18.81,-0.08 18.67,0.37 18.53,0.83 18.53,0.83 18.53,0.83 17.36,2.43 16.20,4.04 15.47,4.81 14.74,5.59 13.78,6.63 12.82,7.67 11.30,8.76 9.79,9.85 8.48,10.78 7.18,11.72 6.04,11.88 4.90,12.05 3.82,11.39 2.73,10.73 1.52,9.28 0.31,7.82 -0.27,6.00 -0.85,4.17 -1.60,2.59 -2.35,1.01 -2.44,0.71 -2.53,0.41 -2.54,0.10 -2.55,-0.20 -2.49,-0.50 -2.43,-0.80 -2.30,-1.08 -2.17,-1.36 -1.97,-1.60 -1.78,-1.84 -1.53,-2.03 -1.28,-2.21 -1.00,-2.34 -0.71,-2.46 -0.41,-2.51 -0.10,-2.56 0.19,-2.53 0.50,-2.51 0.80,-2.41 1.09,-2.31 1.35,-2.15 1.61,-1.98 1.83,-1.76 2.04,-1.54 2.20,-1.27 2.35,-1.00 2.35,-1.01 L 2.35,-1.01 Z"></path></g></svg>