<svg version="1.1" xmlns="http://www.w3.org/2000/svg" viewBox="0 0 10020 780.5250549316406" width="10020" height="780.5250549316406">
  <!-- svg-source:excalidraw -->
  
  <defs>
    <style>
      @font-face {
        font-family: "Virgil";
        src: url("https://excalidraw.com/Virgil.woff2");
      }
      @font-face {
        font-family: "Cascadia";
        src: url("https://excalidraw.com/Cascadia.woff2");
      }
    </style>
  </defs>
  <rect x="0" y="0" width="10020" height="780.5250549316406" fill="#fff0"></rect><g stroke-linecap="round" transform="translate(10 10) rotate(0 5000 0.5)"><path d="M-0.52 -0.26 C3022.65 -30.2, 6044.59 -29.2, 9999.32 0.22 M0.38 -0.31 C3948.03 -0.44, 7895.41 0.2, 9999.95 0.08 M10000.08 -0.06 C10000.09 0.27, 10000.05 0.48, 10000.09 0.92 M9999.97 0.01 C9999.95 0.33, 9999.98 0.72, 10000 0.99 M10000.22 1.51 C7095.77 35.76, 4193.15 34.95, -0.25 0.75 M10000.01 1.13 C7827.97 2.74, 5656.23 3.35, -0.33 0.84 M-0.04 1.01 C0 0.63, -0.06 0.15, 0.05 -0.03 M-0.04 0.95 C-0.04 0.73, -0.03 0.59, -0.05 -0.02" stroke="transparent" stroke-width="1" fill="none"></path></g><g stroke-linecap="round"><g transform="translate(749.5649923872202 555.7798593287613) rotate(0 -24.88152602067217 -2.7458300012385557)"><path d="M0.24 -0.31 C-8.27 -1.28, -41.83 -4.37, -50.01 -5.16 M-1.1 -1.51 C-9.87 -2.93, -43.09 -6.17, -51.09 -7.11" stroke="#d9480f" stroke-width="1" fill="none"></path></g><g transform="translate(749.5649923872202 555.7798593287613) rotate(0 -24.88152602067217 -2.7458300012385557)"><path d="M-27.29 -13.53 C-35.57 -9.18, -44.77 -10.24, -50.71 -5.93 M-26.68 -13.5 C-32.57 -11.14, -38.36 -11.5, -51.57 -7.21" stroke="#d9480f" stroke-width="1" fill="none"></path></g><g transform="translate(749.5649923872202 555.7798593287613) rotate(0 -24.88152602067217 -2.7458300012385557)"><path d="M-29.12 3.5 C-36.79 1.28, -45.29 -6.34, -50.71 -5.93 M-28.51 3.53 C-33.83 1.95, -39.2 -2.36, -51.57 -7.21" stroke="#d9480f" stroke-width="1" fill="none"></path></g></g><g transform="translate(762.4501342773438 542.9249877929688) rotate(0 177.5 12.5)"><text x="0" y="18" font-family="Virgil, Segoe UI Emoji" font-size="20px" fill="#d9480f" text-anchor="start" style="white-space: pre;" direction="ltr">derivata di un prodotto = 2 termini</text></g><g transform="translate(653.6500854492188 645.5250244140625) rotate(0 12.399993896484375 -4.8000030517578125)" stroke="none"><path fill="#1864ab" d="M 0,-1.75 Q 0,-1.75 1.69,-1.70 3.39,-1.64 4.79,-1.65 6.19,-1.66 7.81,-1.63 9.42,-1.60 11.22,-1.70 13.02,-1.79 14.31,-1.87 15.61,-1.96 16.81,-2.02 18.01,-2.09 19.53,-2.13 21.06,-2.18 22.18,-2.12 23.31,-2.06 22.47,-3.21 21.64,-4.36 21.62,-7.16 21.61,-9.96 21.69,-10.47 21.78,-10.98 22.02,-11.43 22.26,-11.89 22.64,-12.24 23.01,-12.60 23.48,-12.81 23.95,-13.03 24.46,-13.08 24.97,-13.14 25.48,-13.02 25.98,-12.91 26.42,-12.64 26.86,-12.38 27.19,-11.98 27.53,-11.59 27.72,-11.11 27.91,-10.63 27.93,-10.12 27.96,-9.60 27.82,-9.11 27.68,-8.61 27.39,-8.18 27.10,-7.76 26.69,-7.45 26.28,-7.14 25.79,-6.97 25.30,-6.81 24.79,-6.81 24.27,-6.81 23.78,-6.98 23.29,-7.14 22.89,-7.46 22.48,-7.77 22.19,-8.20 21.90,-8.62 21.76,-9.12 21.63,-9.62 21.66,-10.13 21.68,-10.65 21.88,-11.13 22.07,-11.60 22.40,-12.00 22.74,-12.39 23.18,-12.65 23.62,-12.92 24.13,-13.03 24.63,-13.14 25.14,-13.08 25.65,-13.02 26.12,-12.80 26.59,-12.59 26.96,-12.23 27.33,-11.88 27.58,-11.42 27.82,-10.96 27.90,-10.46 27.98,-9.95 27.98,-9.95 27.98,-9.95 27.94,-7.10 27.89,-4.25 27.80,-2.27 27.71,-0.29 27.18,0.99 26.66,2.27 25.50,2.97 24.35,3.66 22.70,3.72 21.06,3.78 19.53,3.73 18.01,3.69 16.81,3.62 15.61,3.56 14.31,3.47 13.02,3.39 11.22,3.30 9.42,3.20 7.81,3.23 6.19,3.26 4.79,3.25 3.39,3.24 1.69,3.30 0,3.35 -0.30,3.31 -0.61,3.28 -0.90,3.17 -1.18,3.06 -1.44,2.88 -1.69,2.71 -1.89,2.48 -2.10,2.25 -2.24,1.97 -2.39,1.70 -2.46,1.40 -2.53,1.10 -2.53,0.79 -2.53,0.49 -2.46,0.19 -2.39,-0.10 -2.24,-0.37 -2.10,-0.65 -1.89,-0.88 -1.69,-1.11 -1.44,-1.28 -1.18,-1.46 -0.89,-1.57 -0.61,-1.68 -0.30,-1.71 0.00,-1.75 0.00,-1.75 L 0,-1.75 Z"></path></g><g stroke-linecap="round"><g transform="translate(731.1986219350249 644.4894806086551) rotate(0 -19.700991692673398 0.4124449321301853)"><path d="M0.75 -0.11 C-5.72 0.16, -31.75 1.61, -38.6 1.62 M-0.32 -1.22 C-6.89 -1.28, -32.85 -0.42, -39.13 -0.08" stroke="#1864ab" stroke-width="1" fill="none"></path></g><g transform="translate(731.1986219350249 644.4894806086551) rotate(0 -19.700991692673398 0.4124449321301853)"><path d="M-21.09 -6.26 C-25.39 -6.66, -33.92 -2.33, -40.16 -0.36 M-21.61 -6.8 C-25.46 -5.15, -29.23 -4.6, -38.19 0.89" stroke="#1864ab" stroke-width="1" fill="none"></path></g><g transform="translate(731.1986219350249 644.4894806086551) rotate(0 -19.700991692673398 0.4124449321301853)"><path d="M-20.54 7.21 C-25.01 2.53, -33.72 2.58, -40.16 -0.36 M-21.06 6.67 C-25.13 5.56, -29.02 3.35, -38.19 0.89" stroke="#1864ab" stroke-width="1" fill="none"></path></g></g><g transform="translate(741.6500244140625 630.9249572753906) rotate(0 184 12.5)"><text x="0" y="18" font-family="Virgil, Segoe UI Emoji" font-size="20px" fill="#1864ab" text-anchor="start" style="white-space: pre;" direction="ltr">formula dell'accelerazione istantanea</text></g><g stroke-linecap="round"><g transform="translate(672.9115369923413 751.5557095520198) rotate(0 -29.630756289139384 -13.015342568978667)"><path d="M0.03 0.22 C-9.91 -4.02, -49.82 -21.36, -59.74 -25.87 M-1.41 -0.72 C-11.55 -4.69, -51.12 -20.04, -60.95 -24.24" stroke="#d9480f" stroke-width="1" fill="none"></path></g><g transform="translate(672.9115369923413 751.5557095520198) rotate(0 -29.630756289139384 -13.015342568978667)"><path d="M-30.61 -23.98 C-39.45 -23.88, -49.86 -23.82, -59.65 -24.58 M-30.07 -23.22 C-41 -22.84, -52 -23.92, -60.49 -24.52" stroke="#d9480f" stroke-width="1" fill="none"></path></g><g transform="translate(672.9115369923413 751.5557095520198) rotate(0 -29.630756289139384 -13.015342568978667)"><path d="M-38.31 -4.96 C-44.83 -10.41, -52.98 -15.92, -59.65 -24.58 M-37.77 -4.2 C-46.07 -10.57, -54.35 -18.38, -60.49 -24.52" stroke="#d9480f" stroke-width="1" fill="none"></path></g></g><g transform="translate(685.6500244140625 720.5250549316406) rotate(0 176 25)"><text x="0" y="17" font-family="Virgil, Segoe UI Emoji" font-size="20px" fill="#d9480f" text-anchor="start" style="white-space: pre;" direction="ltr">se m = costante, d(m) = 0</text><text x="0" y="42" font-family="Virgil, Segoe UI Emoji" font-size="20px" fill="#d9480f" text-anchor="start" style="white-space: pre;" direction="ltr">-&gt; "classica" legge di newton (F=ma)</text></g></svg>