<svg version="1.1" xmlns="http://www.w3.org/2000/svg" viewBox="0 0 10020 661.8499755859375" width="10020" height="661.8499755859375">
  <!-- svg-source:excalidraw -->
  
  <defs>
    <style>
      @font-face {
        font-family: "Virgil";
        src: url("https://excalidraw.com/Virgil.woff2");
      }
      @font-face {
        font-family: "Cascadia";
        src: url("https://excalidraw.com/Cascadia.woff2");
      }
    </style>
  </defs>
  <rect x="0" y="0" width="10020" height="661.8499755859375" fill="#fff0"></rect><g stroke-linecap="round" transform="translate(10 10) rotate(0 5000 0.5)"><path d="M-0.52 -0.26 C3022.65 -30.2, 6044.59 -29.2, 9999.32 0.22 M0.38 -0.31 C3948.03 -0.44, 7895.41 0.2, 9999.95 0.08 M10000.08 -0.06 C10000.09 0.27, 10000.05 0.48, 10000.09 0.92 M9999.97 0.01 C9999.95 0.33, 9999.98 0.72, 10000 0.99 M10000.22 1.51 C7095.77 35.76, 4193.15 34.95, -0.25 0.75 M10000.01 1.13 C7827.97 2.74, 5656.23 3.35, -0.33 0.84 M-0.04 1.01 C0 0.63, -0.06 0.15, 0.05 -0.03 M-0.04 0.95 C-0.04 0.73, -0.03 0.59, -0.05 -0.02" stroke="transparent" stroke-width="1" fill="none"></path></g><g transform="translate(802.0499877929688 571.4500122070312) rotate(0 17.600006103515625 4)" stroke="none"><path fill="#d9480f" d="M 0.34,-1.88 Q 0.34,-1.88 2.85,-1.34 5.37,-0.80 8.09,-0.08 10.81,0.64 12.87,1.19 14.92,1.74 18.55,2.68 22.18,3.62 24.85,4.25 27.53,4.88 29.40,5.35 31.27,5.81 32.98,6.01 34.70,6.20 34.95,6.29 35.21,6.38 35.43,6.55 35.64,6.71 35.80,6.94 35.95,7.16 36.02,7.43 36.09,7.69 36.07,7.96 36.06,8.23 35.96,8.49 35.85,8.74 35.68,8.95 35.50,9.15 35.27,9.29 35.03,9.43 34.77,9.49 34.50,9.55 34.23,9.51 33.96,9.48 33.71,9.37 33.46,9.25 33.27,9.07 33.07,8.88 32.94,8.64 32.82,8.39 32.77,8.13 32.73,7.86 32.78,7.59 32.82,7.32 32.95,7.08 33.08,6.84 33.28,6.65 33.48,6.47 33.73,6.35 33.97,6.24 34.24,6.21 34.51,6.18 34.78,6.24 35.05,6.30 35.28,6.44 35.51,6.59 35.69,6.79 35.86,7.00 35.96,7.26 36.06,7.51 36.08,7.78 36.09,8.05 36.02,8.32 35.94,8.58 35.79,8.80 35.63,9.03 35.42,9.19 35.20,9.36 34.94,9.44 34.68,9.53 34.41,9.53 34.14,9.52 34.14,9.52 34.14,9.52 32.31,9.12 30.49,8.72 28.69,8.20 26.89,7.69 24.18,7.09 21.46,6.50 17.82,5.62 14.18,4.75 12.11,4.28 10.04,3.81 7.39,3.23 4.74,2.64 2.20,2.26 -0.34,1.88 -0.56,1.81 -0.78,1.74 -0.98,1.62 -1.17,1.50 -1.34,1.34 -1.50,1.18 -1.62,0.98 -1.74,0.78 -1.81,0.56 -1.88,0.34 -1.89,0.11 -1.91,-0.11 -1.86,-0.34 -1.82,-0.56 -1.73,-0.77 -1.63,-0.98 -1.49,-1.16 -1.35,-1.35 -1.17,-1.49 -0.99,-1.63 -0.78,-1.73 -0.57,-1.82 -0.34,-1.86 -0.11,-1.91 0.11,-1.89 0.34,-1.88 0.34,-1.88 L 0.34,-1.88 Z"></path></g><g transform="translate(794.8500366210938 575.4500122070312) rotate(0 7.199981689453125 -6.4000091552734375)" stroke="none"><path fill="#d9480f" d="M -2.38,0 Q -2.38,0 -2.26,-2.07 -2.13,-4.14 -2.10,-5.93 -2.07,-7.73 -1.99,-9.46 -1.91,-11.18 -0.85,-12.45 0.20,-13.72 2.21,-13.99 4.21,-14.26 5.53,-14.31 6.84,-14.35 8.32,-14.36 9.81,-14.37 11.88,-14.41 13.96,-14.45 14.35,-14.39 14.74,-14.32 15.09,-14.14 15.44,-13.95 15.72,-13.66 15.99,-13.38 16.16,-13.01 16.32,-12.65 16.37,-12.26 16.41,-11.87 16.33,-11.48 16.24,-11.09 16.04,-10.75 15.83,-10.41 15.53,-10.15 15.23,-9.89 14.86,-9.75 14.49,-9.60 14.10,-9.58 13.70,-9.55 13.32,-9.66 12.93,-9.76 12.60,-9.99 12.27,-10.21 12.03,-10.53 11.79,-10.84 11.67,-11.22 11.54,-11.59 11.54,-11.99 11.54,-12.39 11.66,-12.76 11.79,-13.14 12.03,-13.46 12.27,-13.77 12.60,-14.00 12.93,-14.22 13.31,-14.33 13.69,-14.43 14.09,-14.41 14.48,-14.39 14.85,-14.25 15.22,-14.10 15.53,-13.84 15.83,-13.59 16.03,-13.25 16.24,-12.91 16.33,-12.52 16.41,-12.13 16.37,-11.74 16.33,-11.34 16.16,-10.98 15.99,-10.62 15.72,-10.33 15.45,-10.04 15.10,-9.86 14.75,-9.67 14.36,-9.60 13.96,-9.54 13.96,-9.54 13.96,-9.54 11.89,-9.57 9.83,-9.60 8.36,-9.60 6.89,-9.60 5.60,-9.61 4.31,-9.63 3.11,-9.87 1.91,-10.11 1.99,-8.92 2.07,-7.73 2.10,-5.93 2.13,-4.14 2.26,-2.07 2.38,0 2.35,0.28 2.31,0.57 2.21,0.83 2.11,1.10 1.94,1.34 1.78,1.58 1.57,1.77 1.35,1.96 1.10,2.09 0.84,2.23 0.56,2.29 0.28,2.36 -0.00,2.36 -0.28,2.36 -0.56,2.29 -0.84,2.23 -1.10,2.09 -1.35,1.96 -1.57,1.77 -1.78,1.58 -1.94,1.34 -2.11,1.10 -2.21,0.83 -2.31,0.57 -2.35,0.28 -2.38,-0.00 -2.38,-0.00 L -2.38,0 Z"></path></g><g transform="translate(847.8499755859375 549.25) rotate(0 110.5 25)"><text x="0" y="17" font-family="Virgil, Segoe UI Emoji" font-size="20px" fill="#d9480f" text-anchor="start" style="white-space: pre;" direction="ltr">versore angolare,</text><text x="0" y="42" font-family="Virgil, Segoe UI Emoji" font-size="20px" fill="#d9480f" text-anchor="start" style="white-space: pre;" direction="ltr">segue l'incremento di θ</text></g><g transform="translate(530.0499877929688 601.8499755859375) rotate(0 84 25)"><text x="0" y="17" font-family="Virgil, Segoe UI Emoji" font-size="20px" fill="#1864ab" text-anchor="start" style="white-space: pre;" direction="ltr">versore radiale</text><text x="0" y="42" font-family="Virgil, Segoe UI Emoji" font-size="20px" fill="#1864ab" text-anchor="start" style="white-space: pre;" direction="ltr">(verso l'esterno!)</text></g><g transform="translate(694.8500366210938 611.3499755859375) rotate(0 8 -20.79998779296875)" stroke="none"><path fill="#1864ab" d="M -1.73,-1.08 Q -1.73,-1.08 -0.49,-2.86 0.73,-4.65 2.39,-7.85 4.05,-11.05 5.70,-14.49 7.36,-17.93 8.28,-20.47 9.20,-23.01 9.80,-24.82 10.40,-26.63 11.12,-28.38 11.83,-30.13 12.01,-31.42 12.19,-32.70 12.50,-33.88 12.80,-35.06 13.10,-36.87 13.41,-38.68 13.49,-39.95 13.56,-41.22 13.67,-41.59 13.77,-41.95 13.99,-42.27 14.21,-42.59 14.52,-42.82 14.83,-43.04 15.19,-43.16 15.56,-43.28 15.94,-43.28 16.33,-43.27 16.69,-43.15 17.05,-43.02 17.35,-42.78 17.66,-42.55 17.87,-42.23 18.08,-41.91 18.18,-41.54 18.28,-41.17 18.25,-40.78 18.23,-40.40 18.08,-40.05 17.94,-39.69 17.69,-39.40 17.43,-39.11 17.10,-38.92 16.77,-38.72 16.40,-38.64 16.02,-38.56 15.64,-38.61 15.26,-38.66 14.91,-38.82 14.56,-38.99 14.29,-39.25 14.01,-39.52 13.83,-39.86 13.66,-40.20 13.60,-40.58 13.54,-40.96 13.61,-41.34 13.68,-41.72 13.86,-42.05 14.04,-42.39 14.32,-42.65 14.61,-42.91 14.96,-43.07 15.31,-43.23 15.69,-43.27 16.07,-43.30 16.44,-43.22 16.82,-43.13 17.15,-42.93 17.47,-42.73 17.72,-42.43 17.96,-42.14 18.10,-41.78 18.24,-41.42 18.26,-41.04 18.27,-40.65 18.27,-40.65 18.27,-40.65 17.67,-38.27 17.07,-35.89 16.38,-33.91 15.69,-31.93 15.25,-30.40 14.82,-28.87 14.09,-27.24 13.36,-25.62 12.72,-23.81 12.07,-22.01 11.16,-19.30 10.25,-16.58 8.68,-13.06 7.10,-9.54 5.48,-6.12 3.86,-2.70 2.79,-0.81 1.73,1.08 1.57,1.27 1.42,1.46 1.22,1.61 1.02,1.76 0.80,1.85 0.57,1.95 0.33,1.99 0.09,2.03 -0.15,2.02 -0.39,2.00 -0.63,1.92 -0.86,1.84 -1.07,1.71 -1.28,1.58 -1.45,1.41 -1.62,1.23 -1.74,1.02 -1.87,0.80 -1.94,0.57 -2.01,0.33 -2.02,0.09 -2.03,-0.15 -1.98,-0.39 -1.93,-0.63 -1.83,-0.85 -1.73,-1.08 -1.73,-1.08 L -1.73,-1.08 Z"></path></g><g transform="translate(701.25 574.5499877929688) rotate(0 7.20001220703125 -0.399993896484375)" stroke="none"><path fill="#1864ab" d="M -1.22,-1.52 Q -1.22,-1.52 -0.09,-2.48 1.02,-3.43 2.66,-4.85 4.31,-6.26 5.39,-7.54 6.47,-8.82 7.19,-9.73 7.91,-10.64 8.13,-10.75 8.36,-10.86 8.55,-11.03 8.74,-11.20 8.97,-11.31 9.20,-11.43 9.45,-11.49 9.70,-11.55 9.96,-11.55 10.22,-11.55 10.46,-11.48 10.71,-11.42 10.94,-11.30 11.17,-11.18 11.36,-11.00 11.55,-10.83 11.69,-10.62 11.84,-10.41 11.93,-10.17 12.02,-9.93 12.05,-9.67 12.07,-9.41 12.04,-9.16 12.01,-8.90 11.92,-8.66 11.82,-8.43 11.67,-8.21 11.53,-8.00 12.44,-5.71 13.35,-3.42 13.67,-1.38 13.99,0.64 14.53,2.58 15.08,4.52 15.56,6.46 16.04,8.40 16.06,8.70 16.07,9.00 15.98,9.29 15.90,9.57 15.72,9.82 15.55,10.07 15.31,10.24 15.07,10.42 14.78,10.51 14.50,10.60 14.20,10.60 13.90,10.59 13.61,10.49 13.33,10.39 13.10,10.21 12.86,10.02 12.70,9.77 12.53,9.52 12.46,9.23 12.38,8.94 12.40,8.64 12.42,8.34 12.54,8.06 12.66,7.79 12.85,7.56 13.05,7.34 13.31,7.19 13.57,7.03 13.86,6.98 14.16,6.92 14.46,6.95 14.75,6.99 15.02,7.12 15.29,7.25 15.51,7.46 15.72,7.67 15.86,7.94 15.99,8.21 16.04,8.50 16.08,8.80 16.03,9.09 15.97,9.39 15.83,9.65 15.68,9.91 15.46,10.12 15.24,10.32 14.97,10.44 14.69,10.56 14.39,10.59 14.10,10.62 13.80,10.55 13.51,10.48 13.26,10.32 13.00,10.16 12.81,9.93 12.62,9.70 12.52,9.42 12.41,9.14 12.41,9.14 12.41,9.14 12.14,7.33 11.86,5.52 11.15,3.43 10.44,1.33 9.97,-0.69 9.51,-2.71 9.05,-4.63 8.60,-6.55 8.48,-8.71 8.36,-10.86 8.55,-11.03 8.74,-11.20 8.97,-11.31 9.20,-11.43 9.45,-11.49 9.70,-11.55 9.96,-11.55 10.22,-11.55 10.46,-11.48 10.71,-11.42 10.94,-11.30 11.17,-11.18 11.36,-11.00 11.55,-10.83 11.69,-10.62 11.84,-10.41 11.93,-10.17 12.02,-9.93 12.05,-9.67 12.07,-9.41 12.04,-9.16 12.01,-8.90 11.92,-8.67 11.82,-8.43 11.67,-8.22 11.53,-8.00 10.41,-7.20 9.30,-6.39 8.07,-4.98 6.84,-3.57 5.21,-1.91 3.57,-0.24 2.39,0.64 1.22,1.52 1.02,1.64 0.82,1.77 0.59,1.84 0.37,1.91 0.13,1.93 -0.09,1.95 -0.33,1.91 -0.56,1.87 -0.77,1.77 -0.99,1.68 -1.18,1.53 -1.36,1.39 -1.51,1.21 -1.66,1.02 -1.76,0.81 -1.85,0.60 -1.90,0.36 -1.94,0.13 -1.93,-0.09 -1.92,-0.33 -1.85,-0.55 -1.78,-0.78 -1.67,-0.98 -1.55,-1.18 -1.38,-1.35 -1.22,-1.52 -1.22,-1.52 L -1.22,-1.52 Z"></path></g></svg>