<svg version="1.1" xmlns="http://www.w3.org/2000/svg" viewBox="0 0 10020 720.5499877929688" width="10020" height="720.5499877929688">
  <!-- svg-source:excalidraw -->
  
  <defs>
    <style>
      @font-face {
        font-family: "Virgil";
        src: url("https://excalidraw.com/Virgil.woff2");
      }
      @font-face {
        font-family: "Cascadia";
        src: url("https://excalidraw.com/Cascadia.woff2");
      }
    </style>
  </defs>
  <rect x="0" y="0" width="10020" height="720.5499877929688" fill="#fff0"></rect><g stroke-linecap="round" transform="translate(10 10) rotate(0 5000 0.5)"><path d="M-0.52 -0.26 C3022.65 -30.2, 6044.59 -29.2, 9999.32 0.22 M0.38 -0.31 C3948.03 -0.44, 7895.41 0.2, 9999.95 0.08 M10000.08 -0.06 C10000.09 0.27, 10000.05 0.48, 10000.09 0.92 M9999.97 0.01 C9999.95 0.33, 9999.98 0.72, 10000 0.99 M10000.22 1.51 C7095.77 35.76, 4193.15 34.95, -0.25 0.75 M10000.01 1.13 C7827.97 2.74, 5656.23 3.35, -0.33 0.84 M-0.04 1.01 C0 0.63, -0.06 0.15, 0.05 -0.03 M-0.04 0.95 C-0.04 0.73, -0.03 0.59, -0.05 -0.02" stroke="transparent" stroke-width="1" fill="none"></path></g><g stroke-linecap="round"><g transform="translate(539.0113308272761 679.6964339718222) rotate(0 -1.2806593101224166 -46.17321393415331)"><path d="M0.64 1.15 C0.42 -14.41, -1.01 -76.74, -1.66 -92.33 M-0.49 0.7 C-0.75 -14.13, -1.49 -75.48, -2.13 -90.78" stroke="#000" stroke-width="1" fill="none"></path></g><g transform="translate(539.0113308272761 679.6964339718222) rotate(0 -1.2806593101224166 -46.17321393415331)"><path d="M10.74 -61.34 C5.66 -71.48, 2.63 -79.4, -1.33 -92.52 M8.32 -62.51 C6.16 -70.75, 2.67 -79.09, -2.57 -90.39" stroke="#000" stroke-width="1" fill="none"></path></g><g transform="translate(539.0113308272761 679.6964339718222) rotate(0 -1.2806593101224166 -46.17321393415331)"><path d="M-9.78 -60.83 C-9.3 -71.22, -6.77 -79.28, -1.33 -92.52 M-12.19 -62 C-8.69 -70.57, -6.51 -79.05, -2.57 -90.39" stroke="#000" stroke-width="1" fill="none"></path></g></g><g transform="translate(522.8500061035156 685.5499877929688) rotate(0 98 12.5)"><text x="0" y="18" font-family="Virgil, Segoe UI Emoji" font-size="20px" fill="#000" text-anchor="start" style="white-space: pre;" direction="ltr">variazione di volume</text></g><g stroke-linecap="round"><g transform="translate(685.7795505280513 598.7331386690819) rotate(0 -33.06476305699442 -13.291572386298775)"><path d="M-1.1 1.01 C-11.74 -3.45, -54.02 -21.11, -65.04 -25.89 M0.53 0.49 C-10.08 -4.39, -54.52 -23.08, -65.42 -27.65" stroke="#d9480f" stroke-width="1" fill="none"></path></g><g transform="translate(685.7795505280513 598.7331386690819) rotate(0 -33.06476305699442 -13.291572386298775)"><path d="M-33.77 -24.37 C-40.38 -28.56, -49.39 -26.3, -64.08 -27.27 M-34.81 -27.08 C-44.87 -27.75, -52.8 -27.68, -65.42 -27.41" stroke="#d9480f" stroke-width="1" fill="none"></path></g><g transform="translate(685.7795505280513 598.7331386690819) rotate(0 -33.06476305699442 -13.291572386298775)"><path d="M-41.73 -5.45 C-46.86 -13.4, -54.26 -14.97, -64.08 -27.27 M-42.76 -8.16 C-50.35 -14.41, -55.91 -19.94, -65.42 -27.41" stroke="#d9480f" stroke-width="1" fill="none"></path></g></g><g transform="translate(689.25 592.75) rotate(0 111.5 12.5)"><text x="0" y="18" font-family="Virgil, Segoe UI Emoji" font-size="20px" fill="#d9480f" text-anchor="start" style="white-space: pre;" direction="ltr">Modulo di compressione</text></g><g stroke-linecap="round"><g transform="translate(589.1638516489674 620.1499938964844) rotate(0 -0.35691972096806523 -28.79999542236328)"><path d="M0.59 -0.66 C0.49 -10.22, 0.24 -47.75, -0.05 -57.33 M-0.56 1.61 C-0.8 -8.34, -0.39 -49.52, -0.64 -59.31" stroke="#1864ab" stroke-width="1" fill="none"></path></g><g transform="translate(589.1638516489674 620.1499938964844) rotate(0 -0.35691972096806523 -28.79999542236328)"><path d="M8.25 -31.19 C6.35 -42.23, 1.49 -50.27, 1.05 -59.8 M10.22 -31.52 C5.42 -41.93, 2.42 -53.39, -1.52 -59.98" stroke="#1864ab" stroke-width="1" fill="none"></path></g><g transform="translate(589.1638516489674 620.1499938964844) rotate(0 -0.35691972096806523 -28.79999542236328)"><path d="M-11.45 -31.08 C-6.57 -42.26, -4.64 -50.34, 1.05 -59.8 M-9.48 -31.41 C-6.95 -41.71, -2.62 -53.22, -1.52 -59.98" stroke="#1864ab" stroke-width="1" fill="none"></path></g></g><g transform="translate(573.2499694824219 628.75) rotate(0 238 25)"><text x="0" y="17" font-family="Virgil, Segoe UI Emoji" font-size="20px" fill="#1864ab" text-anchor="start" style="white-space: pre;" direction="ltr">segno negativo:</text><text x="0" y="42" font-family="Virgil, Segoe UI Emoji" font-size="20px" fill="#1864ab" text-anchor="start" style="white-space: pre;" direction="ltr">all'aumentare della pressione il volume diminuisce</text></g><g stroke-linecap="round"><g transform="translate(822.8500366210938 546.5500030517578) rotate(0 -79.60000610351562 -0.8000030517578125)"><path d="M-1.12 0.66 C-27.38 0.44, -132.37 -0.86, -158.57 -1.1 M0.49 -0.04 C-25.79 -0.64, -132.67 -2.51, -159.18 -2.96" stroke="#1864ab" stroke-width="1" fill="none"></path></g><g transform="translate(822.8500366210938 546.5500030517578) rotate(0 -79.60000610351562 -0.8000030517578125)"><path d="M-129.72 -11.68 C-136.1 -9.39, -141.76 -7.48, -158.78 -2.53 M-130.83 -13.46 C-141.63 -9.34, -152.46 -5.43, -159.36 -2.36" stroke="#1864ab" stroke-width="1" fill="none"></path></g><g transform="translate(822.8500366210938 546.5500030517578) rotate(0 -79.60000610351562 -0.8000030517578125)"><path d="M-130.08 8.84 C-136.41 6.71, -142.01 4.18, -158.78 -2.53 M-131.19 7.06 C-141.83 3.4, -152.52 -0.48, -159.36 -2.36" stroke="#1864ab" stroke-width="1" fill="none"></path></g></g><g transform="translate(832.4500122070312 531.9499969482422) rotate(0 110.5 12.5)"><text x="0" y="18" font-family="Virgil, Segoe UI Emoji" font-size="20px" fill="#1864ab" text-anchor="start" style="white-space: pre;" direction="ltr">variazione di pressione</text></g></svg>