<svg version="1.1" xmlns="http://www.w3.org/2000/svg" viewBox="0 0 10020 809.1625061035156" width="10020" height="809.1625061035156">
  <!-- svg-source:excalidraw -->
  
  <defs>
    <style>
      @font-face {
        font-family: "Virgil";
        src: url("https://excalidraw.com/Virgil.woff2");
      }
      @font-face {
        font-family: "Cascadia";
        src: url("https://excalidraw.com/Cascadia.woff2");
      }
    </style>
  </defs>
  <rect x="0" y="0" width="10020" height="809.1625061035156" fill="#fff0"></rect><g stroke-linecap="round" transform="translate(10 10) rotate(0 5000 0.5)"><path d="M-0.52 -0.26 C3022.65 -30.2, 6044.59 -29.2, 9999.32 0.22 M0.38 -0.31 C3948.03 -0.44, 7895.41 0.2, 9999.95 0.08 M10000.08 -0.06 C10000.09 0.27, 10000.05 0.48, 10000.09 0.92 M9999.97 0.01 C9999.95 0.33, 9999.98 0.72, 10000 0.99 M10000.22 1.51 C7095.77 35.76, 4193.15 34.95, -0.25 0.75 M10000.01 1.13 C7827.97 2.74, 5656.23 3.35, -0.33 0.84 M-0.04 1.01 C0 0.63, -0.06 0.15, 0.05 -0.03 M-0.04 0.95 C-0.04 0.73, -0.03 0.59, -0.05 -0.02" stroke="transparent" stroke-width="1" fill="none"></path></g><g transform="translate(690.0499877929688 578.9624938964844) rotate(0 56.4000244140625 -0.4000091552734375)" stroke="none"><path fill="#1864ab" d="M 0,-2.03 Q 0,-2.03 25.53,-1.93 51.06,-1.84 62.60,-1.76 74.14,-1.69 79.96,-1.64 85.78,-1.59 89.18,-1.55 92.58,-1.51 94.94,-1.48 97.30,-1.46 99.00,-1.52 100.69,-1.59 102.10,-1.68 103.51,-1.77 105.15,-1.94 106.79,-2.12 108.17,-2.25 109.55,-2.38 110.74,-2.72 111.93,-3.07 112.32,-3.11 112.71,-3.15 113.09,-3.07 113.48,-2.98 113.81,-2.78 114.15,-2.58 114.40,-2.28 114.65,-1.98 114.80,-1.61 114.94,-1.25 114.96,-0.85 114.98,-0.46 114.87,-0.09 114.77,0.28 114.55,0.61 114.32,0.93 114.01,1.17 113.70,1.40 113.33,1.53 112.95,1.65 112.56,1.65 112.17,1.65 111.80,1.52 111.43,1.39 111.12,1.16 110.80,0.92 110.59,0.59 110.37,0.27 110.26,-0.10 110.16,-0.48 110.18,-0.87 110.21,-1.26 110.35,-1.63 110.50,-1.99 110.75,-2.29 111.01,-2.59 111.35,-2.79 111.68,-2.99 112.07,-3.07 112.45,-3.15 112.84,-3.11 113.23,-3.07 113.58,-2.90 113.94,-2.73 114.22,-2.46 114.51,-2.19 114.69,-1.85 114.87,-1.50 114.93,-1.11 114.99,-0.72 114.93,-0.34 114.86,0.04 114.68,0.38 114.49,0.73 114.21,1.00 113.92,1.27 113.57,1.43 113.21,1.59 113.21,1.59 113.21,1.59 111.38,1.99 109.55,2.38 108.17,2.25 106.79,2.12 105.15,1.94 103.51,1.77 102.10,1.68 100.69,1.59 99.00,1.52 97.30,1.46 94.94,1.48 92.58,1.51 89.18,1.55 85.78,1.59 79.96,1.64 74.14,1.69 62.60,1.76 51.06,1.84 25.53,1.93 0,2.03 -0.24,2.00 -0.48,1.97 -0.71,1.88 -0.94,1.79 -1.14,1.66 -1.34,1.52 -1.51,1.33 -1.67,1.15 -1.78,0.93 -1.90,0.72 -1.95,0.48 -2.01,0.24 -2.01,-0.00 -2.01,-0.24 -1.95,-0.48 -1.90,-0.72 -1.78,-0.93 -1.67,-1.15 -1.50,-1.33 -1.34,-1.52 -1.14,-1.66 -0.94,-1.79 -0.71,-1.88 -0.48,-1.97 -0.24,-2.00 0.00,-2.03 0.00,-2.03 L 0,-2.03 Z"></path></g><g transform="translate(896.4500122070312 582.9624938964844) rotate(0 -50 8)" stroke="none"><path fill="#1864ab" d="M 0.88,1.32 Q 0.88,1.32 -0.46,2.29 -1.81,3.26 -3.86,4.33 -5.92,5.40 -10.29,7.24 -14.66,9.08 -19.08,10.54 -23.49,12.01 -27.70,13.09 -31.90,14.17 -35.07,14.85 -38.25,15.53 -41.22,16.05 -44.20,16.57 -47.83,16.80 -51.46,17.02 -54.83,17.11 -58.21,17.20 -61.71,17.24 -65.22,17.27 -68.82,17.05 -72.42,16.84 -76.36,15.80 -80.30,14.77 -83.58,13.63 -86.85,12.50 -89.18,11.55 -91.50,10.60 -92.71,10.34 -93.91,10.07 -95.44,9.16 -96.97,8.24 -99.15,6.64 -101.32,5.04 -101.53,4.75 -101.75,4.46 -101.86,4.11 -101.97,3.76 -101.96,3.40 -101.95,3.04 -101.83,2.69 -101.71,2.35 -101.48,2.07 -101.26,1.78 -100.95,1.58 -100.65,1.39 -100.30,1.30 -99.94,1.21 -99.58,1.23 -99.22,1.26 -98.89,1.40 -98.55,1.54 -98.28,1.78 -98.01,2.02 -97.82,2.34 -97.64,2.65 -97.57,3.01 -97.50,3.36 -97.55,3.72 -97.59,4.08 -97.75,4.41 -97.91,4.74 -98.17,5.00 -98.42,5.25 -98.74,5.42 -99.07,5.58 -99.43,5.63 -99.79,5.69 -100.14,5.62 -100.50,5.56 -100.82,5.38 -101.14,5.20 -101.38,4.93 -101.63,4.67 -101.77,4.33 -101.92,4.00 -101.95,3.64 -101.98,3.28 -101.90,2.92 -101.81,2.57 -101.62,2.26 -101.43,1.96 -101.15,1.73 -100.86,1.50 -100.52,1.37 -100.18,1.24 -99.82,1.23 -99.46,1.21 -99.11,1.32 -98.76,1.42 -98.47,1.63 -98.17,1.84 -98.17,1.84 -98.17,1.84 -96.77,3.32 -95.38,4.79 -94.15,5.94 -92.92,7.10 -91.71,7.63 -90.51,8.16 -88.25,9.08 -85.99,10.00 -82.80,11.10 -79.62,12.21 -75.94,13.20 -72.26,14.18 -68.75,14.39 -65.25,14.60 -61.76,14.56 -58.28,14.51 -54.96,14.41 -51.63,14.31 -48.15,14.09 -44.68,13.87 -41.76,13.34 -38.85,12.81 -35.73,12.11 -32.62,11.41 -28.53,10.32 -24.43,9.23 -20.15,7.75 -15.86,6.27 -11.66,4.43 -7.46,2.59 -5.58,1.50 -3.70,0.41 -2.29,-0.45 -0.88,-1.32 -0.71,-1.41 -0.54,-1.50 -0.35,-1.54 -0.16,-1.58 0.02,-1.58 0.21,-1.58 0.40,-1.53 0.59,-1.48 0.75,-1.39 0.92,-1.29 1.07,-1.16 1.21,-1.03 1.31,-0.87 1.42,-0.71 1.49,-0.53 1.55,-0.35 1.57,-0.16 1.59,0.02 1.57,0.21 1.54,0.40 1.47,0.58 1.40,0.76 1.29,0.92 1.17,1.07 1.03,1.20 0.88,1.32 0.88,1.32 L 0.88,1.32 Z"></path></g><g transform="translate(793.25 590.9624938964844) rotate(0 5.20001220703125 -4.4000091552734375)" stroke="none"><path fill="#1864ab" d="M -2.60,-0.43 Q -2.60,-0.43 -2.36,-1.81 -2.12,-3.18 -2.06,-4.98 -2.00,-6.78 -1.28,-8.65 -0.56,-10.51 0.77,-10.99 2.12,-11.47 3.77,-10.98 5.42,-10.50 7.79,-10.38 10.17,-10.27 10.66,-10.18 11.15,-10.09 11.58,-9.85 12.02,-9.62 12.35,-9.25 12.69,-8.89 12.89,-8.43 13.09,-7.98 13.14,-7.49 13.19,-6.99 13.08,-6.51 12.96,-6.02 12.70,-5.60 12.44,-5.18 12.06,-4.87 11.67,-4.55 11.21,-4.37 10.75,-4.19 10.25,-4.17 9.76,-4.15 9.28,-4.29 8.80,-4.43 8.40,-4.72 7.99,-5.00 7.69,-5.40 7.40,-5.80 7.25,-6.27 7.09,-6.74 7.10,-7.24 7.11,-7.74 7.27,-8.20 7.44,-8.67 7.74,-9.06 8.05,-9.45 8.46,-9.73 8.88,-10.00 9.36,-10.13 9.84,-10.25 10.33,-10.22 10.83,-10.18 11.29,-9.99 11.75,-9.80 12.12,-9.48 12.49,-9.15 12.74,-8.72 12.99,-8.29 13.09,-7.81 13.19,-7.32 13.13,-6.83 13.07,-6.34 12.86,-5.89 12.64,-5.44 12.30,-5.09 11.95,-4.73 11.51,-4.51 11.07,-4.28 10.58,-4.21 10.09,-4.13 10.09,-4.13 10.09,-4.13 8.35,-4.21 6.61,-4.28 4.82,-4.70 3.03,-5.11 3.22,-6.24 3.41,-7.37 3.36,-5.98 3.31,-4.60 3.18,-3.46 3.04,-2.33 2.82,-0.94 2.60,0.43 2.51,0.73 2.42,1.04 2.26,1.31 2.10,1.59 1.88,1.82 1.65,2.04 1.39,2.21 1.12,2.38 0.81,2.48 0.51,2.58 0.20,2.61 -0.11,2.63 -0.43,2.58 -0.74,2.53 -1.03,2.40 -1.32,2.27 -1.58,2.08 -1.83,1.89 -2.03,1.64 -2.23,1.40 -2.36,1.11 -2.50,0.82 -2.56,0.51 -2.62,0.20 -2.61,-0.11 -2.60,-0.43 -2.60,-0.43 L -2.60,-0.43 Z"></path></g><g transform="translate(875.6500244140625 538.7624816894531) rotate(0 94.5 12.5)"><text x="0" y="18" font-family="Virgil, Segoe UI Emoji" font-size="20px" fill="#1864ab" text-anchor="start" style="white-space: pre;" direction="ltr">definizione di X(CM)</text></g><g transform="translate(527.6500244140625 749.1625061035156) rotate(0 155 25)"><text x="0" y="17" font-family="Virgil, Segoe UI Emoji" font-size="20px" fill="#d9480f" text-anchor="start" style="white-space: pre;" direction="ltr">possiamo tirarlo fuori perchè M</text><text x="0" y="42" font-family="Virgil, Segoe UI Emoji" font-size="20px" fill="#d9480f" text-anchor="start" style="white-space: pre;" direction="ltr">è costante</text></g><g transform="translate(584.4500122070312 738.1625061035156) rotate(0 0 -9.600006103515625)" stroke="none"><path fill="#d9480f" d="M -2.34,0 Q -2.34,0 -2.32,-1.60 -2.31,-3.21 -2.25,-5.05 -2.19,-6.88 -2.18,-8.58 -2.16,-10.28 -2.19,-11.69 -2.22,-13.11 -2.28,-15.83 -2.33,-18.56 -2.27,-18.93 -2.21,-19.31 -2.03,-19.64 -1.85,-19.97 -1.58,-20.23 -1.30,-20.49 -0.96,-20.65 -0.62,-20.81 -0.24,-20.85 0.12,-20.89 0.49,-20.81 0.86,-20.73 1.18,-20.53 1.50,-20.34 1.75,-20.05 1.99,-19.76 2.13,-19.41 2.27,-19.06 2.29,-18.69 2.31,-18.31 2.21,-17.95 2.11,-17.58 1.90,-17.27 1.69,-16.96 1.39,-16.73 1.09,-16.50 0.73,-16.38 0.37,-16.26 -0.00,-16.26 -0.37,-16.26 -0.73,-16.38 -1.09,-16.50 -1.39,-16.73 -1.69,-16.96 -1.90,-17.27 -2.11,-17.58 -2.21,-17.95 -2.31,-18.31 -2.29,-18.69 -2.27,-19.06 -2.13,-19.41 -1.99,-19.76 -1.75,-20.05 -1.50,-20.34 -1.18,-20.53 -0.86,-20.73 -0.49,-20.81 -0.12,-20.89 0.24,-20.85 0.62,-20.81 0.96,-20.65 1.30,-20.49 1.58,-20.23 1.85,-19.97 2.03,-19.64 2.21,-19.31 2.27,-18.93 2.33,-18.56 2.33,-18.56 2.33,-18.56 2.28,-15.83 2.22,-13.11 2.19,-11.69 2.16,-10.28 2.18,-8.58 2.19,-6.88 2.25,-5.05 2.31,-3.21 2.32,-1.60 2.34,0 2.30,0.28 2.27,0.56 2.17,0.82 2.07,1.08 1.91,1.32 1.75,1.55 1.54,1.74 1.33,1.92 1.08,2.05 0.83,2.19 0.55,2.25 0.28,2.32 -0.00,2.32 -0.28,2.32 -0.55,2.25 -0.83,2.19 -1.08,2.05 -1.33,1.92 -1.54,1.74 -1.75,1.55 -1.91,1.32 -2.07,1.08 -2.17,0.82 -2.27,0.56 -2.30,0.28 -2.34,-0.00 -2.34,-0.00 L -2.34,0 Z"></path></g><g transform="translate(578.0500183105469 726.9624633789062) rotate(0 6.79998779296875 -5.1999969482421875)" stroke="none"><path fill="#d9480f" d="M -2.42,-0.80 Q -2.42,-0.80 -1.95,-2.18 -1.47,-3.57 -0.43,-5.27 0.60,-6.98 1.41,-8.75 2.21,-10.52 3.49,-11.52 4.77,-12.53 5.88,-12.45 6.99,-12.36 7.97,-11.64 8.96,-10.92 9.69,-10.01 10.42,-9.10 11.58,-7.61 12.74,-6.12 14.16,-4.98 15.58,-3.85 15.85,-3.44 16.11,-3.04 16.23,-2.57 16.35,-2.10 16.31,-1.62 16.28,-1.14 16.09,-0.69 15.90,-0.25 15.58,0.11 15.26,0.47 14.84,0.71 14.42,0.95 13.95,1.04 13.47,1.14 13.00,1.08 12.52,1.01 12.08,0.80 11.65,0.59 11.30,0.25 10.96,-0.08 10.74,-0.51 10.52,-0.94 10.45,-1.42 10.39,-1.90 10.47,-2.37 10.56,-2.85 10.80,-3.27 11.03,-3.69 11.39,-4.02 11.75,-4.35 12.19,-4.54 12.63,-4.73 13.11,-4.78 13.60,-4.82 14.07,-4.70 14.54,-4.59 14.94,-4.33 15.35,-4.08 15.66,-3.70 15.96,-3.33 16.13,-2.87 16.30,-2.42 16.32,-1.94 16.34,-1.45 16.20,-0.99 16.06,-0.53 15.78,-0.13 15.50,0.25 15.11,0.54 14.72,0.82 14.26,0.96 13.80,1.11 13.31,1.10 12.83,1.09 12.37,0.93 11.92,0.76 11.54,0.46 11.16,0.16 11.16,0.16 11.16,0.16 9.19,-1.90 7.22,-3.96 6.49,-5.54 5.76,-7.11 5.26,-5.83 4.77,-4.56 4.04,-3.25 3.31,-1.94 2.87,-0.57 2.42,0.80 2.29,1.08 2.15,1.36 1.96,1.60 1.77,1.84 1.52,2.02 1.27,2.21 0.99,2.33 0.71,2.45 0.40,2.50 0.10,2.55 -0.20,2.52 -0.50,2.50 -0.80,2.40 -1.09,2.30 -1.35,2.14 -1.61,1.97 -1.82,1.75 -2.04,1.53 -2.19,1.26 -2.34,1.00 -2.43,0.70 -2.52,0.41 -2.53,0.10 -2.54,-0.20 -2.48,-0.50 -2.42,-0.80 -2.42,-0.80 L -2.42,-0.80 Z"></path></g><g transform="translate(648.449951171875 623.7625122070312) rotate(0 122.4000244140625 -0.8000030517578125)" stroke="none"><path fill="#1864ab" d="M -0.80,-1.33 Q -0.80,-1.33 1.13,-2.46 3.06,-3.58 5.34,-4.55 7.62,-5.52 10.84,-6.40 14.06,-7.28 16.79,-7.87 19.53,-8.46 21.71,-9.15 23.89,-9.84 27.13,-10.39 30.37,-10.94 33.92,-11.39 37.47,-11.85 41.17,-12.27 44.87,-12.69 48.08,-13.10 51.28,-13.51 53.50,-13.68 55.71,-13.86 57.49,-14.01 59.26,-14.16 61.88,-14.39 64.50,-14.63 68.15,-14.73 71.79,-14.83 75.25,-14.86 78.71,-14.90 82.64,-14.91 86.58,-14.92 90.71,-14.93 94.85,-14.93 101.81,-14.93 108.77,-14.93 115.86,-14.69 122.95,-14.46 130.34,-14.13 137.73,-13.80 143.60,-13.66 149.46,-13.52 158.57,-12.77 167.68,-12.02 174.27,-11.47 180.86,-10.92 186.43,-10.22 192.00,-9.53 196.00,-9.00 200.00,-8.48 202.82,-8.02 205.63,-7.56 208.77,-6.90 211.90,-6.25 214.06,-5.73 216.22,-5.22 218.28,-4.53 220.34,-3.84 222.02,-3.40 223.70,-2.96 225.35,-2.31 226.99,-1.67 228.03,-1.21 229.08,-0.75 230.16,-0.08 231.23,0.58 232.26,1.30 233.28,2.02 234.70,3.01 236.11,3.99 237.61,5.17 239.10,6.35 240.29,7.26 241.49,8.17 243.44,9.01 245.40,9.84 245.68,10.06 245.96,10.28 246.15,10.57 246.34,10.87 246.43,11.21 246.51,11.55 246.49,11.90 246.46,12.26 246.33,12.58 246.19,12.90 245.95,13.17 245.72,13.43 245.42,13.61 245.11,13.78 244.76,13.85 244.42,13.92 244.07,13.88 243.72,13.83 243.40,13.68 243.09,13.52 242.83,13.28 242.58,13.03 242.42,12.71 242.27,12.40 242.22,12.05 242.17,11.70 242.23,11.35 242.29,11.01 242.47,10.70 242.64,10.39 242.90,10.15 243.16,9.92 243.48,9.78 243.80,9.63 244.15,9.60 244.51,9.57 244.85,9.65 245.19,9.74 245.49,9.92 245.79,10.11 246.01,10.39 246.23,10.66 246.36,10.99 246.48,11.32 246.49,11.67 246.51,12.02 246.40,12.36 246.30,12.70 246.10,12.99 245.90,13.27 245.61,13.48 245.33,13.69 244.99,13.80 244.65,13.90 244.30,13.89 243.95,13.89 243.62,13.77 243.28,13.65 243.29,13.65 243.29,13.65 241.11,12.55 238.94,11.45 237.80,10.49 236.65,9.53 235.23,8.48 233.81,7.42 232.23,6.39 230.65,5.35 229.77,4.58 228.90,3.80 227.29,2.53 225.68,1.26 224.26,0.55 222.84,-0.16 221.17,-0.75 219.50,-1.34 217.55,-2.01 215.61,-2.67 213.48,-3.17 211.36,-3.67 208.28,-4.32 205.21,-4.97 202.44,-5.42 199.66,-5.87 195.67,-6.39 191.67,-6.91 186.16,-7.60 180.64,-8.29 174.05,-8.84 167.46,-9.39 158.43,-10.13 149.40,-10.88 143.51,-11.02 137.61,-11.15 130.24,-11.48 122.86,-11.80 115.82,-12.03 108.77,-12.25 101.81,-12.25 94.85,-12.24 90.72,-12.22 86.59,-12.21 82.67,-12.18 78.74,-12.15 75.31,-12.09 71.88,-12.03 68.33,-11.91 64.78,-11.79 62.08,-11.50 59.38,-11.22 57.65,-11.22 55.93,-11.22 53.77,-11.05 51.62,-10.87 48.40,-10.46 45.18,-10.04 41.50,-9.62 37.82,-9.19 34.32,-8.73 30.82,-8.28 27.77,-7.76 24.72,-7.24 22.42,-6.50 20.12,-5.76 17.47,-5.16 14.81,-4.56 11.79,-3.71 8.77,-2.87 6.68,-1.94 4.60,-1.01 2.70,0.16 0.80,1.33 0.63,1.41 0.45,1.49 0.27,1.52 0.08,1.55 -0.09,1.54 -0.28,1.53 -0.46,1.47 -0.64,1.42 -0.80,1.32 -0.96,1.22 -1.10,1.09 -1.23,0.95 -1.32,0.79 -1.42,0.63 -1.48,0.45 -1.53,0.27 -1.54,0.08 -1.55,-0.09 -1.52,-0.28 -1.48,-0.46 -1.41,-0.64 -1.33,-0.81 -1.21,-0.96 -1.10,-1.10 -0.95,-1.22 -0.80,-1.33 -0.80,-1.33 L -0.80,-1.33 Z"></path></g><g transform="translate(645.2500610351562 616.5624694824219) rotate(0 5.199981689453125 6)" stroke="none"><path fill="#1864ab" d="M 2.45,0.98 Q 2.45,0.98 1.99,2.13 1.54,3.29 1.03,4.49 0.52,5.70 0.13,7.29 -0.26,8.88 0.91,8.95 2.08,9.02 4.01,9.19 5.94,9.36 8.14,9.53 10.34,9.71 12.00,9.66 13.67,9.61 14.05,9.67 14.43,9.74 14.77,9.92 15.11,10.10 15.37,10.38 15.64,10.66 15.80,11.01 15.96,11.36 16.00,11.75 16.04,12.13 15.96,12.51 15.87,12.88 15.67,13.21 15.47,13.54 15.18,13.79 14.88,14.04 14.52,14.18 14.17,14.32 13.78,14.34 13.40,14.36 13.02,14.26 12.65,14.15 12.33,13.94 12.02,13.72 11.78,13.41 11.55,13.10 11.43,12.74 11.31,12.37 11.31,11.98 11.31,11.60 11.43,11.23 11.56,10.87 11.79,10.56 12.03,10.26 12.35,10.04 12.67,9.83 13.04,9.72 13.41,9.62 13.80,9.64 14.18,9.67 14.54,9.81 14.90,9.95 15.19,10.21 15.48,10.46 15.68,10.79 15.88,11.12 15.96,11.49 16.04,11.87 16.00,12.26 15.96,12.64 15.79,12.99 15.63,13.34 15.36,13.62 15.10,13.90 14.76,14.07 14.41,14.25 14.03,14.32 13.65,14.38 13.65,14.38 13.65,14.38 11.99,14.32 10.32,14.26 8.10,14.41 5.88,14.57 3.91,14.70 1.93,14.82 -0.18,14.91 -2.30,14.99 -3.47,14.67 -4.63,14.35 -5.43,13.39 -6.24,12.42 -6.53,10.69 -6.82,8.95 -6.02,7.58 -5.22,6.21 -5.00,5.06 -4.79,3.91 -4.09,2.61 -3.38,1.30 -2.91,0.16 -2.45,-0.98 -2.29,-1.25 -2.14,-1.53 -1.92,-1.77 -1.71,-2.00 -1.44,-2.18 -1.18,-2.35 -0.88,-2.46 -0.58,-2.57 -0.26,-2.60 0.04,-2.63 0.36,-2.59 0.67,-2.55 0.97,-2.43 1.26,-2.31 1.52,-2.12 1.78,-1.94 1.99,-1.70 2.19,-1.46 2.34,-1.17 2.48,-0.89 2.55,-0.58 2.62,-0.27 2.62,0.04 2.61,0.36 2.53,0.67 2.45,0.98 2.45,0.98 L 2.45,0.98 Z"></path></g><g transform="translate(906.8500366210938 718.1625061035156) rotate(0 -17.600006103515625 -2.0000152587890625)" stroke="none"><path fill="#1864ab" d="M 0.34,2.38 Q 0.34,2.38 -1.27,2.58 -2.88,2.79 -4.34,2.91 -5.79,3.04 -7.11,3.11 -8.43,3.18 -10.61,3.05 -12.80,2.92 -14.41,2.94 -16.01,2.95 -17.55,3.08 -19.08,3.21 -20.90,3.30 -22.72,3.40 -24.71,3.46 -26.71,3.52 -27.79,3.24 -28.86,2.96 -30.85,1.94 -32.83,0.91 -34.59,-0.58 -36.35,-2.07 -36.73,-2.35 -37.12,-2.64 -37.39,-3.03 -37.66,-3.42 -37.80,-3.88 -37.93,-4.34 -37.91,-4.81 -37.89,-5.29 -37.72,-5.74 -37.55,-6.18 -37.25,-6.55 -36.95,-6.92 -36.54,-7.17 -36.14,-7.42 -35.67,-7.53 -35.21,-7.64 -34.73,-7.60 -34.26,-7.55 -33.82,-7.36 -33.38,-7.16 -33.03,-6.84 -32.68,-6.52 -32.45,-6.10 -32.22,-5.68 -32.14,-5.21 -32.05,-4.74 -32.13,-4.27 -32.20,-3.80 -32.41,-3.37 -32.63,-2.95 -32.97,-2.61 -33.31,-2.28 -33.74,-2.07 -34.18,-1.87 -34.65,-1.81 -35.12,-1.75 -35.59,-1.85 -36.06,-1.94 -36.47,-2.18 -36.88,-2.42 -37.20,-2.78 -37.51,-3.14 -37.69,-3.58 -37.88,-4.02 -37.91,-4.50 -37.94,-4.98 -37.82,-5.44 -37.70,-5.90 -37.44,-6.30 -37.17,-6.70 -36.80,-6.99 -36.42,-7.28 -35.97,-7.44 -35.52,-7.60 -35.05,-7.61 -34.57,-7.62 -34.11,-7.47 -33.66,-7.32 -33.66,-7.32 -33.66,-7.32 -31.74,-5.63 -29.81,-3.94 -28.20,-2.93 -26.59,-1.92 -24.65,-1.86 -22.72,-1.80 -20.90,-1.71 -19.09,-1.61 -17.56,-1.49 -16.03,-1.37 -14.43,-1.37 -12.83,-1.37 -10.71,-1.54 -8.59,-1.70 -7.36,-1.72 -6.13,-1.73 -4.84,-1.80 -3.55,-1.87 -1.94,-2.12 -0.34,-2.38 -0.05,-2.39 0.23,-2.39 0.52,-2.33 0.80,-2.26 1.06,-2.14 1.32,-2.01 1.54,-1.82 1.76,-1.63 1.93,-1.39 2.10,-1.16 2.21,-0.89 2.32,-0.62 2.36,-0.33 2.40,-0.05 2.37,0.23 2.35,0.52 2.25,0.80 2.15,1.07 1.99,1.31 1.83,1.55 1.62,1.75 1.40,1.95 1.15,2.09 0.90,2.23 0.62,2.30 0.34,2.38 0.34,2.38 L 0.34,2.38 Z"></path></g><g transform="translate(862.8500366210938 716.5625305175781) rotate(0 6.79998779296875 -6.8000030517578125)" stroke="none"><path fill="#1864ab" d="M -2.60,0.43 Q -2.60,0.43 -2.82,-0.94 -3.04,-2.32 -3.18,-3.48 -3.31,-4.63 -3.14,-5.93 -2.96,-7.22 -2.88,-8.50 -2.80,-9.78 -2.30,-10.79 -1.81,-11.80 -0.91,-12.49 -0.01,-13.19 1.65,-13.82 3.32,-14.45 4.39,-14.80 5.47,-15.15 6.89,-15.35 8.31,-15.55 10.85,-16.05 13.40,-16.55 13.89,-16.53 14.39,-16.51 14.85,-16.34 15.31,-16.17 15.69,-15.85 16.08,-15.54 16.34,-15.12 16.60,-14.71 16.72,-14.23 16.84,-13.75 16.79,-13.25 16.75,-12.76 16.55,-12.31 16.36,-11.86 16.02,-11.49 15.69,-11.12 15.26,-10.88 14.83,-10.64 14.34,-10.55 13.86,-10.46 13.37,-10.53 12.88,-10.60 12.44,-10.82 12.00,-11.05 11.65,-11.40 11.30,-11.75 11.08,-12.19 10.87,-12.64 10.80,-13.13 10.74,-13.62 10.84,-14.10 10.93,-14.59 11.18,-15.02 11.42,-15.44 11.79,-15.77 12.16,-16.10 12.62,-16.29 13.07,-16.49 13.57,-16.52 14.06,-16.56 14.54,-16.44 15.02,-16.31 15.43,-16.05 15.85,-15.78 16.15,-15.39 16.46,-15.00 16.63,-14.54 16.80,-14.07 16.81,-13.58 16.82,-13.09 16.67,-12.61 16.52,-12.14 16.23,-11.74 15.94,-11.34 15.54,-11.06 15.13,-10.77 14.66,-10.63 14.19,-10.49 14.19,-10.49 14.19,-10.49 10.77,-9.94 7.36,-9.39 6.30,-9.03 5.24,-8.66 3.97,-8.77 2.70,-8.88 2.55,-7.49 2.40,-6.10 2.26,-4.64 2.12,-3.19 2.36,-1.81 2.60,-0.43 2.61,-0.11 2.63,0.20 2.57,0.51 2.50,0.82 2.37,1.11 2.23,1.40 2.03,1.64 1.83,1.89 1.58,2.08 1.32,2.28 1.03,2.40 0.74,2.53 0.43,2.58 0.11,2.63 -0.20,2.61 -0.51,2.58 -0.82,2.48 -1.12,2.38 -1.39,2.22 -1.66,2.05 -1.88,1.82 -2.10,1.59 -2.26,1.31 -2.42,1.04 -2.51,0.73 -2.60,0.43 -2.60,0.43 L -2.60,0.43 Z"></path></g><g transform="translate(903.6500244140625 618.762451171875) rotate(0 135 25)"><text x="0" y="17" font-family="Virgil, Segoe UI Emoji" font-size="20px" fill="#1864ab" text-anchor="start" style="white-space: pre;" direction="ltr">derivata dello spostamento</text><text x="0" y="42" font-family="Virgil, Segoe UI Emoji" font-size="20px" fill="#1864ab" text-anchor="start" style="white-space: pre;" direction="ltr">= velocità</text></g></svg>