<svg version="1.1" xmlns="http://www.w3.org/2000/svg" viewBox="0 0 10020 803.8185005306091" width="10020" height="803.8185005306091">
  <!-- svg-source:excalidraw -->
  
  <defs>
    <style>
      @font-face {
        font-family: "Virgil";
        src: url("https://excalidraw.com/Virgil.woff2");
      }
      @font-face {
        font-family: "Cascadia";
        src: url("https://excalidraw.com/Cascadia.woff2");
      }
    </style>
  </defs>
  <rect x="0" y="0" width="10020" height="803.8185005306091" fill="#fff0"></rect><g stroke-linecap="round" transform="translate(10 10) rotate(0 5000 0.5)"><path d="M-0.52 -0.26 C3022.65 -30.2, 6044.59 -29.2, 9999.32 0.22 M0.38 -0.31 C3948.03 -0.44, 7895.41 0.2, 9999.95 0.08 M10000.08 -0.06 C10000.09 0.27, 10000.05 0.48, 10000.09 0.92 M9999.97 0.01 C9999.95 0.33, 9999.98 0.72, 10000 0.99 M10000.22 1.51 C7095.77 35.76, 4193.15 34.95, -0.25 0.75 M10000.01 1.13 C7827.97 2.74, 5656.23 3.35, -0.33 0.84 M-0.04 1.01 C0 0.63, -0.06 0.15, 0.05 -0.03 M-0.04 0.95 C-0.04 0.73, -0.03 0.59, -0.05 -0.02" stroke="transparent" stroke-width="1" fill="none"></path></g><g stroke-linecap="round"><g transform="translate(529.956036184004 764.8624267578125) rotate(0 3.274798268255548 -61.27644654121249)"><path d="M-0.11 1 C0.85 -19.7, 4.52 -103.08, 5.81 -123.51 M-1.62 0.48 C-0.29 -20.17, 6.63 -101.83, 8.13 -122.47" stroke="#d9480f" stroke-width="1" fill="none"></path></g><g transform="translate(529.956036184004 764.8624267578125) rotate(0 3.274798268255548 -61.27644654121249)"><path d="M17.8 -94.8 C11.92 -100.65, 12.74 -112.12, 8.83 -124.33 M17 -94.14 C14.24 -101.02, 11.11 -109.02, 8.81 -121.95" stroke="#d9480f" stroke-width="1" fill="none"></path></g><g transform="translate(529.956036184004 764.8624267578125) rotate(0 3.274798268255548 -61.27644654121249)"><path d="M-2.66 -96.42 C-2.28 -101.76, 4.79 -112.73, 8.83 -124.33 M-3.45 -95.76 C-0.78 -102.36, 1.52 -109.93, 8.81 -121.95" stroke="#d9480f" stroke-width="1" fill="none"></path></g></g><g transform="translate(519.0499877929688 773.4624633789062) rotate(0 131.5 10.178018575851382)"><text x="0" y="13.35603715170279" font-family="Virgil, Segoe UI Emoji" font-size="16.28482972136223px" fill="#d9480f" text-anchor="start" style="white-space: pre;" direction="ltr">"della massa m1 sulla massa m2"</text></g><g stroke-linecap="round"><g transform="translate(595.0418407734276 629.448644540877) rotate(176.98549452600315 -2.9489179852456147 42.07718397277289)"><path d="M-0.12 1.19 C-1.16 15.33, -5.65 70.79, -6.8 84.47 M-1.65 0.77 C-2.26 14.56, -4.04 68.63, -4.56 82.51" stroke="#1864ab" stroke-width="1" fill="none"></path></g><g transform="translate(595.0418407734276 629.448644540877) rotate(176.98549452600315 -2.9489179852456147 42.07718397277289)"><path d="M-11.84 52.47 C-11.06 59.3, -10.8 70.34, -3.82 83.79 M-14.47 54.04 C-11.57 60.81, -8.11 70.39, -5.21 83.18" stroke="#1864ab" stroke-width="1" fill="none"></path></g><g transform="translate(595.0418407734276 629.448644540877) rotate(176.98549452600315 -2.9489179852456147 42.07718397277289)"><path d="M8.66 53.19 C4.27 59.81, -0.65 70.68, -3.82 83.79 M6.04 54.76 C3.31 61.45, 1.15 70.84, -5.21 83.18" stroke="#1864ab" stroke-width="1" fill="none"></path></g></g><g transform="translate(554.0500793457031 721.2625122070312) rotate(0 87 12.5)"><text x="0" y="18" font-family="Virgil, Segoe UI Emoji" font-size="20px" fill="#1864ab" text-anchor="start" style="white-space: pre;" direction="ltr">forza attrattiva</text></g><g stroke-linecap="round"><g transform="translate(614.0202232785304 546.4402402080595) rotate(0 2.971208947237365 19.122069821804757)"><path d="M0.66 -0.81 C1.7 5.64, 4.45 31.59, 5.49 37.96 M-0.45 1.38 C0.45 8.07, 3.12 33.19, 4.31 39.36" stroke="#d9480f" stroke-width="1" fill="none"></path></g><g transform="translate(614.0202232785304 546.4402402080595) rotate(0 2.971208947237365 19.122069821804757)"><path d="M-6.13 21.56 C-3.18 27.93, -1.83 29.05, 5.25 38.92 M-5.43 21.47 C-1.11 28.43, 1.98 33.44, 4.59 39.5" stroke="#d9480f" stroke-width="1" fill="none"></path></g><g transform="translate(614.0202232785304 546.4402402080595) rotate(0 2.971208947237365 19.122069821804757)"><path d="M6.98 19.69 C6.77 26.58, 4.98 28.14, 5.25 38.92 M7.68 19.6 C7.67 27.22, 6.42 32.85, 4.59 39.5" stroke="#d9480f" stroke-width="1" fill="none"></path></g></g><g transform="translate(576.8499755859375 521.6624755859375) rotate(0 176 12.5)"><text x="0" y="18" font-family="Virgil, Segoe UI Emoji" font-size="20px" fill="#d9480f" text-anchor="start" style="white-space: pre;" direction="ltr">Costante di gravitazione universale</text></g><g transform="translate(785.25 559.0625) rotate(0 87.5 12.5)"><text x="0" y="18" font-family="Virgil, Segoe UI Emoji" font-size="20px" fill="#1864ab" text-anchor="start" style="white-space: pre;" direction="ltr">masse dei 2 corpi</text></g><g stroke-linecap="round"><g transform="translate(811.6243942484259 634.2795472636819) rotate(0 -41.12571733355986 -5.677564274738536)"><path d="M0.39 0.71 C-13.07 -1.25, -67.65 -8.73, -81.55 -10.71 M-0.87 0.03 C-14.35 -1.76, -68.86 -10.86, -82.13 -12.49" stroke="#d9480f" stroke-width="1" fill="none"></path></g><g transform="translate(811.6243942484259 634.2795472636819) rotate(0 -41.12571733355986 -5.677564274738536)"><path d="M-51.56 -17.34 C-58.45 -18.27, -66.09 -14.07, -81.33 -13.74 M-53.52 -18.1 C-59.85 -16.08, -65.76 -14.92, -82.73 -12.5" stroke="#d9480f" stroke-width="1" fill="none"></path></g><g transform="translate(811.6243942484259 634.2795472636819) rotate(0 -41.12571733355986 -5.677564274738536)"><path d="M-54.56 2.96 C-60.94 -2.7, -67.87 -3.23, -81.33 -13.74 M-56.53 2.2 C-62.18 -0.29, -67.43 -3.6, -82.73 -12.5" stroke="#d9480f" stroke-width="1" fill="none"></path></g></g><g transform="translate(821.25 612.6625061035156) rotate(0 143.5 25)"><text x="0" y="17" font-family="Virgil, Segoe UI Emoji" font-size="20px" fill="#d9480f" text-anchor="start" style="white-space: pre;" direction="ltr">versore allineato col vettore</text><text x="0" y="42" font-family="Virgil, Segoe UI Emoji" font-size="20px" fill="#d9480f" text-anchor="start" style="white-space: pre;" direction="ltr">congiungente i 2 corpi</text></g><g stroke-linecap="round"><g transform="translate(781.947966695577 701.6663758353385) rotate(0 -52.34898334778845 -18.801937917669264)"><path d="M-0.1 -0.41 C-17.55 -6.68, -87.97 -31.35, -105.46 -37.38 M-1.61 -1.67 C-18.61 -8.35, -85.75 -33.27, -103.15 -39.38" stroke="#1864ab" stroke-width="1" fill="none"></path></g><g transform="translate(781.947966695577 701.6663758353385) rotate(0 -52.34898334778845 -18.801937917669264)"><path d="M-73.83 -40.68 C-79.84 -40.07, -85.52 -38.82, -104.28 -40.48 M-73.27 -38.96 C-82.61 -39.92, -90.61 -39.96, -103.35 -40.11" stroke="#1864ab" stroke-width="1" fill="none"></path></g><g transform="translate(781.947966695577 701.6663758353385) rotate(0 -52.34898334778845 -18.801937917669264)"><path d="M-80.83 -21.39 C-85.23 -25.32, -89.27 -28.6, -104.28 -40.48 M-80.27 -19.67 C-87.46 -26.26, -93.43 -31.91, -103.35 -40.11" stroke="#1864ab" stroke-width="1" fill="none"></path></g></g><g transform="translate(794.8499755859375 695.6625061035156) rotate(0 128 12.5)"><text x="0" y="18" font-family="Virgil, Segoe UI Emoji" font-size="20px" fill="#1864ab" text-anchor="start" style="white-space: pre;" direction="ltr">distanza fra i 2 corpi ^2</text></g><g stroke-linecap="round"><g transform="translate(772.478423969727 573.3159610030241) rotate(0 -42.328119907081145 10.661762498910537)"><path d="M-0.38 -0.48 C-14.53 3.09, -71.13 17.77, -85.03 21.6 M1.61 -1.77 C-12.71 1.39, -71.88 15.87, -86.17 19.62" stroke="#1864ab" stroke-width="1" fill="none"></path></g><g transform="translate(772.478423969727 573.3159610030241) rotate(0 -42.328119907081145 10.661762498910537)"><path d="M-62.13 2.17 C-67.99 8.99, -73.67 14.05, -84.49 17.71 M-60.65 2.36 C-69.8 8.02, -77.4 13.98, -86.1 19.52" stroke="#1864ab" stroke-width="1" fill="none"></path></g><g transform="translate(772.478423969727 573.3159610030241) rotate(0 -42.328119907081145 10.661762498910537)"><path d="M-57.12 22.07 C-64.45 23.15, -71.57 22.49, -84.49 17.71 M-55.64 22.26 C-66.28 21.25, -75.58 20.5, -86.1 19.52" stroke="#1864ab" stroke-width="1" fill="none"></path></g></g></svg>