<svg version="1.1" xmlns="http://www.w3.org/2000/svg" viewBox="0 0 10020 780.5250549316406" width="10020" height="780.5250549316406">
  <!-- svg-source:excalidraw -->
  
  <defs>
    <style>
      @font-face {
        font-family: "Virgil";
        src: url("https://excalidraw.com/Virgil.woff2");
      }
      @font-face {
        font-family: "Cascadia";
        src: url("https://excalidraw.com/Cascadia.woff2");
      }
    </style>
  </defs>
  <rect x="0" y="0" width="10020" height="780.5250549316406" fill="#fff0"></rect><g stroke-linecap="round" transform="translate(10 10) rotate(0 5000 0.5)"><path d="M-0.52 -0.26 C3022.65 -30.2, 6044.59 -29.2, 9999.32 0.22 M0.38 -0.31 C3948.03 -0.44, 7895.41 0.2, 9999.95 0.08 M10000.08 -0.06 C10000.09 0.27, 10000.05 0.48, 10000.09 0.92 M9999.97 0.01 C9999.95 0.33, 9999.98 0.72, 10000 0.99 M10000.22 1.51 C7095.77 35.76, 4193.15 34.95, -0.25 0.75 M10000.01 1.13 C7827.97 2.74, 5656.23 3.35, -0.33 0.84 M-0.04 1.01 C0 0.63, -0.06 0.15, 0.05 -0.03 M-0.04 0.95 C-0.04 0.73, -0.03 0.59, -0.05 -0.02" stroke="transparent" stroke-width="1" fill="none"></path></g><g stroke-linecap="round"><g transform="translate(754.1266819365322 575.028506795084) rotate(0 -30.900346726523722 0.03904719696847536)"><path d="M0.24 -0.31 C-10.27 -0.36, -51.87 0.27, -62.05 0.41 M-1.1 -1.51 C-11.88 -2, -53.12 -1.52, -63.12 -1.54" stroke="#d9480f" stroke-width="1" fill="none"></path></g><g transform="translate(754.1266819365322 575.028506795084) rotate(0 -30.900346726523722 0.03904719696847536)"><path d="M-35.5 -12.35 C-45.22 -6.3, -55.9 -5.67, -62.75 -0.36 M-34.88 -12.32 C-41.69 -8.98, -48.38 -8.32, -63.6 -1.64" stroke="#d9480f" stroke-width="1" fill="none"></path></g><g transform="translate(754.1266819365322 575.028506795084) rotate(0 -30.900346726523722 0.03904719696847536)"><path d="M-35.39 8.17 C-45.28 6.31, -56 -0.96, -62.75 -0.36 M-34.78 8.2 C-41.45 6.77, -48.16 2.67, -63.6 -1.64" stroke="#d9480f" stroke-width="1" fill="none"></path></g></g><g transform="translate(764.0501098632812 558.9249877929688) rotate(0 177.5 12.5)"><text x="0" y="18" font-family="Virgil, Segoe UI Emoji" font-size="20px" fill="#d9480f" text-anchor="start" style="white-space: pre;" direction="ltr">derivata di un prodotto = 2 termini</text></g><g transform="translate(661.6500854492188 660.7250366210938) rotate(0 8.399993896484375 -5.20001220703125)" stroke="none"><path fill="#1864ab" d="M 0,-2.58 Q 0,-2.58 1.60,-2.54 3.21,-2.50 4.59,-2.51 5.96,-2.51 7.35,-2.60 8.74,-2.69 10.06,-2.79 11.38,-2.88 12.82,-2.96 14.26,-3.03 13.92,-4.61 13.58,-6.18 13.57,-8.09 13.56,-9.99 13.64,-10.51 13.73,-11.03 13.97,-11.49 14.22,-11.95 14.60,-12.31 14.98,-12.67 15.46,-12.89 15.93,-13.11 16.45,-13.16 16.98,-13.22 17.49,-13.11 18.00,-12.99 18.45,-12.72 18.89,-12.45 19.23,-12.05 19.57,-11.65 19.76,-11.16 19.96,-10.68 19.98,-10.15 20.01,-9.63 19.87,-9.13 19.73,-8.62 19.44,-8.19 19.14,-7.76 18.72,-7.44 18.31,-7.12 17.81,-6.96 17.31,-6.79 16.79,-6.79 16.26,-6.79 15.77,-6.96 15.27,-7.13 14.86,-7.45 14.44,-7.76 14.15,-8.20 13.85,-8.63 13.71,-9.14 13.57,-9.64 13.60,-10.17 13.63,-10.69 13.83,-11.17 14.02,-11.66 14.36,-12.06 14.70,-12.46 15.15,-12.73 15.60,-13.00 16.11,-13.11 16.63,-13.22 17.15,-13.16 17.67,-13.10 18.14,-12.88 18.62,-12.66 19.00,-12.30 19.38,-11.94 19.62,-11.48 19.86,-11.01 19.95,-10.50 20.03,-9.98 20.03,-9.98 20.03,-9.98 20.00,-7.34 19.96,-4.70 19.90,-2.91 19.84,-1.12 19.45,0.09 19.06,1.31 18.05,2.00 17.03,2.70 15.65,2.87 14.26,3.03 12.82,2.96 11.38,2.88 10.06,2.79 8.74,2.69 7.35,2.60 5.96,2.51 4.59,2.51 3.21,2.50 1.60,2.54 0,2.58 -0.30,2.54 -0.61,2.50 -0.90,2.39 -1.20,2.28 -1.45,2.11 -1.71,1.93 -1.91,1.70 -2.12,1.46 -2.27,1.19 -2.41,0.91 -2.49,0.61 -2.56,0.31 -2.56,-0.00 -2.56,-0.31 -2.49,-0.61 -2.41,-0.91 -2.27,-1.19 -2.12,-1.46 -1.91,-1.70 -1.71,-1.93 -1.45,-2.11 -1.20,-2.28 -0.90,-2.39 -0.61,-2.50 -0.30,-2.54 0.00,-2.58 0.00,-2.58 L 0,-2.58 Z"></path></g><g stroke-linecap="round"><g transform="translate(729.5986463490874 658.0894867121707) rotate(0 -19.700991692673398 0.4124449321301853)"><path d="M0.75 -0.11 C-5.72 0.16, -31.75 1.61, -38.6 1.62 M-0.32 -1.22 C-6.89 -1.28, -32.85 -0.42, -39.13 -0.08" stroke="#1864ab" stroke-width="1" fill="none"></path></g><g transform="translate(729.5986463490874 658.0894867121707) rotate(0 -19.700991692673398 0.4124449321301853)"><path d="M-21.09 -6.26 C-25.39 -6.66, -33.92 -2.33, -40.16 -0.36 M-21.61 -6.8 C-25.46 -5.15, -29.23 -4.6, -38.19 0.89" stroke="#1864ab" stroke-width="1" fill="none"></path></g><g transform="translate(729.5986463490874 658.0894867121707) rotate(0 -19.700991692673398 0.4124449321301853)"><path d="M-20.54 7.21 C-25.01 2.53, -33.72 2.58, -40.16 -0.36 M-21.06 6.67 C-25.13 5.56, -29.02 3.35, -38.19 0.89" stroke="#1864ab" stroke-width="1" fill="none"></path></g></g><g transform="translate(742.4500122070312 641.324951171875) rotate(0 184 12.5)"><text x="0" y="18" font-family="Virgil, Segoe UI Emoji" font-size="20px" fill="#1864ab" text-anchor="start" style="white-space: pre;" direction="ltr">formula dell'accelerazione istantanea</text></g><g stroke-linecap="round"><g transform="translate(672.9115369923413 751.5557095520198) rotate(0 -29.630756289139384 -13.015342568978667)"><path d="M0.03 0.22 C-9.91 -4.02, -49.82 -21.36, -59.74 -25.87 M-1.41 -0.72 C-11.55 -4.69, -51.12 -20.04, -60.95 -24.24" stroke="#d9480f" stroke-width="1" fill="none"></path></g><g transform="translate(672.9115369923413 751.5557095520198) rotate(0 -29.630756289139384 -13.015342568978667)"><path d="M-30.61 -23.98 C-39.45 -23.88, -49.86 -23.82, -59.65 -24.58 M-30.07 -23.22 C-41 -22.84, -52 -23.92, -60.49 -24.52" stroke="#d9480f" stroke-width="1" fill="none"></path></g><g transform="translate(672.9115369923413 751.5557095520198) rotate(0 -29.630756289139384 -13.015342568978667)"><path d="M-38.31 -4.96 C-44.83 -10.41, -52.98 -15.92, -59.65 -24.58 M-37.77 -4.2 C-46.07 -10.57, -54.35 -18.38, -60.49 -24.52" stroke="#d9480f" stroke-width="1" fill="none"></path></g></g><g transform="translate(685.6500244140625 720.5250549316406) rotate(0 176 25)"><text x="0" y="17" font-family="Virgil, Segoe UI Emoji" font-size="20px" fill="#d9480f" text-anchor="start" style="white-space: pre;" direction="ltr">se m = costante, d(m) = 0</text><text x="0" y="42" font-family="Virgil, Segoe UI Emoji" font-size="20px" fill="#d9480f" text-anchor="start" style="white-space: pre;" direction="ltr">-&gt; "classica" legge di newton (F=ma)</text></g></svg>