<svg version="1.1" xmlns="http://www.w3.org/2000/svg" viewBox="0 0 10020 732.4624938964844" width="10020" height="732.4624938964844">
  <!-- svg-source:excalidraw -->
  
  <defs>
    <style>
      @font-face {
        font-family: "Virgil";
        src: url("https://excalidraw.com/Virgil.woff2");
      }
      @font-face {
        font-family: "Cascadia";
        src: url("https://excalidraw.com/Cascadia.woff2");
      }
    </style>
  </defs>
  <rect x="0" y="0" width="10020" height="732.4624938964844" fill="#fff0"></rect><g stroke-linecap="round" transform="translate(10 10) rotate(0 5000 0.5)"><path d="M-0.52 -0.26 C3022.65 -30.2, 6044.59 -29.2, 9999.32 0.22 M0.38 -0.31 C3948.03 -0.44, 7895.41 0.2, 9999.95 0.08 M10000.08 -0.06 C10000.09 0.27, 10000.05 0.48, 10000.09 0.92 M9999.97 0.01 C9999.95 0.33, 9999.98 0.72, 10000 0.99 M10000.22 1.51 C7095.77 35.76, 4193.15 34.95, -0.25 0.75 M10000.01 1.13 C7827.97 2.74, 5656.23 3.35, -0.33 0.84 M-0.04 1.01 C0 0.63, -0.06 0.15, 0.05 -0.03 M-0.04 0.95 C-0.04 0.73, -0.03 0.59, -0.05 -0.02" stroke="transparent" stroke-width="1" fill="none"></path></g><g stroke-linecap="round"><g transform="translate(584.5495779815593 698.4738227523742) rotate(359.5575243174732 -1.92068456164548 -32.3170094883644)"><path d="M0.87 0.2 C0.25 -10.65, -4.02 -53.59, -4.86 -64.55 M-0.13 -0.73 C-0.29 -11.43, -1.86 -52.3, -2.69 -62.96" stroke="#000" stroke-width="1" fill="none"></path></g><g transform="translate(584.5495779815593 698.4738227523742) rotate(359.5575243174732 -1.92068456164548 -32.3170094883644)"><path d="M9.45 -37.08 C6.68 -41.53, 2.55 -45.87, -0.8 -61.38 M8.58 -35.52 C5.12 -43.72, 0.85 -52.67, -2.5 -63.77" stroke="#000" stroke-width="1" fill="none"></path></g><g transform="translate(584.5495779815593 698.4738227523742) rotate(359.5575243174732 -1.92068456164548 -32.3170094883644)"><path d="M-11.04 -35.96 C-9.58 -40.78, -9.48 -45.36, -0.8 -61.38 M-11.91 -34.39 C-8.93 -42.89, -6.74 -52.2, -2.5 -63.77" stroke="#000" stroke-width="1" fill="none"></path></g></g><g transform="translate(529.25 697.4624938964844) rotate(0 210 12.5)"><text x="0" y="18" font-family="Virgil, Segoe UI Emoji" font-size="20px" fill="#000" text-anchor="start" style="white-space: pre;" direction="ltr">rapporto temine elastico/termine inzerziale</text></g><g stroke-linecap="round"><g transform="translate(818.8500366210938 548.8625030517578) rotate(0 -107.20001220703125 15.600006103515625)"><path d="M-0.46 -0.59 C-25.79 -0.92, -117.16 -8.32, -152.97 -2.47 C-188.77 3.37, -205.04 28.42, -215.28 34.48 M1.5 1.72 C-23.92 1.63, -118.28 -6.12, -154 -0.98 C-189.73 4.17, -202.82 26.58, -212.85 32.6" stroke="#d9480f" stroke-width="1" fill="none"></path></g><g transform="translate(818.8500366210938 548.8625030517578) rotate(0 -107.20001220703125 15.600006103515625)"><path d="M-199.15 6.16 C-201.64 10.68, -203.29 17.87, -212.38 30.76 M-198.49 6.33 C-202.44 13.7, -205.76 19.79, -212.35 31.73" stroke="#d9480f" stroke-width="1" fill="none"></path></g><g transform="translate(818.8500366210938 548.8625030517578) rotate(0 -107.20001220703125 15.600006103515625)"><path d="M-185.77 21.71 C-191.15 22.75, -195.75 26.51, -212.38 30.76 M-185.1 21.89 C-192.53 25.22, -199.35 27.24, -212.35 31.73" stroke="#d9480f" stroke-width="1" fill="none"></path></g></g><g transform="translate(829.25 533.8625030517578) rotate(0 159 37)"><text x="0" y="17.666666666666668" font-family="Virgil, Segoe UI Emoji" font-size="20px" fill="#d9480f" text-anchor="start" style="white-space: pre;" direction="ltr">termine elastico:</text><text x="0" y="42.333333333333336" font-family="Virgil, Segoe UI Emoji" font-size="20px" fill="#d9480f" text-anchor="start" style="white-space: pre;" direction="ltr">quanto sono "legate" fra di loro</text><text x="0" y="67" font-family="Virgil, Segoe UI Emoji" font-size="20px" fill="#d9480f" text-anchor="start" style="white-space: pre;" direction="ltr">le particelle di un mezzo</text></g><g stroke-linecap="round"><g transform="translate(813.25 660.0625152587891) rotate(0 -108.39999389648438 -16.800003051757812)"><path d="M1.14 0.15 C-26.94 -0.22, -132.41 3.58, -168.87 -2.17 C-205.33 -7.92, -209.61 -29.05, -217.64 -34.36 M0.28 -0.82 C-27.39 -1.5, -130.71 1.69, -166.62 -3.75 C-202.53 -9.18, -206.79 -28.54, -215.18 -33.44" stroke="#1864ab" stroke-width="1" fill="none"></path></g><g transform="translate(813.25 660.0625152587891) rotate(0 -108.39999389648438 -16.800003051757812)"><path d="M-189 -22.49 C-194.42 -25.48, -204.29 -27.8, -215.86 -31.61 M-189.25 -20.33 C-199.57 -25.6, -208.32 -29.49, -215.55 -32.82" stroke="#1864ab" stroke-width="1" fill="none"></path></g><g transform="translate(813.25 660.0625152587891) rotate(0 -108.39999389648438 -16.800003051757812)"><path d="M-203.03 -8.72 C-204.73 -15.5, -210.87 -21.49, -215.86 -31.61 M-203.28 -6.56 C-208.39 -17.02, -211.83 -26.11, -215.55 -32.82" stroke="#1864ab" stroke-width="1" fill="none"></path></g></g><g transform="translate(822.8499755859375 618.2624969482422) rotate(0 126.5 37)"><text x="0" y="17.666666666666668" font-family="Virgil, Segoe UI Emoji" font-size="20px" fill="#1864ab" text-anchor="start" style="white-space: pre;" direction="ltr">termine inerziale:</text><text x="0" y="42.333333333333336" font-family="Virgil, Segoe UI Emoji" font-size="20px" fill="#1864ab" text-anchor="start" style="white-space: pre;" direction="ltr">densità lineare del mezzo,</text><text x="0" y="67" font-family="Virgil, Segoe UI Emoji" font-size="20px" fill="#1864ab" text-anchor="start" style="white-space: pre;" direction="ltr">quanto "pesa"</text></g></svg>