<svg version="1.1" xmlns="http://www.w3.org/2000/svg" viewBox="0 0 10020 683.1875305175781" width="10020" height="683.1875305175781">
  <!-- svg-source:excalidraw -->
  
  <defs>
    <style>
      @font-face {
        font-family: "Virgil";
        src: url("https://excalidraw.com/Virgil.woff2");
      }
      @font-face {
        font-family: "Cascadia";
        src: url("https://excalidraw.com/Cascadia.woff2");
      }
    </style>
  </defs>
  <rect x="0" y="0" width="10020" height="683.1875305175781" fill="#fff0"></rect><g stroke-linecap="round" transform="translate(10 10) rotate(0 5000 0.5)"><path d="M-0.52 -0.26 C3022.65 -30.2, 6044.59 -29.2, 9999.32 0.22 M0.38 -0.31 C3948.03 -0.44, 7895.41 0.2, 9999.95 0.08 M10000.08 -0.06 C10000.09 0.27, 10000.05 0.48, 10000.09 0.92 M9999.97 0.01 C9999.95 0.33, 9999.98 0.72, 10000 0.99 M10000.22 1.51 C7095.77 35.76, 4193.15 34.95, -0.25 0.75 M10000.01 1.13 C7827.97 2.74, 5656.23 3.35, -0.33 0.84 M-0.04 1.01 C0 0.63, -0.06 0.15, 0.05 -0.03 M-0.04 0.95 C-0.04 0.73, -0.03 0.59, -0.05 -0.02" stroke="transparent" stroke-width="1" fill="none"></path></g><g transform="translate(544.4500122070312 568.7875061035156) rotate(0 8 12.5)"><text x="0" y="18" font-family="Virgil, Segoe UI Emoji" font-size="20px" fill="#000" text-anchor="start" style="white-space: pre;" direction="ltr">M</text></g><g transform="translate(654.8500366210938 569.5875244140625) rotate(0 5.5 12.5)"><text x="0" y="18" font-family="Virgil, Segoe UI Emoji" font-size="20px" fill="#000" text-anchor="start" style="white-space: pre;" direction="ltr">V</text></g><g stroke-linecap="round"><g transform="translate(616.4500122070312 620.9875183105469) rotate(0 0 -29.600006103515625)"><path d="M-0.69 1.01 C-0.7 -9.11, 0.42 -50.04, 0.44 -60.26 M1.14 0.5 C0.97 -9.55, 0.18 -49.27, -0.27 -59.28" stroke="#1864ab" stroke-width="1" fill="none"></path></g><g transform="translate(616.4500122070312 620.9875183105469) rotate(0 0 -29.600006103515625)"><path d="M12.39 -31.04 C5.07 -42.16, 1.29 -49.71, -0.71 -58.66 M10.16 -31.92 C6.98 -42.9, 2.88 -53.37, 0.29 -59.84" stroke="#1864ab" stroke-width="1" fill="none"></path></g><g transform="translate(616.4500122070312 620.9875183105469) rotate(0 0 -29.600006103515625)"><path d="M-7.85 -30.42 C-8.24 -41.64, -5.08 -49.4, -0.71 -58.66 M-10.08 -31.3 C-5.54 -42.55, -1.92 -53.26, 0.29 -59.84" stroke="#1864ab" stroke-width="1" fill="none"></path></g></g><g transform="translate(549.2500305175781 623.1875305175781) rotate(0 90 12.5)"><text x="0" y="18" font-family="Virgil, Segoe UI Emoji" font-size="20px" fill="#1864ab" text-anchor="start" style="white-space: pre;" direction="ltr">elemento di massa</text></g><g stroke-linecap="round"><g transform="translate(841.25 584.9875183105469) rotate(0 -41.199981689453125 -18)"><path d="M0.78 -0.55 C-12.8 -6.58, -67.34 -30.46, -81.38 -36.25 M-0.27 1.77 C-13.93 -4.06, -68.32 -28.34, -81.79 -34.84" stroke="#1864ab" stroke-width="1" fill="none"></path></g><g transform="translate(841.25 584.9875183105469) rotate(0 -41.199981689453125 -18)"><path d="M-52.82 -30.65 C-61.5 -34.67, -69.07 -34.1, -81.14 -36.04 M-52.82 -32.8 C-58.28 -32.49, -66.73 -33.82, -81.04 -34.29" stroke="#1864ab" stroke-width="1" fill="none"></path></g><g transform="translate(841.25 584.9875183105469) rotate(0 -41.199981689453125 -18)"><path d="M-61.41 -12.02 C-67.44 -21.82, -72.37 -26.98, -81.14 -36.04 M-61.41 -14.17 C-64.63 -18.36, -71.01 -24.19, -81.04 -34.29" stroke="#1864ab" stroke-width="1" fill="none"></path></g></g><g transform="translate(848.4500122070312 579.1875305175781) rotate(0 90.5 12.5)"><text x="0" y="18" font-family="Virgil, Segoe UI Emoji" font-size="20px" fill="#1864ab" text-anchor="start" style="white-space: pre;" direction="ltr">elemento di volume</text></g><g stroke-linecap="round"><g transform="translate(770.528367499656 623.7891196748387) rotate(0 -35.839165439281146 -30.200803733903747)"><path d="M0.52 -1.12 C-11.45 -11.17, -60.69 -50.89, -72.68 -60.64 M-0.67 0.91 C-12.2 -8.93, -58.6 -48.82, -70.49 -59.23" stroke="#d9480f" stroke-width="1" fill="none"></path></g><g transform="translate(770.528367499656 623.7891196748387) rotate(0 -35.839165439281146 -30.200803733903747)"><path d="M-44.32 -50.19 C-49.22 -50.39, -53.86 -52.66, -72.17 -59.87 M-41.5 -48.54 C-50.52 -51.8, -58.96 -54.1, -70.38 -59.23" stroke="#d9480f" stroke-width="1" fill="none"></path></g><g transform="translate(770.528367499656 623.7891196748387) rotate(0 -35.839165439281146 -30.200803733903747)"><path d="M-57.76 -34.68 C-59.55 -38.47, -61.13 -44.28, -72.17 -59.87 M-54.94 -33.03 C-60.09 -40.81, -64.71 -47.54, -70.38 -59.23" stroke="#d9480f" stroke-width="1" fill="none"></path></g></g><g transform="translate(777.25 623.1875305175781) rotate(0 153.5 25)"><text x="0" y="17" font-family="Virgil, Segoe UI Emoji" font-size="20px" fill="#d9480f" text-anchor="start" style="white-space: pre;" direction="ltr">densità (se costante può</text><text x="0" y="42" font-family="Virgil, Segoe UI Emoji" font-size="20px" fill="#d9480f" text-anchor="start" style="white-space: pre;" direction="ltr">essere estratta dall'integrale)</text></g></svg>