<svg version="1.1" xmlns="http://www.w3.org/2000/svg" viewBox="0 0 10020 760.5250244140625" width="10020" height="760.5250244140625">
  <!-- svg-source:excalidraw -->
  
  <defs>
    <style>
      @font-face {
        font-family: "Virgil";
        src: url("https://excalidraw.com/Virgil.woff2");
      }
      @font-face {
        font-family: "Cascadia";
        src: url("https://excalidraw.com/Cascadia.woff2");
      }
    </style>
  </defs>
  <rect x="0" y="0" width="10020" height="760.5250244140625" fill="#fff0"></rect><g stroke-linecap="round" transform="translate(10 10) rotate(0 5000 0.5)"><path d="M-0.52 -0.26 C3022.65 -30.2, 6044.59 -29.2, 9999.32 0.22 M0.38 -0.31 C3948.03 -0.44, 7895.41 0.2, 9999.95 0.08 M10000.08 -0.06 C10000.09 0.27, 10000.05 0.48, 10000.09 0.92 M9999.97 0.01 C9999.95 0.33, 9999.98 0.72, 10000 0.99 M10000.22 1.51 C7095.77 35.76, 4193.15 34.95, -0.25 0.75 M10000.01 1.13 C7827.97 2.74, 5656.23 3.35, -0.33 0.84 M-0.04 1.01 C0 0.63, -0.06 0.15, 0.05 -0.03 M-0.04 0.95 C-0.04 0.73, -0.03 0.59, -0.05 -0.02" stroke="transparent" stroke-width="1" fill="none"></path></g><g stroke-linecap="round"><g transform="translate(755.4884203139693 578.5339994469191) rotate(0 -40.78119760469535 -4.513702180706879)"><path d="M0.24 -0.31 C-13.57 -1.87, -68.33 -7.31, -81.81 -8.7 M-1.1 -1.51 C-15.17 -3.52, -69.59 -9.11, -82.89 -10.65" stroke="#d9480f" stroke-width="1" fill="none"></path></g><g transform="translate(755.4884203139693 578.5339994469191) rotate(0 -40.78119760469535 -4.513702180706879)"><path d="M-54.26 -18.21 C-64.39 -13.41, -75.45 -14.02, -82.51 -9.47 M-53.65 -18.18 C-60.66 -15.61, -67.58 -15.7, -83.37 -10.74" stroke="#d9480f" stroke-width="1" fill="none"></path></g><g transform="translate(755.4884203139693 578.5339994469191) rotate(0 -40.78119760469535 -4.513702180706879)"><path d="M-56.48 2.19 C-65.87 -0.87, -76.08 -9.36, -82.51 -9.47 M-55.87 2.22 C-62.2 0.08, -68.6 -4.75, -83.37 -10.74" stroke="#d9480f" stroke-width="1" fill="none"></path></g></g><g transform="translate(764.0501098632812 558.9249877929688) rotate(0 177.5 12.5)"><text x="0" y="18" font-family="Virgil, Segoe UI Emoji" font-size="20px" fill="#d9480f" text-anchor="start" style="white-space: pre;" direction="ltr">derivata di un prodotto = 2 termini</text></g><g transform="translate(645.6500854492188 647.1250305175781) rotate(0 8.399993896484375 -5.20001220703125)" stroke="none"><path fill="#1864ab" d="M 0,-2.58 Q 0,-2.58 1.60,-2.54 3.21,-2.50 4.59,-2.51 5.96,-2.51 7.35,-2.60 8.74,-2.69 10.06,-2.79 11.38,-2.88 12.82,-2.96 14.26,-3.03 13.92,-4.61 13.58,-6.18 13.57,-8.09 13.56,-9.99 13.64,-10.51 13.73,-11.03 13.97,-11.49 14.22,-11.95 14.60,-12.31 14.98,-12.67 15.46,-12.89 15.93,-13.11 16.45,-13.16 16.98,-13.22 17.49,-13.11 18.00,-12.99 18.45,-12.72 18.89,-12.45 19.23,-12.05 19.57,-11.65 19.76,-11.16 19.96,-10.68 19.98,-10.15 20.01,-9.63 19.87,-9.13 19.73,-8.62 19.44,-8.19 19.14,-7.76 18.72,-7.44 18.31,-7.12 17.81,-6.96 17.31,-6.79 16.79,-6.79 16.26,-6.79 15.77,-6.96 15.27,-7.13 14.86,-7.45 14.44,-7.76 14.15,-8.20 13.85,-8.63 13.71,-9.14 13.57,-9.64 13.60,-10.17 13.63,-10.69 13.83,-11.17 14.02,-11.66 14.36,-12.06 14.70,-12.46 15.15,-12.73 15.60,-13.00 16.11,-13.11 16.63,-13.22 17.15,-13.16 17.67,-13.10 18.14,-12.88 18.62,-12.66 19.00,-12.30 19.38,-11.94 19.62,-11.48 19.86,-11.01 19.95,-10.50 20.03,-9.98 20.03,-9.98 20.03,-9.98 20.00,-7.34 19.96,-4.70 19.90,-2.91 19.84,-1.12 19.45,0.09 19.06,1.31 18.05,2.00 17.03,2.70 15.65,2.87 14.26,3.03 12.82,2.96 11.38,2.88 10.06,2.79 8.74,2.69 7.35,2.60 5.96,2.51 4.59,2.51 3.21,2.50 1.60,2.54 0,2.58 -0.30,2.54 -0.61,2.50 -0.90,2.39 -1.20,2.28 -1.45,2.11 -1.71,1.93 -1.91,1.70 -2.12,1.46 -2.27,1.19 -2.41,0.91 -2.49,0.61 -2.56,0.31 -2.56,-0.00 -2.56,-0.31 -2.49,-0.61 -2.41,-0.91 -2.27,-1.19 -2.12,-1.46 -1.91,-1.70 -1.71,-1.93 -1.45,-2.11 -1.20,-2.28 -0.90,-2.39 -0.61,-2.50 -0.30,-2.54 0.00,-2.58 0.00,-2.58 L 0,-2.58 Z"></path></g><g stroke-linecap="round"><g transform="translate(734.4500122070312 658.2031092229764) rotate(0 -29.863340362580487 -4.391705889743733)"><path d="M0.75 -0.11 C-9.11 -1.44, -48.69 -6.4, -58.93 -7.99 M-0.32 -1.22 C-10.28 -2.88, -49.79 -8.43, -59.45 -9.69" stroke="#1864ab" stroke-width="1" fill="none"></path></g><g transform="translate(734.4500122070312 658.2031092229764) rotate(0 -29.863340362580487 -4.391705889743733)"><path d="M-30.32 -14.7 C-38.13 -15.44, -50.23 -11.44, -60.5 -9.98 M-30.85 -15.25 C-36.99 -13.81, -43.04 -13.51, -58.5 -8.71" stroke="#1864ab" stroke-width="1" fill="none"></path></g><g transform="translate(734.4500122070312 658.2031092229764) rotate(0 -29.863340362580487 -4.391705889743733)"><path d="M-33.1 5.63 C-40.02 -1.59, -51.23 -4.06, -60.5 -9.98 M-33.63 5.08 C-39.36 2.35, -44.84 -1.52, -58.5 -8.71" stroke="#1864ab" stroke-width="1" fill="none"></path></g></g><g transform="translate(742.4500122070312 641.324951171875) rotate(0 184 12.5)"><text x="0" y="18" font-family="Virgil, Segoe UI Emoji" font-size="20px" fill="#1864ab" text-anchor="start" style="white-space: pre;" direction="ltr">formula dell'accelerazione istantanea</text></g><g stroke-linecap="round"><g transform="translate(649.6807440821082 718.540336465463) rotate(0 -25.615365937538442 -11.707668232731521)"><path d="M0.03 0.22 C-8.57 -3.58, -43.13 -19.18, -51.71 -23.25 M-1.41 -0.72 C-10.21 -4.26, -44.42 -17.86, -52.91 -21.63" stroke="#d9480f" stroke-width="1" fill="none"></path></g><g transform="translate(649.6807440821082 718.540336465463) rotate(0 -25.615365937538442 -11.707668232731521)"><path d="M-24.42 -21.13 C-32.72 -21.09, -42.59 -21.11, -51.62 -21.96 M-23.88 -20.37 C-34.16 -20.08, -44.51 -21.24, -52.46 -21.91" stroke="#d9480f" stroke-width="1" fill="none"></path></g><g transform="translate(649.6807440821082 718.540336465463) rotate(0 -25.615365937538442 -11.707668232731521)"><path d="M-31.84 -3.35 C-37.91 -8.51, -45.61 -13.72, -51.62 -21.96 M-31.3 -2.59 C-39.05 -8.61, -46.77 -16.06, -52.46 -21.91" stroke="#d9480f" stroke-width="1" fill="none"></path></g></g><g transform="translate(660.0499877929688 700.5250244140625) rotate(0 176 25)"><text x="0" y="17" font-family="Virgil, Segoe UI Emoji" font-size="20px" fill="#d9480f" text-anchor="start" style="white-space: pre;" direction="ltr">se m = costante, d(m) = 0</text><text x="0" y="42" font-family="Virgil, Segoe UI Emoji" font-size="20px" fill="#d9480f" text-anchor="start" style="white-space: pre;" direction="ltr">-&gt; "classica" legge di newton (F=ma)</text></g></svg>