<svg version="1.1" xmlns="http://www.w3.org/2000/svg" viewBox="0 0 10020 787.6500244140625" width="10020" height="787.6500244140625">
  <!-- svg-source:excalidraw -->
  
  <defs>
    <style>
      @font-face {
        font-family: "Virgil";
        src: url("https://excalidraw.com/Virgil.woff2");
      }
      @font-face {
        font-family: "Cascadia";
        src: url("https://excalidraw.com/Cascadia.woff2");
      }
    </style>
  </defs>
  <rect x="0" y="0" width="10020" height="787.6500244140625" fill="#fff0"></rect><g stroke-linecap="round" transform="translate(10 10) rotate(0 5000 0.5)"><path d="M-0.52 -0.26 C3022.65 -30.2, 6044.59 -29.2, 9999.32 0.22 M0.38 -0.31 C3948.03 -0.44, 7895.41 0.2, 9999.95 0.08 M10000.08 -0.06 C10000.09 0.27, 10000.05 0.48, 10000.09 0.92 M9999.97 0.01 C9999.95 0.33, 9999.98 0.72, 10000 0.99 M10000.22 1.51 C7095.77 35.76, 4193.15 34.95, -0.25 0.75 M10000.01 1.13 C7827.97 2.74, 5656.23 3.35, -0.33 0.84 M-0.04 1.01 C0 0.63, -0.06 0.15, 0.05 -0.03 M-0.04 0.95 C-0.04 0.73, -0.03 0.59, -0.05 -0.02" stroke="transparent" stroke-width="1" fill="none"></path></g><g transform="translate(804.4500122070312 683.5250244140625) rotate(0 30 -20.400009155273438)" stroke="none"><path fill="#d9480f" d="M -0.51,-1.55 Q -0.51,-1.55 0.83,-2.09 2.18,-2.62 3.51,-3.44 4.84,-4.27 7.81,-5.96 10.78,-7.66 14.10,-9.72 17.43,-11.79 21.37,-14.49 25.30,-17.18 29.74,-20.39 34.18,-23.59 37.69,-26.10 41.20,-28.61 43.83,-30.59 46.46,-32.56 48.25,-34.06 50.03,-35.57 51.19,-36.73 52.35,-37.89 53.34,-38.73 54.32,-39.58 56.84,-41.14 59.35,-42.71 59.67,-42.72 59.99,-42.73 60.30,-42.64 60.61,-42.54 60.88,-42.35 61.14,-42.17 61.33,-41.90 61.52,-41.64 61.62,-41.33 61.72,-41.02 61.71,-40.70 61.70,-40.37 61.59,-40.07 61.48,-39.76 61.28,-39.51 61.08,-39.26 60.80,-39.08 60.53,-38.91 60.22,-38.83 59.90,-38.75 59.58,-38.77 59.26,-38.80 58.96,-38.92 58.66,-39.05 58.42,-39.27 58.18,-39.48 58.01,-39.76 57.85,-40.05 57.79,-40.36 57.73,-40.68 57.77,-41.00 57.81,-41.32 57.96,-41.62 58.10,-41.91 58.33,-42.14 58.56,-42.37 58.85,-42.51 59.14,-42.66 59.46,-42.70 59.78,-42.75 60.10,-42.69 60.42,-42.63 60.70,-42.47 60.98,-42.31 61.20,-42.07 61.42,-41.83 61.54,-41.53 61.67,-41.23 61.70,-40.91 61.73,-40.59 61.65,-40.27 61.58,-39.96 61.40,-39.68 61.23,-39.41 60.98,-39.21 60.72,-39.00 60.42,-38.89 60.12,-38.78 60.12,-38.78 60.12,-38.78 58.24,-37.75 56.36,-36.73 55.38,-36.17 54.41,-35.61 53.11,-34.54 51.81,-33.48 49.97,-31.91 48.14,-30.34 45.50,-28.32 42.86,-26.31 39.38,-23.77 35.90,-21.23 31.47,-17.96 27.04,-14.69 23.09,-11.90 19.15,-9.11 15.83,-6.93 12.52,-4.74 9.61,-2.92 6.70,-1.10 5.02,-0.16 3.33,0.78 1.92,1.17 0.51,1.55 0.32,1.59 0.13,1.63 -0.06,1.62 -0.26,1.62 -0.45,1.56 -0.64,1.51 -0.81,1.41 -0.98,1.31 -1.13,1.17 -1.27,1.03 -1.37,0.87 -1.48,0.70 -1.54,0.51 -1.60,0.32 -1.62,0.13 -1.64,-0.06 -1.60,-0.26 -1.57,-0.45 -1.50,-0.64 -1.42,-0.82 -1.30,-0.98 -1.18,-1.13 -1.03,-1.26 -0.87,-1.38 -0.69,-1.47 -0.51,-1.55 -0.51,-1.55 L -0.51,-1.55 Z"></path></g><g transform="translate(878.0499877929688 674.5250244140625) rotate(0 98.5 12.5)"><text x="0" y="18" font-family="Virgil, Segoe UI Emoji" font-size="20px" fill="#d9480f" text-anchor="start" style="white-space: pre;" direction="ltr">termine trascurabile</text></g><g transform="translate(781.25 760.0499877929688) rotate(0 12.399993896484375 8.800018310546875)" stroke="none"><path fill="#1864ab" d="M 2.09,-0.41 Q 2.09,-0.41 2.44,1.90 2.80,4.22 3.37,6.01 3.94,7.80 4.43,9.83 4.92,11.87 5.42,13.07 5.92,14.27 8.02,12.75 10.11,11.23 12.49,9.85 14.87,8.47 16.22,7.45 17.56,6.43 18.95,5.62 20.35,4.82 21.61,3.78 22.88,2.74 23.19,2.58 23.50,2.42 23.84,2.37 24.19,2.32 24.53,2.38 24.87,2.44 25.18,2.60 25.48,2.77 25.72,3.02 25.95,3.28 26.10,3.60 26.24,3.91 26.27,4.26 26.31,4.61 26.23,4.94 26.15,5.28 25.97,5.58 25.78,5.88 25.52,6.10 25.25,6.32 24.93,6.44 24.60,6.57 24.25,6.58 23.91,6.60 23.57,6.50 23.24,6.41 22.95,6.21 22.67,6.01 22.46,5.73 22.25,5.45 22.14,5.12 22.04,4.79 22.04,4.44 22.04,4.09 22.16,3.77 22.27,3.44 22.49,3.16 22.70,2.89 22.99,2.70 23.28,2.50 23.62,2.42 23.95,2.33 24.30,2.35 24.65,2.37 24.97,2.50 25.29,2.64 25.55,2.86 25.82,3.09 25.99,3.39 26.17,3.69 26.24,4.03 26.31,4.37 26.27,4.72 26.23,5.06 26.08,5.38 25.93,5.69 25.69,5.94 25.44,6.19 25.44,6.19 25.44,6.19 23.84,7.29 22.23,8.38 21.04,8.94 19.86,9.49 18.38,10.59 16.91,11.69 14.81,13.13 12.72,14.57 11.31,15.74 9.90,16.92 8.06,18.12 6.22,19.32 4.92,18.98 3.62,18.65 2.99,17.08 2.35,15.50 1.96,14.12 1.56,12.74 1.04,10.86 0.51,8.98 -0.22,6.98 -0.96,4.97 -1.52,2.69 -2.09,0.41 -2.11,0.16 -2.13,-0.09 -2.09,-0.34 -2.05,-0.60 -1.94,-0.83 -1.84,-1.07 -1.69,-1.28 -1.53,-1.48 -1.33,-1.64 -1.13,-1.81 -0.90,-1.92 -0.66,-2.03 -0.41,-2.08 -0.16,-2.13 0.09,-2.12 0.35,-2.10 0.59,-2.03 0.84,-1.96 1.06,-1.83 1.29,-1.70 1.47,-1.52 1.66,-1.34 1.79,-1.12 1.93,-0.90 2.01,-0.66 2.09,-0.41 2.09,-0.41 L 2.09,-0.41 Z"></path></g><g transform="translate(789.25 769.6500244140625) rotate(0 48 -13.600006103515625)" stroke="none"><path fill="#1864ab" d="M -1.54,-0.25 Q -1.54,-0.25 -1.04,-3.02 -0.54,-5.78 0.89,-8.54 2.33,-11.30 4.12,-13.83 5.91,-16.37 7.93,-18.01 9.95,-19.65 13.39,-21.50 16.84,-23.35 21.62,-24.62 26.40,-25.90 31.00,-26.43 35.59,-26.96 39.57,-27.41 43.56,-27.85 48.52,-28.05 53.48,-28.24 58.11,-28.32 62.75,-28.40 65.96,-27.97 69.17,-27.53 71.16,-27.38 73.16,-27.22 75.33,-26.41 77.51,-25.59 79.58,-24.54 81.64,-23.49 83.00,-22.93 84.36,-22.36 85.70,-21.67 87.04,-20.98 88.05,-20.53 89.06,-20.08 90.72,-18.96 92.38,-17.84 94.61,-16.45 96.84,-15.06 97.15,-14.83 97.47,-14.60 97.69,-14.28 97.91,-13.97 98.02,-13.59 98.13,-13.22 98.12,-12.83 98.10,-12.44 97.96,-12.08 97.83,-11.71 97.58,-11.41 97.33,-11.11 97.00,-10.91 96.67,-10.70 96.29,-10.61 95.91,-10.52 95.53,-10.56 95.14,-10.60 94.78,-10.75 94.43,-10.91 94.14,-11.17 93.85,-11.44 93.67,-11.78 93.48,-12.12 93.41,-12.50 93.34,-12.88 93.40,-13.27 93.46,-13.65 93.63,-14.00 93.81,-14.35 94.09,-14.62 94.37,-14.89 94.72,-15.06 95.07,-15.23 95.45,-15.28 95.84,-15.32 96.22,-15.25 96.60,-15.17 96.94,-14.97 97.27,-14.78 97.53,-14.49 97.79,-14.19 97.94,-13.83 98.09,-13.48 98.11,-13.09 98.14,-12.70 98.04,-12.32 97.94,-11.95 97.73,-11.62 97.52,-11.30 97.21,-11.06 96.90,-10.82 96.54,-10.69 96.17,-10.56 95.78,-10.55 95.39,-10.54 95.02,-10.66 94.65,-10.78 94.65,-10.78 94.65,-10.78 92.04,-12.63 89.44,-14.49 88.32,-15.60 87.20,-16.72 86.24,-17.36 85.27,-18.00 84.11,-18.79 82.95,-19.58 81.69,-20.34 80.43,-21.10 78.49,-22.08 76.55,-23.07 74.71,-23.78 72.88,-24.50 70.85,-24.71 68.82,-24.92 65.80,-25.33 62.79,-25.75 58.19,-25.67 53.58,-25.59 48.72,-25.40 43.86,-25.20 39.88,-24.75 35.90,-24.30 31.49,-23.79 27.09,-23.28 22.60,-22.11 18.11,-20.94 14.89,-19.21 11.67,-17.49 9.93,-16.11 8.19,-14.73 6.54,-12.34 4.88,-9.95 3.63,-7.60 2.38,-5.25 1.96,-2.49 1.54,0.25 1.48,0.43 1.43,0.61 1.33,0.78 1.24,0.94 1.11,1.07 0.98,1.21 0.82,1.31 0.66,1.41 0.48,1.47 0.30,1.53 0.11,1.54 -0.06,1.56 -0.25,1.52 -0.44,1.49 -0.61,1.42 -0.78,1.34 -0.93,1.23 -1.08,1.12 -1.20,0.97 -1.32,0.82 -1.40,0.65 -1.48,0.48 -1.52,0.30 -1.55,0.11 -1.54,-0.06 -1.54,-0.25 -1.54,-0.25 L -1.54,-0.25 Z"></path></g><g transform="translate(894.050048828125 750.25) rotate(0 69 12.5)"><text x="0" y="18" font-family="Virgil, Segoe UI Emoji" font-size="20px" fill="#1864ab" text-anchor="start" style="white-space: pre;" direction="ltr">v[rel] = u - v</text></g><g transform="translate(646.0499877929688 760.0499877929688) rotate(0 0 -5.600006103515625)" stroke="none"><path fill="#d9480f" d="M -2.47,0 Q -2.47,0 -2.44,-1.61 -2.41,-3.22 -2.45,-4.36 -2.49,-5.50 -2.56,-8.16 -2.63,-10.82 -2.56,-11.24 -2.49,-11.66 -2.29,-12.04 -2.09,-12.41 -1.78,-12.71 -1.47,-13.00 -1.09,-13.18 -0.70,-13.36 -0.28,-13.40 0.14,-13.45 0.55,-13.36 0.97,-13.27 1.33,-13.05 1.70,-12.83 1.98,-12.50 2.25,-12.18 2.41,-11.78 2.57,-11.39 2.59,-10.96 2.61,-10.54 2.50,-10.13 2.38,-9.71 2.14,-9.36 1.91,-9.01 1.57,-8.75 1.23,-8.49 0.82,-8.36 0.42,-8.22 -0.00,-8.22 -0.42,-8.22 -0.82,-8.36 -1.23,-8.49 -1.57,-8.75 -1.91,-9.01 -2.15,-9.36 -2.38,-9.72 -2.50,-10.13 -2.61,-10.54 -2.59,-10.96 -2.57,-11.39 -2.41,-11.78 -2.25,-12.18 -1.97,-12.50 -1.70,-12.83 -1.33,-13.05 -0.97,-13.27 -0.55,-13.36 -0.14,-13.45 0.28,-13.40 0.70,-13.36 1.09,-13.18 1.47,-13.00 1.78,-12.71 2.09,-12.41 2.29,-12.04 2.49,-11.66 2.56,-11.24 2.63,-10.82 2.63,-10.82 2.63,-10.82 2.56,-8.16 2.49,-5.50 2.45,-4.36 2.41,-3.22 2.44,-1.61 2.47,0 2.43,0.29 2.40,0.59 2.29,0.87 2.18,1.14 2.02,1.39 1.85,1.63 1.62,1.83 1.40,2.03 1.14,2.17 0.87,2.31 0.58,2.38 0.29,2.45 -0.00,2.45 -0.29,2.45 -0.58,2.38 -0.87,2.31 -1.14,2.17 -1.40,2.03 -1.62,1.83 -1.85,1.63 -2.02,1.39 -2.18,1.14 -2.29,0.87 -2.40,0.59 -2.43,0.29 -2.47,-0.00 -2.47,-0.00 L -2.47,0 Z"></path></g><g transform="translate(639.6500244140625 760.050048828125) rotate(0 7.600006103515625 1.199981689453125)" stroke="none"><path fill="#d9480f" d="M 1.56,-2.08 Q 1.56,-2.08 2.50,-1.40 3.45,-0.71 4.41,-0.03 5.37,0.64 6.20,1.37 7.03,2.11 7.50,0.86 7.96,-0.37 9.12,-1.20 10.29,-2.03 11.58,-3.17 12.86,-4.32 13.27,-4.58 13.68,-4.85 14.15,-4.96 14.62,-5.08 15.10,-5.05 15.58,-5.01 16.03,-4.82 16.47,-4.63 16.83,-4.31 17.20,-3.98 17.44,-3.56 17.68,-3.14 17.77,-2.67 17.86,-2.19 17.80,-1.71 17.73,-1.23 17.52,-0.80 17.31,-0.36 16.96,-0.02 16.62,0.31 16.19,0.53 15.76,0.75 15.28,0.81 14.80,0.88 14.32,0.79 13.85,0.70 13.42,0.46 13.00,0.23 12.68,-0.12 12.35,-0.48 12.16,-0.93 11.97,-1.37 11.93,-1.85 11.89,-2.34 12.00,-2.81 12.12,-3.28 12.38,-3.68 12.64,-4.09 13.01,-4.40 13.39,-4.70 13.84,-4.87 14.30,-5.04 14.78,-5.05 15.26,-5.07 15.73,-4.93 16.19,-4.79 16.59,-4.50 16.98,-4.22 17.26,-3.83 17.55,-3.44 17.69,-2.98 17.83,-2.51 17.82,-2.03 17.81,-1.55 17.64,-1.09 17.48,-0.64 17.18,-0.26 16.87,0.11 16.87,0.11 16.87,0.11 15.33,1.41 13.79,2.72 12.84,3.44 11.90,4.16 10.93,5.00 9.97,5.84 8.26,6.72 6.55,7.59 5.19,7.41 3.83,7.22 2.95,6.27 2.07,5.32 1.15,4.39 0.22,3.47 -0.66,2.78 -1.56,2.08 -1.78,1.86 -2.01,1.64 -2.18,1.38 -2.35,1.11 -2.45,0.82 -2.55,0.52 -2.57,0.21 -2.60,-0.10 -2.55,-0.41 -2.50,-0.72 -2.37,-1.01 -2.25,-1.30 -2.06,-1.55 -1.88,-1.80 -1.63,-2.00 -1.39,-2.20 -1.11,-2.33 -0.82,-2.46 -0.51,-2.53 -0.21,-2.59 0.10,-2.58 0.41,-2.57 0.71,-2.48 1.01,-2.39 1.29,-2.24 1.56,-2.08 1.56,-2.08 L 1.56,-2.08 Z"></path></g><g transform="translate(525.2500915527344 700.6500549316406) rotate(0 114 25)"><text x="0" y="17" font-family="Virgil, Segoe UI Emoji" font-size="20px" fill="#d9480f" text-anchor="start" style="white-space: pre;" direction="ltr">accelerazione del corpo</text><text x="0" y="42" font-family="Virgil, Segoe UI Emoji" font-size="20px" fill="#d9480f" text-anchor="start" style="white-space: pre;" direction="ltr">che espelle la massa</text></g></svg>