<svg version="1.1" xmlns="http://www.w3.org/2000/svg" viewBox="0 0 10020 744.4999694824219" width="10020" height="744.4999694824219">
  <!-- svg-source:excalidraw -->
  
  <defs>
    <style>
      @font-face {
        font-family: "Virgil";
        src: url("https://excalidraw.com/Virgil.woff2");
      }
      @font-face {
        font-family: "Cascadia";
        src: url("https://excalidraw.com/Cascadia.woff2");
      }
    </style>
  </defs>
  <rect x="0" y="0" width="10020" height="744.4999694824219" fill="#fff0"></rect><g stroke-linecap="round" transform="translate(10 10) rotate(0 5000 0.5)"><path d="M-0.52 -0.26 C3022.65 -30.2, 6044.59 -29.2, 9999.32 0.22 M0.38 -0.31 C3948.03 -0.44, 7895.41 0.2, 9999.95 0.08 M10000.08 -0.06 C10000.09 0.27, 10000.05 0.48, 10000.09 0.92 M9999.97 0.01 C9999.95 0.33, 9999.98 0.72, 10000 0.99 M10000.22 1.51 C7095.77 35.76, 4193.15 34.95, -0.25 0.75 M10000.01 1.13 C7827.97 2.74, 5656.23 3.35, -0.33 0.84 M-0.04 1.01 C0 0.63, -0.06 0.15, 0.05 -0.03 M-0.04 0.95 C-0.04 0.73, -0.03 0.59, -0.05 -0.02" stroke="transparent" stroke-width="1" fill="none"></path></g><g transform="translate(649.25 563.1000061035156) rotate(0 38.399993896484375 22.800003051757812)" stroke="none"><path fill="#d9480f" d="M 1.33,-0.80 Q 1.33,-0.80 2.69,1.51 4.04,3.83 5.95,6.61 7.87,9.40 10.47,12.14 13.06,14.87 15.33,17.22 17.60,19.56 21.49,22.57 25.37,25.58 31.35,29.15 37.34,32.71 42.60,35.13 47.87,37.55 52.15,39.03 56.42,40.52 60.74,41.60 65.05,42.68 67.56,43.14 70.07,43.60 73.18,43.83 76.30,44.06 76.54,44.12 76.77,44.18 76.97,44.31 77.18,44.44 77.33,44.63 77.48,44.82 77.56,45.04 77.64,45.27 77.64,45.51 77.65,45.75 77.58,45.98 77.51,46.21 77.37,46.40 77.22,46.60 77.03,46.74 76.83,46.88 76.60,46.95 76.37,47.02 76.13,47.01 75.89,47.00 75.66,46.92 75.44,46.83 75.25,46.68 75.07,46.53 74.94,46.33 74.81,46.12 74.75,45.89 74.69,45.66 74.71,45.42 74.74,45.18 74.83,44.96 74.93,44.74 75.09,44.56 75.25,44.38 75.46,44.26 75.67,44.14 75.91,44.10 76.14,44.05 76.38,44.09 76.62,44.12 76.84,44.23 77.05,44.34 77.22,44.51 77.39,44.68 77.50,44.90 77.60,45.11 77.63,45.35 77.66,45.59 77.62,45.83 77.57,46.06 77.45,46.27 77.33,46.48 77.15,46.64 76.97,46.80 76.75,46.89 76.53,46.99 76.29,47.01 76.05,47.02 76.05,47.02 76.05,47.02 72.82,46.62 69.59,46.21 67.00,45.73 64.41,45.26 59.98,44.15 55.55,43.03 51.15,41.51 46.75,39.99 41.35,37.51 35.96,35.03 29.83,31.39 23.70,27.74 19.67,24.62 15.63,21.50 13.32,19.16 11.02,16.82 8.26,13.94 5.50,11.06 3.49,8.21 1.47,5.36 0.06,3.08 -1.33,0.80 -1.41,0.63 -1.49,0.45 -1.52,0.27 -1.55,0.08 -1.54,-0.09 -1.53,-0.28 -1.47,-0.46 -1.42,-0.64 -1.32,-0.80 -1.22,-0.96 -1.09,-1.10 -0.95,-1.23 -0.79,-1.32 -0.63,-1.42 -0.45,-1.48 -0.27,-1.53 -0.08,-1.54 0.09,-1.55 0.28,-1.52 0.46,-1.48 0.64,-1.41 0.81,-1.33 0.96,-1.21 1.10,-1.10 1.22,-0.95 1.33,-0.80 1.33,-0.80 L 1.33,-0.80 Z"></path></g><g transform="translate(644.4500122070312 565.5) rotate(0 9.20001220703125 -2.399993896484375)" stroke="none"><path fill="#d9480f" d="M -2.48,0 Q -2.48,0 -2.50,-1.16 -2.53,-2.33 -2.29,-3.43 -2.05,-4.53 -1.18,-6.02 -0.31,-7.50 1.34,-7.88 3.00,-8.25 5.65,-7.77 8.30,-7.30 9.39,-6.89 10.48,-6.49 12.24,-5.44 14.00,-4.39 16.47,-3.14 18.94,-1.88 19.31,-1.65 19.67,-1.42 19.95,-1.08 20.22,-0.74 20.37,-0.33 20.52,0.07 20.53,0.50 20.54,0.94 20.41,1.35 20.29,1.77 20.03,2.12 19.78,2.47 19.43,2.73 19.07,2.98 18.66,3.11 18.24,3.24 17.81,3.22 17.37,3.21 16.97,3.06 16.56,2.91 16.22,2.64 15.88,2.37 15.65,2.00 15.41,1.64 15.31,1.21 15.20,0.79 15.24,0.36 15.27,-0.06 15.45,-0.46 15.62,-0.86 15.91,-1.19 16.20,-1.51 16.58,-1.72 16.95,-1.94 17.38,-2.02 17.81,-2.10 18.24,-2.04 18.67,-1.98 19.06,-1.79 19.45,-1.60 19.76,-1.29 20.06,-0.98 20.26,-0.59 20.45,-0.20 20.51,0.22 20.57,0.65 20.48,1.07 20.40,1.50 20.19,1.88 19.97,2.26 19.65,2.55 19.33,2.84 18.93,3.01 18.53,3.18 18.10,3.22 17.66,3.25 17.24,3.15 16.82,3.04 16.82,3.04 16.82,3.04 14.18,1.63 11.55,0.22 10.03,-0.45 8.52,-1.14 6.80,-1.92 5.08,-2.70 3.81,-2.48 2.53,-2.26 2.50,-1.13 2.48,0 2.44,0.29 2.40,0.59 2.30,0.87 2.19,1.15 2.02,1.39 1.85,1.64 1.63,1.84 1.40,2.04 1.14,2.18 0.87,2.31 0.58,2.39 0.29,2.46 -0.00,2.46 -0.29,2.46 -0.58,2.39 -0.87,2.31 -1.14,2.17 -1.40,2.04 -1.63,1.84 -1.85,1.64 -2.02,1.39 -2.19,1.15 -2.30,0.87 -2.40,0.59 -2.44,0.29 -2.48,-0.00 -2.48,-0.00 L -2.48,0 Z"></path></g><g transform="translate(742.8500366210938 594.1000061035156) rotate(0 150.5 12.5)"><text x="0" y="18" font-family="Virgil, Segoe UI Emoji" font-size="20px" fill="#d9480f" text-anchor="start" style="white-space: pre;" direction="ltr">valido per piccoli angoli (θ&lt;10°)</text></g><g transform="translate(828.4500732421875 673.2181303604789) rotate(0 161.89999389648438 30.640919560971497)"><text x="0" y="14.427279707314327" font-family="Virgil, Segoe UI Emoji" font-size="16.562659222146756px" fill="#d9480f" text-anchor="start" style="white-space: pre;" direction="ltr">analogo all'accelerazione nell'oscillatore</text><text x="0" y="34.85455941462865" font-family="Virgil, Segoe UI Emoji" font-size="16.562659222146756px" fill="#d9480f" text-anchor="start" style="white-space: pre;" direction="ltr">armonico, ma al posto dell'estensione</text><text x="0" y="55.28183912194298" font-family="Virgil, Segoe UI Emoji" font-size="16.562659222146756px" fill="#d9480f" text-anchor="start" style="white-space: pre;" direction="ltr">abbiamo θ</text></g><g transform="translate(550.0500183105469 641.5) rotate(0 -10 23.199996948242188)" stroke="none"><path fill="#d9480f" d="M 1.83,0 Q 1.83,0 1.82,1.84 1.82,3.69 1.30,5.82 0.79,7.95 -0.17,10.46 -1.15,12.96 -2.03,15.14 -2.91,17.32 -3.76,19.40 -4.61,21.47 -5.70,23.36 -6.80,25.26 -7.66,26.94 -8.52,28.62 -9.62,30.32 -10.72,32.02 -11.34,33.05 -11.97,34.07 -12.61,35.33 -13.25,36.59 -14.01,37.89 -14.76,39.20 -15.35,40.61 -15.94,42.03 -17.14,45.17 -18.33,48.31 -18.70,48.50 -19.06,48.69 -19.47,48.75 -19.87,48.81 -20.27,48.74 -20.68,48.67 -21.04,48.48 -21.40,48.28 -21.67,47.98 -21.95,47.68 -22.12,47.31 -22.29,46.93 -22.33,46.53 -22.37,46.12 -22.28,45.72 -22.18,45.32 -21.97,44.97 -21.76,44.63 -21.44,44.36 -21.13,44.10 -20.74,43.95 -20.36,43.81 -19.95,43.79 -19.55,43.77 -19.15,43.88 -18.76,44.00 -18.42,44.23 -18.09,44.46 -17.84,44.79 -17.60,45.12 -17.47,45.51 -17.34,45.90 -17.35,46.31 -17.35,46.72 -17.49,47.10 -17.62,47.49 -17.87,47.81 -18.12,48.14 -18.46,48.36 -18.81,48.59 -19.20,48.70 -19.60,48.80 -20.01,48.77 -20.41,48.75 -20.79,48.59 -21.17,48.44 -21.48,48.17 -21.79,47.90 -22.00,47.55 -22.20,47.19 -22.29,46.79 -22.37,46.39 -22.32,45.99 -22.27,45.58 -22.10,45.21 -21.92,44.84 -21.64,44.55 -21.35,44.25 -21.35,44.25 -21.35,44.25 -21.19,43.13 -21.03,42.00 -20.39,40.76 -19.75,39.53 -18.94,38.31 -18.13,37.10 -17.32,35.91 -16.52,34.72 -15.66,33.35 -14.80,31.98 -14.05,31.16 -13.30,30.33 -12.25,28.76 -11.20,27.19 -10.27,25.49 -9.33,23.80 -8.35,22.09 -7.37,20.38 -6.59,18.30 -5.81,16.21 -5.02,14.03 -4.23,11.84 -3.43,9.49 -2.63,7.13 -2.22,5.40 -1.82,3.66 -1.82,1.83 -1.83,0 -1.80,-0.21 -1.77,-0.43 -1.70,-0.64 -1.62,-0.85 -1.49,-1.03 -1.37,-1.21 -1.20,-1.36 -1.04,-1.50 -0.84,-1.61 -0.64,-1.71 -0.43,-1.76 -0.22,-1.81 0.00,-1.81 0.22,-1.81 0.43,-1.76 0.64,-1.71 0.84,-1.61 1.04,-1.50 1.20,-1.36 1.37,-1.21 1.49,-1.03 1.62,-0.85 1.70,-0.64 1.77,-0.43 1.80,-0.21 1.83,0.00 1.83,0.00 L 1.83,0 Z"></path></g><g transform="translate(519.6499938964844 683.8999938964844) rotate(0 12.400009155273438 8)" stroke="none"><path fill="#d9480f" d="M 2.35,-0.78 Q 2.35,-0.78 2.89,1.33 3.44,3.45 3.93,5.30 4.41,7.15 5.35,8.82 6.28,10.48 6.80,11.78 7.32,13.07 8.49,12.57 9.67,12.07 11.36,11.27 13.06,10.47 14.46,9.66 15.86,8.84 17.45,8.02 19.04,7.20 21.17,5.84 23.30,4.48 23.67,4.37 24.04,4.25 24.42,4.27 24.81,4.28 25.17,4.41 25.53,4.54 25.83,4.79 26.13,5.03 26.34,5.35 26.54,5.68 26.63,6.05 26.73,6.43 26.69,6.81 26.66,7.19 26.51,7.55 26.36,7.90 26.10,8.18 25.84,8.47 25.50,8.66 25.17,8.85 24.79,8.92 24.41,8.99 24.03,8.94 23.65,8.88 23.31,8.71 22.96,8.54 22.69,8.27 22.42,7.99 22.25,7.65 22.08,7.30 22.03,6.92 21.98,6.54 22.05,6.16 22.12,5.79 22.31,5.45 22.50,5.12 22.79,4.86 23.08,4.60 23.43,4.45 23.79,4.30 24.17,4.27 24.55,4.24 24.93,4.34 25.30,4.43 25.62,4.64 25.95,4.85 26.19,5.15 26.43,5.45 26.56,5.81 26.69,6.17 26.70,6.56 26.71,6.94 26.60,7.31 26.48,7.68 26.26,7.99 26.03,8.30 25.72,8.52 25.41,8.75 25.41,8.75 25.41,8.75 23.32,9.99 21.24,11.24 19.79,12.07 18.34,12.91 16.90,13.83 15.46,14.75 13.72,15.87 11.99,16.98 9.93,17.69 7.86,18.39 6.57,17.80 5.28,17.22 4.04,15.72 2.79,14.23 2.05,12.44 1.31,10.64 0.87,9.48 0.43,8.32 -0.12,6.57 -0.68,4.82 -1.51,2.80 -2.35,0.78 -2.41,0.49 -2.47,0.19 -2.45,-0.10 -2.44,-0.39 -2.36,-0.68 -2.27,-0.97 -2.13,-1.23 -1.98,-1.48 -1.77,-1.70 -1.56,-1.92 -1.31,-2.08 -1.06,-2.23 -0.77,-2.33 -0.49,-2.42 -0.19,-2.45 0.10,-2.47 0.39,-2.42 0.69,-2.38 0.96,-2.26 1.24,-2.14 1.47,-1.96 1.71,-1.78 1.90,-1.55 2.09,-1.32 2.22,-1.05 2.35,-0.78 2.35,-0.78 L 2.35,-0.78 Z"></path></g><g transform="translate(747.6500244140625 722.2999877929688) rotate(0 7.199981689453125 -5.5999908447265625)" stroke="none"><path fill="#d9480f" d="M -1.12,-1.80 Q -1.12,-1.80 0.76,-2.86 2.66,-3.91 4.31,-5.19 5.96,-6.46 7.35,-7.72 8.74,-8.98 10.74,-10.56 12.73,-12.14 12.97,-12.31 13.21,-12.49 13.50,-12.58 13.78,-12.67 14.08,-12.67 14.38,-12.66 14.66,-12.56 14.94,-12.46 15.18,-12.28 15.41,-12.09 15.58,-11.84 15.74,-11.59 15.82,-11.30 15.89,-11.01 15.87,-10.71 15.85,-10.42 15.73,-10.14 15.62,-9.86 15.42,-9.64 15.22,-9.41 14.97,-9.26 14.71,-9.11 14.41,-9.05 14.12,-8.99 13.82,-9.03 13.53,-9.07 13.26,-9.20 12.99,-9.33 12.77,-9.54 12.56,-9.75 12.42,-10.01 12.29,-10.28 12.24,-10.58 12.20,-10.87 12.25,-11.17 12.31,-11.46 12.45,-11.72 12.60,-11.99 12.82,-12.19 13.04,-12.39 13.31,-12.51 13.59,-12.63 13.88,-12.66 14.18,-12.69 14.47,-12.62 14.76,-12.55 15.02,-12.39 15.27,-12.23 15.46,-12.00 15.65,-11.77 15.76,-11.49 15.86,-11.21 15.87,-10.91 15.89,-10.61 15.80,-10.33 15.72,-10.04 15.54,-9.79 15.37,-9.55 15.37,-9.55 15.37,-9.55 13.22,-7.98 11.07,-6.40 9.63,-5.08 8.20,-3.76 6.44,-2.22 4.69,-0.68 2.91,0.56 1.12,1.80 0.89,1.91 0.66,2.02 0.41,2.07 0.15,2.12 -0.09,2.10 -0.35,2.09 -0.59,2.02 -0.84,1.95 -1.06,1.82 -1.28,1.69 -1.47,1.51 -1.65,1.33 -1.79,1.11 -1.92,0.90 -2.00,0.65 -2.08,0.41 -2.10,0.15 -2.12,-0.09 -2.08,-0.34 -2.03,-0.60 -1.93,-0.83 -1.83,-1.07 -1.68,-1.27 -1.52,-1.48 -1.32,-1.64 -1.12,-1.80 -1.12,-1.80 L -1.12,-1.80 Z"></path></g><g transform="translate(746.0499877929688 721.5) rotate(0 6 4.8000030517578125)" stroke="none"><path fill="#d9480f" d="M 1.48,-1.69 Q 1.48,-1.69 3.24,0.00 5.00,1.71 6.45,3.15 7.90,4.59 8.95,5.29 10.00,5.98 11.27,6.77 12.55,7.55 12.83,7.74 13.11,7.93 13.31,8.20 13.51,8.47 13.62,8.79 13.73,9.11 13.73,9.45 13.72,9.79 13.62,10.11 13.51,10.43 13.30,10.69 13.10,10.96 12.82,11.15 12.53,11.34 12.21,11.43 11.88,11.52 11.55,11.50 11.21,11.48 10.90,11.35 10.58,11.23 10.33,11.01 10.07,10.79 9.90,10.50 9.72,10.21 9.65,9.88 9.58,9.55 9.62,9.21 9.66,8.87 9.80,8.57 9.94,8.26 10.18,8.02 10.41,7.77 10.71,7.62 11.01,7.46 11.34,7.41 11.67,7.35 12.01,7.41 12.34,7.47 12.64,7.63 12.94,7.78 13.17,8.03 13.40,8.28 13.54,8.58 13.68,8.89 13.71,9.23 13.75,9.56 13.68,9.89 13.60,10.22 13.43,10.51 13.25,10.80 12.99,11.02 12.73,11.23 12.42,11.36 12.11,11.48 11.77,11.50 11.43,11.52 11.11,11.42 10.78,11.33 10.78,11.33 10.78,11.33 9.18,10.27 7.58,9.20 6.46,8.27 5.34,7.34 3.85,6.03 2.35,4.72 0.43,3.21 -1.48,1.69 -1.66,1.49 -1.84,1.29 -1.97,1.05 -2.10,0.81 -2.16,0.54 -2.23,0.28 -2.23,0.01 -2.23,-0.25 -2.17,-0.52 -2.11,-0.78 -1.98,-1.02 -1.86,-1.26 -1.68,-1.47 -1.50,-1.67 -1.28,-1.83 -1.05,-1.98 -0.80,-2.08 -0.55,-2.18 -0.28,-2.21 -0.01,-2.25 0.25,-2.22 0.52,-2.18 0.77,-2.09 1.03,-2.00 1.25,-1.84 1.48,-1.69 1.48,-1.69 L 1.48,-1.69 Z"></path></g><g transform="translate(750.8500366210938 719.8999938964844) rotate(0 36 -7.199981689453125)" stroke="none"><path fill="#d9480f" d="M 0.29,-2.05 Q 0.29,-2.05 1.90,-1.83 3.51,-1.61 4.60,-1.58 5.69,-1.55 7.49,-1.46 9.28,-1.37 11.21,-1.29 13.14,-1.22 14.75,-1.43 16.36,-1.63 18.81,-2.30 21.25,-2.96 22.75,-3.54 24.26,-4.12 25.60,-4.65 26.94,-5.18 28.36,-5.83 29.77,-6.47 31.12,-7.04 32.48,-7.61 34.48,-8.22 36.48,-8.82 38.18,-9.52 39.87,-10.22 41.03,-10.82 42.18,-11.42 43.71,-11.96 45.24,-12.50 47.34,-12.88 49.45,-13.25 51.47,-13.61 53.48,-13.96 55.34,-14.16 57.20,-14.36 58.53,-14.71 59.86,-15.05 61.26,-15.26 62.66,-15.47 64.23,-16.00 65.80,-16.52 68.70,-17.14 71.60,-17.77 72.02,-17.72 72.43,-17.67 72.81,-17.49 73.19,-17.31 73.49,-17.02 73.79,-16.73 73.98,-16.35 74.18,-15.98 74.24,-15.57 74.30,-15.15 74.23,-14.74 74.16,-14.33 73.96,-13.96 73.76,-13.60 73.45,-13.31 73.14,-13.03 72.76,-12.85 72.38,-12.68 71.96,-12.64 71.55,-12.60 71.14,-12.70 70.73,-12.79 70.38,-13.01 70.02,-13.23 69.75,-13.55 69.48,-13.87 69.33,-14.26 69.18,-14.65 69.16,-15.07 69.15,-15.49 69.26,-15.89 69.38,-16.29 69.62,-16.64 69.86,-16.98 70.19,-17.23 70.53,-17.48 70.93,-17.61 71.32,-17.74 71.74,-17.74 72.16,-17.73 72.56,-17.59 72.95,-17.45 73.28,-17.20 73.61,-16.94 73.84,-16.59 74.07,-16.24 74.18,-15.84 74.29,-15.43 74.26,-15.02 74.24,-14.60 74.08,-14.21 73.92,-13.82 73.64,-13.51 73.37,-13.19 73.01,-12.98 72.65,-12.77 72.24,-12.68 71.83,-12.60 71.83,-12.60 71.83,-12.60 70.58,-12.59 69.33,-12.59 67.41,-12.21 65.50,-11.84 64.29,-11.59 63.08,-11.34 61.87,-11.29 60.67,-11.24 59.11,-10.97 57.56,-10.71 55.89,-10.56 54.21,-10.41 52.24,-9.94 50.26,-9.48 48.39,-9.00 46.52,-8.52 45.19,-8.14 43.85,-7.75 42.60,-7.25 41.36,-6.76 39.56,-5.96 37.76,-5.16 35.88,-4.42 34.00,-3.67 32.70,-3.22 31.40,-2.77 29.83,-2.09 28.25,-1.42 26.89,-1.01 25.53,-0.60 23.92,-0.05 22.30,0.48 19.59,1.39 16.87,2.29 14.99,2.53 13.11,2.77 11.15,2.81 9.19,2.85 7.25,2.86 5.31,2.86 4.12,2.70 2.92,2.53 1.31,2.29 -0.29,2.05 -0.53,1.99 -0.77,1.92 -0.99,1.80 -1.21,1.68 -1.39,1.51 -1.58,1.34 -1.72,1.13 -1.85,0.92 -1.94,0.69 -2.02,0.45 -2.05,0.20 -2.07,-0.04 -2.04,-0.29 -2.00,-0.53 -1.91,-0.77 -1.81,-1.00 -1.67,-1.20 -1.52,-1.40 -1.33,-1.57 -1.14,-1.73 -0.91,-1.84 -0.69,-1.95 -0.45,-2.01 -0.20,-2.06 0.04,-2.06 0.29,-2.05 0.29,-2.05 L 0.29,-2.05 Z"></path></g><g transform="translate(619.6500244140625 643.8999938964844) rotate(0 30 23.199996948242188)" stroke="none"><path fill="#d9480f" d="M 2.32,-0.51 Q 2.32,-0.51 2.64,1.58 2.97,3.68 3.54,5.36 4.11,7.05 4.65,8.21 5.20,9.37 5.86,10.76 6.53,12.16 7.75,13.86 8.96,15.57 9.69,16.65 10.42,17.73 11.84,18.58 13.27,19.43 15.67,20.78 18.07,22.13 19.59,23.01 21.12,23.89 23.60,24.80 26.07,25.70 27.31,26.16 28.55,26.61 30.41,27.38 32.26,28.15 33.61,28.38 34.97,28.61 36.39,28.95 37.81,29.28 39.43,29.95 41.05,30.61 42.80,31.39 44.55,32.17 46.15,32.70 47.75,33.23 48.86,33.67 49.97,34.12 51.72,34.86 53.47,35.60 55.31,37.16 57.15,38.73 58.07,39.60 58.98,40.47 60.49,42.67 62.01,44.88 62.13,45.26 62.24,45.64 62.23,46.04 62.22,46.45 62.08,46.82 61.95,47.20 61.70,47.51 61.44,47.82 61.11,48.04 60.77,48.26 60.38,48.35 59.99,48.45 59.59,48.42 59.19,48.38 58.82,48.23 58.46,48.07 58.16,47.80 57.86,47.53 57.66,47.18 57.46,46.84 57.39,46.44 57.31,46.05 57.37,45.65 57.42,45.25 57.60,44.90 57.78,44.54 58.06,44.25 58.34,43.97 58.70,43.79 59.06,43.61 59.46,43.56 59.85,43.50 60.25,43.58 60.64,43.65 60.99,43.85 61.34,44.05 61.61,44.35 61.88,44.64 62.03,45.01 62.19,45.38 62.23,45.78 62.26,46.18 62.16,46.57 62.07,46.96 61.85,47.30 61.63,47.63 61.32,47.89 61.01,48.14 60.63,48.27 60.26,48.41 59.86,48.42 59.46,48.44 59.07,48.32 58.69,48.20 58.36,47.97 58.04,47.73 57.80,47.41 57.57,47.08 57.57,47.08 57.57,47.08 57.10,45.94 56.64,44.79 55.58,43.47 54.52,42.15 52.10,40.61 49.69,39.07 48.08,38.12 46.48,37.18 44.73,36.64 42.97,36.09 41.16,35.44 39.34,34.78 37.99,34.23 36.65,33.67 35.40,33.31 34.16,32.94 32.50,32.60 30.84,32.27 28.83,31.70 26.83,31.13 25.50,30.60 24.17,30.07 22.88,29.51 21.59,28.95 20.27,28.47 18.96,27.99 17.30,27.19 15.63,26.38 14.07,25.58 12.51,24.78 10.62,23.49 8.73,22.20 7.64,21.35 6.56,20.50 5.79,19.31 5.02,18.13 4.35,17.03 3.69,15.94 3.18,14.96 2.66,13.98 1.98,12.49 1.29,11.00 0.82,9.71 0.35,8.42 -0.39,6.51 -1.13,4.59 -1.72,2.55 -2.32,0.51 -2.35,0.23 -2.37,-0.05 -2.33,-0.33 -2.29,-0.62 -2.18,-0.88 -2.08,-1.15 -1.91,-1.38 -1.74,-1.61 -1.52,-1.80 -1.30,-1.98 -1.04,-2.11 -0.79,-2.24 -0.51,-2.30 -0.23,-2.36 0.05,-2.36 0.34,-2.35 0.61,-2.27 0.89,-2.20 1.14,-2.06 1.39,-1.92 1.60,-1.73 1.81,-1.53 1.97,-1.29 2.13,-1.05 2.22,-0.78 2.32,-0.51 2.32,-0.51 L 2.32,-0.51 Z"></path></g><g transform="translate(672.4500122070312 692.7000122070312) rotate(0 8.399993896484375 -1.20001220703125)" stroke="none"><path fill="#d9480f" d="M 1.02,-2.38 Q 1.02,-2.38 2.60,-1.62 4.18,-0.87 5.51,-0.36 6.83,0.13 8.51,0.60 10.18,1.07 11.78,1.09 13.37,1.11 13.55,-0.58 13.74,-2.28 13.74,-4.20 13.73,-6.11 13.81,-6.60 13.89,-7.09 14.13,-7.53 14.36,-7.97 14.72,-8.30 15.08,-8.64 15.53,-8.85 15.98,-9.06 16.47,-9.11 16.97,-9.16 17.45,-9.06 17.93,-8.95 18.36,-8.69 18.78,-8.44 19.10,-8.06 19.42,-7.68 19.60,-7.22 19.79,-6.76 19.81,-6.26 19.84,-5.77 19.70,-5.29 19.57,-4.81 19.29,-4.40 19.01,-3.99 18.62,-3.70 18.22,-3.40 17.75,-3.24 17.28,-3.08 16.79,-3.08 16.29,-3.09 15.82,-3.24 15.35,-3.40 14.96,-3.70 14.57,-4.01 14.29,-4.42 14.01,-4.83 13.88,-5.30 13.75,-5.78 13.78,-6.28 13.81,-6.77 13.99,-7.23 14.17,-7.69 14.50,-8.07 14.82,-8.45 15.24,-8.70 15.67,-8.95 16.15,-9.06 16.64,-9.16 17.13,-9.11 17.62,-9.05 18.07,-8.85 18.52,-8.64 18.88,-8.29 19.24,-7.95 19.47,-7.51 19.70,-7.08 19.78,-6.59 19.86,-6.10 19.86,-6.10 19.86,-6.10 19.83,-4.16 19.81,-2.21 19.81,-1.01 19.81,0.19 19.78,1.52 19.75,2.84 19.38,4.04 19.01,5.23 18.03,5.90 17.06,6.57 15.69,6.73 14.32,6.89 12.92,6.79 11.52,6.69 9.87,6.32 8.22,5.96 6.66,5.33 5.09,4.71 3.67,4.17 2.25,3.63 0.61,3.00 -1.02,2.38 -1.29,2.22 -1.56,2.06 -1.78,1.85 -2.01,1.63 -2.17,1.36 -2.34,1.10 -2.44,0.80 -2.53,0.51 -2.56,0.20 -2.58,-0.10 -2.53,-0.41 -2.48,-0.72 -2.36,-1.01 -2.24,-1.30 -2.05,-1.54 -1.86,-1.79 -1.62,-1.99 -1.37,-2.19 -1.09,-2.32 -0.81,-2.45 -0.50,-2.52 -0.20,-2.58 0.10,-2.56 0.42,-2.55 0.72,-2.46 1.02,-2.38 1.02,-2.38 L 1.02,-2.38 Z"></path></g><g transform="translate(662.8500366210938 621.5) rotate(0 29.199981689453125 37.19999694824219)" stroke="none"><path fill="#1864ab" d="M 0.78,-1.96 Q 0.78,-1.96 1.95,-1.55 3.12,-1.14 4.75,-0.45 6.39,0.23 8.60,1.86 10.82,3.49 12.91,4.55 15.01,5.62 16.77,6.86 18.52,8.10 19.69,8.73 20.86,9.35 22.81,10.80 24.77,12.26 26.05,13.31 27.33,14.35 28.43,15.28 29.53,16.20 30.74,17.63 31.96,19.05 33.23,20.23 34.49,21.42 35.94,22.64 37.38,23.87 38.70,24.82 40.02,25.76 41.24,27.28 42.47,28.80 43.55,29.99 44.63,31.19 45.73,32.07 46.83,32.96 47.79,34.26 48.74,35.56 49.67,36.60 50.59,37.64 51.54,38.87 52.49,40.11 53.55,42.44 54.60,44.77 55.46,46.62 56.31,48.47 57.15,49.87 57.99,51.28 58.66,52.35 59.33,53.43 59.75,54.83 60.16,56.23 60.35,57.28 60.54,58.33 60.72,60.12 60.90,61.91 61.00,63.55 61.10,65.19 61.07,66.69 61.04,68.19 61.10,71.14 61.16,74.09 61.08,74.54 61.01,74.98 60.80,75.37 60.59,75.77 60.27,76.07 59.94,76.38 59.54,76.57 59.13,76.76 58.69,76.80 58.25,76.85 57.81,76.76 57.37,76.66 56.99,76.43 56.61,76.20 56.32,75.86 56.03,75.52 55.86,75.10 55.70,74.69 55.67,74.24 55.65,73.80 55.77,73.37 55.89,72.94 56.14,72.57 56.39,72.20 56.75,71.93 57.10,71.66 57.53,71.51 57.95,71.37 58.40,71.37 58.84,71.37 59.26,71.51 59.69,71.66 60.04,71.93 60.40,72.20 60.65,72.57 60.90,72.94 61.02,73.37 61.14,73.80 61.12,74.24 61.09,74.69 60.93,75.10 60.76,75.52 60.47,75.86 60.18,76.20 59.80,76.43 59.42,76.66 58.98,76.76 58.54,76.85 58.10,76.80 57.66,76.76 57.25,76.57 56.85,76.38 56.52,76.07 56.20,75.77 55.99,75.37 55.78,74.98 55.71,74.54 55.63,74.09 55.63,74.10 55.63,74.10 55.69,71.14 55.75,68.19 55.71,66.70 55.68,65.22 55.76,63.62 55.83,62.03 55.88,60.44 55.94,58.85 55.82,57.10 55.71,55.36 55.20,54.27 54.69,53.19 53.83,51.67 52.98,50.14 52.01,48.36 51.03,46.57 49.96,44.68 48.89,42.78 48.07,41.65 47.24,40.51 45.67,38.30 44.10,36.09 42.87,34.99 41.63,33.89 40.46,32.56 39.29,31.24 38.46,30.09 37.63,28.94 36.28,27.92 34.93,26.91 33.34,25.70 31.76,24.49 30.23,23.18 28.70,21.86 27.65,20.67 26.61,19.47 25.65,18.56 24.68,17.65 23.28,16.53 21.87,15.42 20.38,13.97 18.90,12.53 17.74,11.72 16.58,10.91 15.04,9.86 13.49,8.82 11.06,7.75 8.63,6.68 6.70,5.45 4.76,4.23 3.11,3.60 1.47,2.98 0.34,2.47 -0.78,1.96 -1.00,1.84 -1.23,1.71 -1.42,1.54 -1.60,1.37 -1.74,1.16 -1.89,0.94 -1.97,0.70 -2.06,0.46 -2.08,0.21 -2.11,-0.03 -2.07,-0.29 -2.04,-0.54 -1.94,-0.77 -1.85,-1.01 -1.70,-1.22 -1.55,-1.43 -1.36,-1.59 -1.16,-1.76 -0.94,-1.87 -0.71,-1.99 -0.46,-2.04 -0.21,-2.10 0.03,-2.09 0.29,-2.09 0.53,-2.02 0.78,-1.96 0.78,-1.96 L 0.78,-1.96 Z"></path></g><g transform="translate(714.8500366210938 693.5) rotate(0 8 4.4000091552734375)" stroke="none"><path fill="#1864ab" d="M 2.35,-1.01 Q 2.35,-1.01 2.98,0.62 3.61,2.26 3.99,3.26 4.37,4.27 5.20,5.57 6.03,6.86 6.46,5.69 6.89,4.51 8.08,3.71 9.26,2.91 10.58,1.43 11.90,-0.03 12.54,-0.93 13.17,-1.84 13.45,-2.23 13.73,-2.62 14.13,-2.90 14.52,-3.19 14.99,-3.33 15.45,-3.47 15.93,-3.45 16.42,-3.44 16.87,-3.27 17.33,-3.10 17.71,-2.80 18.08,-2.49 18.34,-2.08 18.60,-1.67 18.72,-1.20 18.83,-0.73 18.79,-0.25 18.75,0.23 18.56,0.67 18.37,1.11 18.04,1.47 17.72,1.83 17.29,2.07 16.87,2.31 16.39,2.40 15.92,2.49 15.44,2.42 14.96,2.35 14.52,2.14 14.09,1.92 13.75,1.58 13.41,1.23 13.19,0.80 12.98,0.36 12.91,-0.11 12.85,-0.59 12.94,-1.06 13.04,-1.54 13.28,-1.96 13.52,-2.38 13.88,-2.70 14.24,-3.03 14.69,-3.22 15.13,-3.41 15.62,-3.44 16.10,-3.48 16.57,-3.36 17.04,-3.25 17.45,-2.98 17.85,-2.72 18.16,-2.34 18.46,-1.96 18.62,-1.51 18.79,-1.05 18.80,-0.57 18.81,-0.08 18.67,0.37 18.53,0.83 18.53,0.83 18.53,0.83 17.36,2.43 16.20,4.04 15.47,4.81 14.74,5.59 13.78,6.63 12.82,7.67 11.30,8.76 9.79,9.85 8.48,10.78 7.18,11.72 6.04,11.88 4.90,12.05 3.82,11.39 2.73,10.73 1.52,9.28 0.31,7.82 -0.27,6.00 -0.85,4.17 -1.60,2.59 -2.35,1.01 -2.44,0.71 -2.53,0.41 -2.54,0.10 -2.55,-0.20 -2.49,-0.50 -2.43,-0.80 -2.30,-1.08 -2.17,-1.36 -1.97,-1.60 -1.78,-1.84 -1.53,-2.03 -1.28,-2.21 -1.00,-2.34 -0.71,-2.46 -0.41,-2.51 -0.10,-2.56 0.19,-2.53 0.50,-2.51 0.80,-2.41 1.09,-2.31 1.35,-2.15 1.61,-1.98 1.83,-1.76 2.04,-1.54 2.20,-1.27 2.35,-1.00 2.35,-1.01 L 2.35,-1.01 Z"></path></g></svg>