<svg version="1.1" xmlns="http://www.w3.org/2000/svg" viewBox="0 0 10020 835.1750030517578" width="10020" height="835.1750030517578">
  <!-- svg-source:excalidraw -->
  
  <defs>
    <style>
      @font-face {
        font-family: "Virgil";
        src: url("https://excalidraw.com/Virgil.woff2");
      }
      @font-face {
        font-family: "Cascadia";
        src: url("https://excalidraw.com/Cascadia.woff2");
      }
    </style>
  </defs>
  <rect x="0" y="0" width="10020" height="835.1750030517578" fill="#fff0"></rect><g stroke-linecap="round" transform="translate(10 10) rotate(0 5000 0.5)"><path d="M-0.52 -0.26 C3022.65 -30.2, 6044.59 -29.2, 9999.32 0.22 M0.38 -0.31 C3948.03 -0.44, 7895.41 0.2, 9999.95 0.08 M10000.08 -0.06 C10000.09 0.27, 10000.05 0.48, 10000.09 0.92 M9999.97 0.01 C9999.95 0.33, 9999.98 0.72, 10000 0.99 M10000.22 1.51 C7095.77 35.76, 4193.15 34.95, -0.25 0.75 M10000.01 1.13 C7827.97 2.74, 5656.23 3.35, -0.33 0.84 M-0.04 1.01 C0 0.63, -0.06 0.15, 0.05 -0.03 M-0.04 0.95 C-0.04 0.73, -0.03 0.59, -0.05 -0.02" stroke="transparent" stroke-width="1" fill="none"></path></g><g stroke-linecap="round"><g transform="translate(737.5499877929688 799.5750274658203) rotate(0 0 -21.600006103515625)"><path d="M0.96 -0.43 C1.14 -7.79, 0.14 -35.97, 0.1 -43.22 M0 -1.7 C0.13 -8.94, -0.85 -34.82, -0.79 -41.69" stroke="#d9480f" stroke-width="1" fill="none"></path></g><g transform="translate(737.5499877929688 799.5750274658203) rotate(0 0 -21.600006103515625)"><path d="M6.22 -21.35 C5.06 -24.64, 2.27 -32.15, -1.01 -42.65 M6.59 -22.31 C4.15 -29.87, 0.64 -36.12, -1.22 -40.84" stroke="#d9480f" stroke-width="1" fill="none"></path></g><g transform="translate(737.5499877929688 799.5750274658203) rotate(0 0 -21.600006103515625)"><path d="M-8.56 -21.11 C-6.51 -24.56, -6.11 -32.13, -1.01 -42.65 M-8.19 -22.06 C-4.97 -29.62, -2.83 -35.96, -1.22 -40.84" stroke="#d9480f" stroke-width="1" fill="none"></path></g></g><g transform="translate(705.1500244140625 800.1750030517578) rotate(0 31 12.5)"><text x="0" y="18" font-family="Virgil, Segoe UI Emoji" font-size="20px" fill="#d9480f" text-anchor="start" style="white-space: pre;" direction="ltr">spazio</text></g><g stroke-linecap="round"><g transform="translate(859.1500244140625 784.3750152587891) rotate(0 -16.800018310546875 -10.800003051757812)"><path d="M1.06 -0.18 C-4.68 -3.47, -28.29 -17.08, -34.09 -20.52 M0.16 -1.33 C-5.81 -4.85, -29.51 -18.5, -35.3 -22.07" stroke="#1864ab" stroke-width="1" fill="none"></path></g><g transform="translate(859.1500244140625 784.3750152587891) rotate(0 -16.800018310546875 -10.800003051757812)"><path d="M-15.98 -19.18 C-20.28 -19.62, -27.25 -18.68, -35.35 -22.05 M-15.74 -18.63 C-20.69 -19.52, -26.83 -19.26, -36.07 -21.64" stroke="#1864ab" stroke-width="1" fill="none"></path></g><g transform="translate(859.1500244140625 784.3750152587891) rotate(0 -16.800018310546875 -10.800003051757812)"><path d="M-22.95 -7.44 C-24.89 -11.79, -29.57 -14.71, -35.35 -22.05 M-22.71 -6.89 C-25.68 -11.08, -29.9 -14.07, -36.07 -21.64" stroke="#1864ab" stroke-width="1" fill="none"></path></g></g><g transform="translate(866.3500366210938 776.1750030517578) rotate(0 28.5 12.5)"><text x="0" y="18" font-family="Virgil, Segoe UI Emoji" font-size="20px" fill="#1864ab" text-anchor="start" style="white-space: pre;" direction="ltr">tempo</text></g></svg>