<svg version="1.1" xmlns="http://www.w3.org/2000/svg" viewBox="0 0 10020 715.4375305175781" width="10020" height="715.4375305175781">
  <!-- svg-source:excalidraw -->
  
  <defs>
    <style>
      @font-face {
        font-family: "Virgil";
        src: url("https://excalidraw.com/Virgil.woff2");
      }
      @font-face {
        font-family: "Cascadia";
        src: url("https://excalidraw.com/Cascadia.woff2");
      }
    </style>
  </defs>
  <rect x="0" y="0" width="10020" height="715.4375305175781" fill="#fff0"></rect><g stroke-linecap="round" transform="translate(10 10) rotate(0 5000 0.5)"><path d="M-0.52 -0.26 C3022.65 -30.2, 6044.59 -29.2, 9999.32 0.22 M0.38 -0.31 C3948.03 -0.44, 7895.41 0.2, 9999.95 0.08 M10000.08 -0.06 C10000.09 0.27, 10000.05 0.48, 10000.09 0.92 M9999.97 0.01 C9999.95 0.33, 9999.98 0.72, 10000 0.99 M10000.22 1.51 C7095.77 35.76, 4193.15 34.95, -0.25 0.75 M10000.01 1.13 C7827.97 2.74, 5656.23 3.35, -0.33 0.84 M-0.04 1.01 C0 0.63, -0.06 0.15, 0.05 -0.03 M-0.04 0.95 C-0.04 0.73, -0.03 0.59, -0.05 -0.02" stroke="transparent" stroke-width="1" fill="none"></path></g><g transform="translate(519.1499938964844 606.2374877929688) rotate(0 13.600006103515625 34.40000915527344)" stroke="none"><path fill="#1864ab" d="M 1.77,-0.29 Q 1.77,-0.29 2.07,1.07 2.37,2.44 2.52,4.04 2.67,5.63 2.97,6.82 3.28,8.00 3.52,10.24 3.77,12.48 4.07,14.55 4.37,16.61 4.91,18.82 5.46,21.02 5.99,22.64 6.52,24.26 7.35,26.78 8.18,29.30 8.98,31.53 9.78,33.76 10.79,36.31 11.81,38.86 13.14,41.76 14.47,44.66 16.16,47.71 17.86,50.75 19.72,53.89 21.59,57.03 22.85,59.31 24.11,61.59 25.30,63.16 26.49,64.73 27.35,66.09 28.22,67.45 28.30,67.69 28.39,67.92 28.40,68.18 28.40,68.43 28.33,68.66 28.25,68.90 28.10,69.11 27.96,69.31 27.75,69.45 27.55,69.60 27.31,69.67 27.07,69.74 26.82,69.74 26.57,69.73 26.33,69.64 26.10,69.55 25.91,69.40 25.71,69.24 25.58,69.03 25.44,68.82 25.38,68.57 25.32,68.33 25.35,68.08 25.37,67.83 25.47,67.60 25.57,67.37 25.74,67.18 25.90,67.00 26.12,66.88 26.34,66.75 26.59,66.71 26.83,66.66 27.08,66.70 27.33,66.73 27.55,66.84 27.78,66.96 27.95,67.13 28.13,67.31 28.24,67.54 28.35,67.76 28.38,68.01 28.42,68.26 28.37,68.50 28.32,68.75 28.19,68.97 28.07,69.19 27.88,69.35 27.70,69.52 27.46,69.62 27.23,69.71 26.98,69.73 26.73,69.75 26.49,69.69 26.25,69.63 26.04,69.49 25.83,69.36 25.67,69.16 25.52,68.97 25.52,68.97 25.52,68.97 24.90,67.67 24.28,66.38 23.01,64.65 21.75,62.92 20.49,60.68 19.23,58.44 17.32,55.28 15.42,52.12 13.65,49.00 11.88,45.87 10.48,42.92 9.08,39.97 8.00,37.41 6.92,34.84 6.03,32.61 5.15,30.38 4.18,27.81 3.22,25.25 2.76,23.57 2.30,21.88 1.60,19.56 0.91,17.24 0.45,15.16 0.00,13.08 -0.44,10.97 -0.88,8.85 -1.12,7.38 -1.36,5.90 -1.40,4.49 -1.45,3.07 -1.61,1.68 -1.77,0.29 -1.78,0.07 -1.79,-0.13 -1.75,-0.35 -1.71,-0.56 -1.61,-0.75 -1.52,-0.95 -1.38,-1.12 -1.25,-1.29 -1.07,-1.42 -0.90,-1.55 -0.70,-1.64 -0.50,-1.72 -0.29,-1.76 -0.07,-1.79 0.13,-1.78 0.35,-1.76 0.55,-1.69 0.76,-1.63 0.94,-1.51 1.13,-1.39 1.28,-1.24 1.43,-1.08 1.54,-0.90 1.65,-0.71 1.71,-0.50 1.77,-0.29 1.77,-0.29 L 1.77,-0.29 Z"></path></g><g transform="translate(515.9500122070312 610.2374877929688) rotate(0 4 -5.1999969482421875)" stroke="none"><path fill="#1864ab" d="M -2.58,-0.51 Q -2.58,-0.51 -2.36,-1.67 -2.15,-2.84 -1.49,-4.31 -0.84,-5.78 -0.67,-7.04 -0.51,-8.30 -0.15,-9.37 0.20,-10.44 0.90,-11.30 1.61,-12.15 2.73,-12.57 3.85,-12.98 5.06,-12.79 6.26,-12.60 8.21,-10.22 10.16,-7.84 10.41,-7.41 10.66,-6.97 10.77,-6.48 10.87,-5.99 10.80,-5.49 10.74,-5.00 10.53,-4.54 10.31,-4.09 9.96,-3.73 9.61,-3.37 9.16,-3.15 8.72,-2.92 8.22,-2.84 7.73,-2.77 7.23,-2.86 6.74,-2.95 6.30,-3.19 5.86,-3.43 5.52,-3.80 5.18,-4.17 4.98,-4.62 4.77,-5.08 4.73,-5.58 4.68,-6.08 4.79,-6.57 4.91,-7.06 5.17,-7.48 5.44,-7.91 5.82,-8.23 6.21,-8.55 6.68,-8.72 7.15,-8.90 7.65,-8.92 8.15,-8.94 8.63,-8.80 9.11,-8.66 9.52,-8.37 9.93,-8.09 10.23,-7.68 10.53,-7.28 10.68,-6.80 10.83,-6.32 10.83,-5.82 10.82,-5.32 10.65,-4.85 10.49,-4.38 10.18,-3.98 9.87,-3.59 9.45,-3.31 9.03,-3.04 8.54,-2.91 8.06,-2.78 7.56,-2.82 7.06,-2.85 6.60,-3.04 6.13,-3.24 5.76,-3.57 5.38,-3.90 5.38,-3.90 5.38,-3.90 5.38,-6.04 5.39,-8.19 5.04,-7.05 4.69,-5.92 3.88,-3.84 3.07,-1.75 2.82,-0.62 2.58,0.51 2.48,0.81 2.38,1.12 2.21,1.38 2.04,1.65 1.81,1.87 1.59,2.10 1.31,2.26 1.04,2.42 0.73,2.51 0.43,2.59 0.11,2.61 -0.20,2.62 -0.51,2.56 -0.82,2.50 -1.11,2.36 -1.39,2.23 -1.64,2.03 -1.89,1.83 -2.08,1.57 -2.27,1.32 -2.40,1.03 -2.52,0.74 -2.58,0.42 -2.63,0.11 -2.60,-0.20 -2.58,-0.51 -2.58,-0.51 L -2.58,-0.51 Z"></path></g><g transform="translate(519.1499938964844 680.4375305175781) rotate(0 73.5 12.5)"><text x="0" y="18" font-family="Virgil, Segoe UI Emoji" font-size="20px" fill="#1864ab" text-anchor="start" style="white-space: pre;" direction="ltr">Attrito interno</text></g><g transform="translate(698.3500366210938 651.8374938964844) rotate(0 -50.4000244140625 -22.800003051757812)" stroke="none"><path fill="#d9480f" d="M 0,1.56 Q 0,1.56 -2.07,1.54 -4.14,1.52 -6.39,1.49 -8.65,1.46 -11.22,1.44 -13.80,1.42 -17.19,1.41 -20.58,1.39 -25.73,1.15 -30.89,0.91 -35.64,0.34 -40.40,-0.22 -44.50,-0.93 -48.60,-1.64 -52.16,-2.17 -55.71,-2.70 -59.84,-3.86 -63.97,-5.02 -66.82,-5.74 -69.67,-6.45 -71.81,-6.99 -73.95,-7.52 -75.87,-8.20 -77.78,-8.87 -79.46,-9.32 -81.14,-9.77 -82.52,-10.44 -83.91,-11.10 -85.05,-11.50 -86.19,-11.90 -87.77,-12.77 -89.36,-13.64 -90.27,-14.65 -91.19,-15.67 -92.18,-16.98 -93.16,-18.30 -94.09,-19.89 -95.01,-21.48 -95.80,-22.45 -96.60,-23.42 -97.16,-24.59 -97.72,-25.77 -98.45,-27.19 -99.18,-28.61 -99.82,-30.04 -100.46,-31.47 -100.99,-32.78 -101.51,-34.09 -101.98,-35.33 -102.44,-36.58 -102.72,-37.73 -103.00,-38.88 -103.22,-40.43 -103.44,-41.99 -103.49,-43.56 -103.55,-45.14 -103.48,-45.58 -103.41,-46.02 -103.20,-46.41 -103.00,-46.81 -102.68,-47.12 -102.36,-47.43 -101.95,-47.62 -101.55,-47.81 -101.11,-47.86 -100.67,-47.91 -100.23,-47.82 -99.79,-47.73 -99.41,-47.50 -99.03,-47.28 -98.74,-46.94 -98.44,-46.60 -98.28,-46.19 -98.11,-45.78 -98.08,-45.33 -98.05,-44.89 -98.17,-44.46 -98.28,-44.03 -98.53,-43.66 -98.78,-43.28 -99.13,-43.01 -99.48,-42.74 -99.90,-42.59 -100.32,-42.45 -100.77,-42.44 -101.21,-42.44 -101.64,-42.58 -102.06,-42.72 -102.42,-42.98 -102.77,-43.25 -103.03,-43.62 -103.28,-43.98 -103.40,-44.41 -103.53,-44.84 -103.51,-45.29 -103.49,-45.73 -103.32,-46.15 -103.16,-46.56 -102.88,-46.90 -102.59,-47.24 -102.21,-47.48 -101.83,-47.71 -101.40,-47.81 -100.96,-47.91 -100.52,-47.87 -100.08,-47.82 -99.67,-47.64 -99.27,-47.45 -98.94,-47.15 -98.61,-46.85 -98.40,-46.45 -98.19,-46.06 -98.11,-45.62 -98.04,-45.18 -98.04,-45.18 -98.04,-45.19 -98.06,-43.07 -98.08,-40.95 -97.97,-39.57 -97.86,-38.19 -97.46,-36.98 -97.06,-35.77 -96.63,-34.56 -96.19,-33.34 -95.66,-32.08 -95.13,-30.82 -94.03,-28.49 -92.93,-26.17 -92.06,-24.97 -91.18,-23.77 -90.35,-22.42 -89.52,-21.08 -88.07,-19.09 -86.63,-17.11 -85.65,-16.23 -84.68,-15.36 -83.43,-14.72 -82.19,-14.08 -81.21,-13.37 -80.23,-12.67 -78.52,-12.08 -76.80,-11.49 -75.06,-10.79 -73.31,-10.09 -71.17,-9.55 -69.03,-9.02 -66.14,-8.30 -63.25,-7.58 -59.29,-6.46 -55.32,-5.34 -51.74,-4.81 -48.15,-4.29 -44.11,-3.60 -40.08,-2.92 -35.42,-2.37 -30.76,-1.83 -25.67,-1.61 -20.58,-1.39 -17.19,-1.41 -13.80,-1.42 -11.22,-1.44 -8.65,-1.46 -6.39,-1.49 -4.14,-1.52 -2.07,-1.54 0,-1.56 0.18,-1.54 0.37,-1.52 0.55,-1.45 0.72,-1.38 0.88,-1.28 1.03,-1.17 1.16,-1.03 1.28,-0.89 1.37,-0.72 1.46,-0.55 1.51,-0.37 1.55,-0.18 1.55,0.00 1.55,0.18 1.51,0.37 1.46,0.55 1.37,0.72 1.28,0.89 1.16,1.03 1.03,1.17 0.88,1.28 0.72,1.38 0.55,1.45 0.37,1.52 0.18,1.54 -0.00,1.56 -0.00,1.56 L 0,1.56 Z"></path></g><g transform="translate(588.75 610.2374877929688) rotate(0 8.800018310546875 -6.399993896484375)" stroke="none"><path fill="#d9480f" d="M -2.46,-0.61 Q -2.46,-0.61 -1.91,-2.43 -1.36,-4.25 -0.92,-5.76 -0.48,-7.27 -0.00,-8.98 0.46,-10.68 0.88,-11.76 1.30,-12.85 2.92,-14.00 4.53,-15.15 5.71,-15.04 6.89,-14.93 8.59,-13.69 10.30,-12.46 12.03,-11.76 13.76,-11.07 14.76,-10.23 15.77,-9.39 16.87,-8.70 17.96,-8.01 18.45,-7.83 18.95,-7.65 19.35,-7.33 19.76,-7.01 20.05,-6.57 20.33,-6.13 20.46,-5.62 20.59,-5.12 20.55,-4.60 20.51,-4.08 20.31,-3.60 20.11,-3.12 19.76,-2.72 19.41,-2.33 18.96,-2.07 18.51,-1.81 18.00,-1.71 17.48,-1.61 16.97,-1.68 16.45,-1.75 15.98,-1.97 15.51,-2.20 15.14,-2.57 14.77,-2.94 14.53,-3.40 14.30,-3.87 14.22,-4.39 14.15,-4.90 14.25,-5.42 14.34,-5.93 14.59,-6.38 14.85,-6.84 15.24,-7.19 15.62,-7.54 16.10,-7.75 16.58,-7.96 17.10,-8.01 17.62,-8.05 18.12,-7.93 18.63,-7.81 19.07,-7.53 19.52,-7.25 19.84,-6.85 20.17,-6.44 20.36,-5.95 20.54,-5.46 20.56,-4.94 20.58,-4.42 20.43,-3.92 20.28,-3.42 19.97,-2.99 19.67,-2.57 19.25,-2.26 18.83,-1.95 18.33,-1.80 17.83,-1.64 17.31,-1.65 16.79,-1.66 16.79,-1.66 16.79,-1.66 15.39,-2.68 13.99,-3.69 12.19,-4.77 10.38,-5.86 9.42,-6.35 8.45,-6.84 7.39,-8.57 6.32,-10.31 5.67,-9.33 5.02,-8.35 4.52,-7.16 4.02,-5.97 3.61,-4.54 3.20,-3.10 2.83,-1.24 2.46,0.61 2.35,0.90 2.25,1.19 2.07,1.44 1.89,1.69 1.66,1.89 1.43,2.09 1.16,2.24 0.89,2.38 0.59,2.45 0.29,2.52 -0.00,2.52 -0.31,2.52 -0.61,2.45 -0.91,2.37 -1.18,2.23 -1.45,2.09 -1.68,1.88 -1.91,1.68 -2.08,1.42 -2.25,1.17 -2.36,0.88 -2.47,0.60 -2.50,0.29 -2.54,-0.00 -2.50,-0.31 -2.46,-0.61 -2.46,-0.61 L -2.46,-0.61 Z"></path></g><g transform="translate(712.75 639.8374938964844) rotate(0 106 12.5)"><text x="0" y="18" font-family="Virgil, Segoe UI Emoji" font-size="20px" fill="#d9480f" text-anchor="start" style="white-space: pre;" direction="ltr">superfice di contatto</text></g><g transform="translate(645.5499877929688 556.6374969482422) rotate(0 0.800018310546875 20.79999542236328)" stroke="none"><path fill="#1864ab" d="M 1.81,-0.20 Q 1.81,-0.20 1.99,1.87 2.16,3.95 2.21,6.50 2.25,9.05 2.26,12.20 2.26,15.35 2.47,18.00 2.69,20.66 2.78,23.92 2.86,27.19 2.89,29.95 2.92,32.71 2.94,34.80 2.96,36.90 3.07,38.82 3.18,40.74 3.14,40.99 3.10,41.25 2.98,41.47 2.86,41.70 2.67,41.88 2.49,42.06 2.26,42.17 2.02,42.28 1.77,42.31 1.51,42.33 1.26,42.28 1.01,42.23 0.79,42.10 0.57,41.96 0.40,41.77 0.23,41.58 0.14,41.34 0.04,41.10 0.03,40.84 0.01,40.59 0.08,40.34 0.14,40.09 0.29,39.88 0.43,39.66 0.63,39.51 0.84,39.35 1.08,39.27 1.32,39.18 1.58,39.18 1.84,39.18 2.08,39.26 2.33,39.34 2.53,39.50 2.74,39.65 2.88,39.86 3.03,40.07 3.10,40.32 3.17,40.57 3.16,40.82 3.14,41.08 3.05,41.32 2.96,41.56 2.79,41.76 2.62,41.95 2.41,42.09 2.19,42.22 1.94,42.28 1.69,42.33 1.43,42.31 1.17,42.28 0.94,42.17 0.71,42.07 0.52,41.89 0.33,41.72 0.21,41.49 0.09,41.26 0.05,41.01 0.00,40.76 0.00,40.76 0.00,40.76 0.09,38.84 0.18,36.92 0.16,34.84 0.13,32.75 0.07,30.02 0.01,27.28 -0.10,24.10 -0.22,20.92 -0.50,18.16 -0.78,15.39 -0.86,12.28 -0.94,9.18 -1.09,6.75 -1.24,4.32 -1.53,2.26 -1.81,0.20 -1.81,-0.01 -1.81,-0.23 -1.76,-0.45 -1.70,-0.66 -1.60,-0.86 -1.49,-1.05 -1.34,-1.21 -1.20,-1.38 -1.01,-1.50 -0.83,-1.62 -0.62,-1.70 -0.42,-1.78 -0.20,-1.80 0.01,-1.83 0.23,-1.80 0.45,-1.77 0.66,-1.69 0.86,-1.61 1.04,-1.48 1.22,-1.35 1.37,-1.19 1.51,-1.02 1.61,-0.82 1.71,-0.63 1.76,-0.41 1.81,-0.20 1.81,-0.20 L 1.81,-0.20 Z"></path></g><g transform="translate(735.9500122070312 578.2375030517578) rotate(0 -35.600006103515625 0.399993896484375)" stroke="none"><path fill="#1864ab" d="M 0,1.85 Q 0,1.85 -3.44,1.78 -6.89,1.71 -10.85,1.88 -14.80,2.06 -18.31,2.34 -21.82,2.63 -24.98,2.74 -28.13,2.85 -30.62,2.89 -33.10,2.93 -34.85,3.02 -36.60,3.11 -39.14,3.29 -41.68,3.47 -43.73,3.41 -45.77,3.36 -48.02,3.30 -50.27,3.24 -52.61,3.19 -54.94,3.15 -57.84,2.88 -60.73,2.62 -63.12,2.26 -65.51,1.91 -66.76,1.88 -68.01,1.85 -69.58,1.40 -71.14,0.96 -71.41,0.88 -71.68,0.80 -71.91,0.64 -72.15,0.47 -72.31,0.25 -72.48,0.02 -72.57,-0.24 -72.65,-0.51 -72.65,-0.79 -72.64,-1.07 -72.55,-1.33 -72.46,-1.60 -72.28,-1.82 -72.11,-2.04 -71.87,-2.20 -71.64,-2.35 -71.36,-2.42 -71.09,-2.50 -70.81,-2.48 -70.53,-2.46 -70.27,-2.35 -70.01,-2.24 -69.80,-2.05 -69.59,-1.87 -69.44,-1.63 -69.30,-1.38 -69.25,-1.11 -69.19,-0.83 -69.23,-0.55 -69.26,-0.27 -69.38,-0.02 -69.50,0.23 -69.70,0.43 -69.90,0.63 -70.15,0.76 -70.40,0.89 -70.68,0.93 -70.96,0.97 -71.23,0.92 -71.51,0.87 -71.76,0.73 -72.00,0.60 -72.19,0.39 -72.38,0.18 -72.50,-0.06 -72.61,-0.32 -72.64,-0.60 -72.67,-0.88 -72.60,-1.16 -72.54,-1.43 -72.39,-1.67 -72.24,-1.91 -72.02,-2.09 -71.80,-2.27 -71.54,-2.37 -71.28,-2.47 -71.00,-2.48 -70.72,-2.49 -70.72,-2.49 -70.72,-2.49 -69.13,-1.96 -67.54,-1.43 -66.33,-1.19 -65.12,-0.94 -62.80,-0.64 -60.49,-0.34 -57.71,-0.15 -54.94,0.04 -52.61,-0.00 -50.27,-0.04 -48.02,-0.10 -45.78,-0.17 -43.73,-0.22 -41.69,-0.28 -39.17,-0.13 -36.64,0.01 -34.91,0.04 -33.17,0.08 -30.72,0.00 -28.26,-0.07 -25.18,-0.23 -22.10,-0.40 -18.54,-0.77 -14.98,-1.14 -10.94,-1.42 -6.90,-1.71 -3.45,-1.78 0,-1.85 0.22,-1.83 0.44,-1.80 0.65,-1.72 0.86,-1.64 1.04,-1.51 1.23,-1.39 1.38,-1.22 1.53,-1.05 1.63,-0.85 1.73,-0.65 1.79,-0.44 1.84,-0.22 1.84,0.00 1.84,0.22 1.79,0.44 1.73,0.65 1.63,0.85 1.53,1.05 1.38,1.22 1.23,1.39 1.04,1.51 0.86,1.64 0.65,1.72 0.44,1.80 0.22,1.83 -0.00,1.85 -0.00,1.85 L 0,1.85 Z"></path></g><g transform="translate(667.1500244140625 569.4375) rotate(0 -8.399993896484375 8)" stroke="none"><path fill="#1864ab" d="M 1.00,2.01 Q 1.00,2.01 -0.88,2.83 -2.76,3.66 -4.78,4.45 -6.79,5.23 -8.73,6.19 -10.68,7.15 -12.24,7.89 -13.80,8.63 -12.52,9.21 -11.24,9.80 -9.48,10.58 -7.71,11.37 -5.81,12.10 -3.91,12.83 -2.38,13.02 -0.85,13.21 -0.43,13.34 -0.00,13.46 0.36,13.72 0.72,13.97 0.99,14.33 1.25,14.69 1.39,15.12 1.52,15.54 1.52,15.99 1.51,16.43 1.36,16.85 1.21,17.27 0.94,17.62 0.66,17.97 0.29,18.22 -0.07,18.46 -0.50,18.58 -0.93,18.69 -1.38,18.66 -1.82,18.63 -2.23,18.46 -2.65,18.29 -2.98,17.99 -3.32,17.70 -3.54,17.31 -3.77,16.93 -3.85,16.49 -3.94,16.05 -3.89,15.61 -3.83,15.17 -3.64,14.77 -3.45,14.37 -3.14,14.05 -2.83,13.73 -2.43,13.53 -2.03,13.32 -1.59,13.26 -1.15,13.19 -0.71,13.27 -0.27,13.35 0.11,13.56 0.50,13.78 0.80,14.11 1.10,14.43 1.28,14.84 1.46,15.25 1.51,15.69 1.55,16.14 1.45,16.57 1.34,17.00 1.11,17.38 0.87,17.76 0.53,18.04 0.18,18.33 -0.22,18.49 -0.64,18.65 -1.08,18.66 -1.53,18.68 -1.53,18.68 -1.53,18.68 -3.68,18.28 -5.82,17.89 -7.03,17.42 -8.24,16.94 -9.95,15.90 -11.65,14.86 -12.78,14.42 -13.92,13.98 -15.60,12.73 -17.29,11.47 -17.75,10.23 -18.20,8.98 -17.65,7.75 -17.10,6.51 -16.19,5.94 -15.28,5.36 -13.78,4.75 -12.29,4.13 -10.29,2.99 -8.29,1.84 -6.44,0.93 -4.59,0.01 -2.79,-0.99 -1.00,-2.01 -0.75,-2.10 -0.49,-2.19 -0.22,-2.22 0.04,-2.24 0.31,-2.20 0.58,-2.17 0.83,-2.07 1.08,-1.96 1.30,-1.81 1.52,-1.65 1.69,-1.44 1.87,-1.24 1.99,-0.99 2.11,-0.75 2.17,-0.49 2.23,-0.22 2.23,0.04 2.22,0.31 2.15,0.57 2.08,0.83 1.95,1.07 1.82,1.31 1.64,1.51 1.45,1.71 1.23,1.86 1.00,2.01 1.00,2.01 L 1.00,2.01 Z"></path></g><g transform="translate(742.75 555.0374908447266) rotate(0 116.5 25)"><text x="0" y="17" font-family="Virgil, Segoe UI Emoji" font-size="20px" fill="#1864ab" text-anchor="start" style="white-space: pre;" direction="ltr">variazione di velocità</text><text x="0" y="42" font-family="Virgil, Segoe UI Emoji" font-size="20px" fill="#1864ab" text-anchor="start" style="white-space: pre;" direction="ltr">perpendicolare al flusso</text></g></svg>