<svg version="1.1" xmlns="http://www.w3.org/2000/svg" viewBox="0 0 10020 623.4375152587891" width="10020" height="623.4375152587891">
  <!-- svg-source:excalidraw -->
  
  <defs>
    <style>
      @font-face {
        font-family: "Virgil";
        src: url("https://excalidraw.com/Virgil.woff2");
      }
      @font-face {
        font-family: "Cascadia";
        src: url("https://excalidraw.com/Cascadia.woff2");
      }
    </style>
  </defs>
  <rect x="0" y="0" width="10020" height="623.4375152587891" fill="#fff0"></rect><g stroke-linecap="round" transform="translate(10 10) rotate(0 5000 0.5)"><path d="M-0.52 -0.26 C3022.65 -30.2, 6044.59 -29.2, 9999.32 0.22 M0.38 -0.31 C3948.03 -0.44, 7895.41 0.2, 9999.95 0.08 M10000.08 -0.06 C10000.09 0.27, 10000.05 0.48, 10000.09 0.92 M9999.97 0.01 C9999.95 0.33, 9999.98 0.72, 10000 0.99 M10000.22 1.51 C7095.77 35.76, 4193.15 34.95, -0.25 0.75 M10000.01 1.13 C7827.97 2.74, 5656.23 3.35, -0.33 0.84 M-0.04 1.01 C0 0.63, -0.06 0.15, 0.05 -0.03 M-0.04 0.95 C-0.04 0.73, -0.03 0.59, -0.05 -0.02" stroke="transparent" stroke-width="1" fill="none"></path></g><g stroke-linecap="round"><g transform="translate(602.8500366210938 589.4375152587891) rotate(0 0.399993896484375 -15.600006103515625)"><path d="M0.68 1.01 C0.65 -4.2, 0.77 -26.8, 0.71 -32.07 M-0.42 0.5 C-0.69 -4.51, -0.23 -25.46, -0.29 -30.99" stroke="#1864ab" stroke-width="1" fill="none"></path></g><g transform="translate(602.8500366210938 589.4375152587891) rotate(0 0.399993896484375 -15.600006103515625)"><path d="M6.27 -16.41 C1.95 -22.46, 1.86 -27.4, -1.39 -29.7 M4.65 -15.9 C3.52 -21.31, 2.03 -25.36, 0.12 -30.93" stroke="#1864ab" stroke-width="1" fill="none"></path></g><g transform="translate(602.8500366210938 589.4375152587891) rotate(0 0.399993896484375 -15.600006103515625)"><path d="M-4.41 -16.48 C-4.71 -22.57, -0.8 -27.47, -1.39 -29.7 M-6.03 -15.97 C-4.04 -21.39, -2.41 -25.42, 0.12 -30.93" stroke="#1864ab" stroke-width="1" fill="none"></path></g></g><g stroke-linecap="round"><g transform="translate(700.0397049566545 542.8155230301898) rotate(0 -24.194840271295988 0.11099916605744653)"><path d="M-0.79 -0.31 C-9.11 -0.25, -41.12 -0.45, -49.12 -0.31 M0.99 -1.51 C-7.01 -1.24, -38.33 0.36, -46.8 0.94" stroke="#d9480f" stroke-width="1" fill="none"></path></g><g transform="translate(700.0397049566545 542.8155230301898) rotate(0 -24.194840271295988 0.11099916605744653)"><path d="M-25.1 -9.87 C-33.7 -5.99, -40.51 -0.77, -46.32 -0.02 M-24.33 -9.22 C-30.51 -5.49, -35.57 -4.28, -46.92 1.75" stroke="#d9480f" stroke-width="1" fill="none"></path></g><g transform="translate(700.0397049566545 542.8155230301898) rotate(0 -24.194840271295988 0.11099916605744653)"><path d="M-24.13 6.65 C-33 4.45, -40.16 3.59, -46.32 -0.02 M-23.36 7.3 C-29.65 6.86, -34.96 3.89, -46.92 1.75" stroke="#d9480f" stroke-width="1" fill="none"></path></g></g><g transform="translate(714.8500366210938 529.2375030517578) rotate(0 141 25)"><text x="0" y="17" font-family="Virgil, Segoe UI Emoji" font-size="20px" fill="#d9480f" text-anchor="start" style="white-space: pre;" direction="ltr">distanza del punto dall'asse</text><text x="0" y="42" font-family="Virgil, Segoe UI Emoji" font-size="20px" fill="#d9480f" text-anchor="start" style="white-space: pre;" direction="ltr">di rotazione</text></g><g transform="translate(550.0499877929688 588.4375152587891) rotate(0 81.5 12.5)"><text x="0" y="18" font-family="Virgil, Segoe UI Emoji" font-size="20px" fill="#1864ab" text-anchor="start" style="white-space: pre;" direction="ltr">massa del punto</text></g></svg>