<svg version="1.1" xmlns="http://www.w3.org/2000/svg" viewBox="0 0 10020 803.8185005306091" width="10020" height="803.8185005306091">
  <!-- svg-source:excalidraw -->
  
  <defs>
    <style>
      @font-face {
        font-family: "Virgil";
        src: url("https://excalidraw.com/Virgil.woff2");
      }
      @font-face {
        font-family: "Cascadia";
        src: url("https://excalidraw.com/Cascadia.woff2");
      }
    </style>
  </defs>
  <rect x="0" y="0" width="10020" height="803.8185005306091" fill="#fff0"></rect><g stroke-linecap="round" transform="translate(10 10) rotate(0 5000 0.5)"><path d="M-0.52 -0.26 C3022.65 -30.2, 6044.59 -29.2, 9999.32 0.22 M0.38 -0.31 C3948.03 -0.44, 7895.41 0.2, 9999.95 0.08 M10000.08 -0.06 C10000.09 0.27, 10000.05 0.48, 10000.09 0.92 M9999.97 0.01 C9999.95 0.33, 9999.98 0.72, 10000 0.99 M10000.22 1.51 C7095.77 35.76, 4193.15 34.95, -0.25 0.75 M10000.01 1.13 C7827.97 2.74, 5656.23 3.35, -0.33 0.84 M-0.04 1.01 C0 0.63, -0.06 0.15, 0.05 -0.03 M-0.04 0.95 C-0.04 0.73, -0.03 0.59, -0.05 -0.02" stroke="transparent" stroke-width="1" fill="none"></path></g><g stroke-linecap="round"><g transform="translate(529.956036184004 764.8624267578125) rotate(0 -1.5530150402442047 -53.599975585937486)"><path d="M-0.11 1 C-0.76 -17.14, -3.53 -90.29, -3.85 -108.15 M-1.62 0.48 C-1.9 -17.61, -1.42 -89.03, -1.53 -107.12" stroke="#d9480f" stroke-width="1" fill="none"></path></g><g transform="translate(529.956036184004 764.8624267578125) rotate(0 -1.5530150402442047 -53.599975585937486)"><path d="M10.38 -80.16 C3.82 -85.79, 3.96 -97.04, -0.83 -108.98 M9.58 -79.5 C6.23 -86.18, 2.51 -93.98, -0.85 -106.59" stroke="#d9480f" stroke-width="1" fill="none"></path></g><g transform="translate(529.956036184004 764.8624267578125) rotate(0 -1.5530150402442047 -53.599975585937486)"><path d="M-10.14 -80.17 C-10.43 -85.79, -4.03 -97.03, -0.83 -108.98 M-10.94 -79.52 C-8.84 -86.34, -7.12 -94.14, -0.85 -106.59" stroke="#d9480f" stroke-width="1" fill="none"></path></g></g><g transform="translate(519.0499877929688 773.4624633789062) rotate(0 131.5 10.178018575851382)"><text x="0" y="13.35603715170279" font-family="Virgil, Segoe UI Emoji" font-size="16.28482972136223px" fill="#d9480f" text-anchor="start" style="white-space: pre;" direction="ltr">"della massa m1 sulla massa m2"</text></g><g stroke-linecap="round"><g transform="translate(582.4663931697602 643.3723132561819) rotate(176.98549452600315 -2.055933867583761 32.72011997253338)"><path d="M-0.12 1.19 C-0.86 12.21, -4.16 55.2, -5.01 65.75 M-1.65 0.77 C-1.96 11.44, -2.56 53.03, -2.77 63.79" stroke="#1864ab" stroke-width="1" fill="none"></path></g><g transform="translate(582.4663931697602 643.3723132561819) rotate(176.98549452600315 -2.055933867583761 32.72011997253338)"><path d="M-10.57 33.93 C-9.65 40.71, -9.27 51.71, -2.03 65.07 M-13.19 35.5 C-10.15 42.22, -6.55 51.75, -3.43 64.47" stroke="#1864ab" stroke-width="1" fill="none"></path></g><g transform="translate(582.4663931697602 643.3723132561819) rotate(176.98549452600315 -2.055933867583761 32.72011997253338)"><path d="M9.95 34.28 C5.69 40.95, 0.89 51.87, -2.03 65.07 M7.32 35.85 C4.74 42.59, 2.71 52.03, -3.43 64.47" stroke="#1864ab" stroke-width="1" fill="none"></path></g></g><g transform="translate(554.0500793457031 721.2625122070312) rotate(0 87 12.5)"><text x="0" y="18" font-family="Virgil, Segoe UI Emoji" font-size="20px" fill="#1864ab" text-anchor="start" style="white-space: pre;" direction="ltr">forza attrattiva</text></g><g stroke-linecap="round"><g transform="translate(607.2667736572553 548.0513578969985) rotate(0 -0.4340032250324555 24.56103491090238)"><path d="M0.66 -0.81 C0.56 7.45, -1.23 40.65, -1.32 48.84 M-0.45 1.38 C-0.68 9.88, -2.56 42.26, -2.5 50.23" stroke="#d9480f" stroke-width="1" fill="none"></path></g><g transform="translate(607.2667736572553 548.0513578969985) rotate(0 -0.4340032250324555 24.56103491090238)"><path d="M-11.56 26.15 C-8.96 34.11, -7.98 36.63, -1.53 49.79 M-10.83 26.06 C-6.92 35.14, -4.3 42.21, -2.21 50.38" stroke="#d9480f" stroke-width="1" fill="none"></path></g><g transform="translate(607.2667736572553 548.0513578969985) rotate(0 -0.4340032250324555 24.56103491090238)"><path d="M5.24 26.66 C3.81 34.59, 0.77 36.99, -1.53 49.79 M5.96 26.57 C4.32 35.53, 1.37 42.43, -2.21 50.38" stroke="#d9480f" stroke-width="1" fill="none"></path></g></g><g transform="translate(576.8499755859375 521.6624755859375) rotate(0 176 12.5)"><text x="0" y="18" font-family="Virgil, Segoe UI Emoji" font-size="20px" fill="#d9480f" text-anchor="start" style="white-space: pre;" direction="ltr">Costante di gravitazione universale</text></g><g transform="translate(785.25 559.0625) rotate(0 87.5 12.5)"><text x="0" y="18" font-family="Virgil, Segoe UI Emoji" font-size="20px" fill="#1864ab" text-anchor="start" style="white-space: pre;" direction="ltr">masse dei 2 corpi</text></g><g stroke-linecap="round"><g transform="translate(811.6243942484259 634.2795472636819) rotate(0 -49.18719712421296 -1.908526683598751)"><path d="M0.39 0.71 C-15.76 0, -81.09 -2.45, -97.67 -3.17 M-0.87 0.03 C-17.04 -0.5, -82.29 -4.58, -98.25 -4.96" stroke="#d9480f" stroke-width="1" fill="none"></path></g><g transform="translate(811.6243942484259 634.2795472636819) rotate(0 -49.18719712421296 -1.908526683598751)"><path d="M-68.44 -12.75 C-75.13 -12.99, -82.59 -8.1, -97.45 -6.2 M-70.4 -13.5 C-76.56 -10.84, -82.31 -9.03, -98.85 -4.97" stroke="#d9480f" stroke-width="1" fill="none"></path></g><g transform="translate(811.6243942484259 634.2795472636819) rotate(0 -49.18719712421296 -1.908526683598751)"><path d="M-69.38 7.75 C-76.03 2.74, -83.27 2.85, -97.45 -6.2 M-71.34 7 C-77.29 5.12, -82.82 2.41, -98.85 -4.97" stroke="#d9480f" stroke-width="1" fill="none"></path></g></g><g transform="translate(821.25 612.6625061035156) rotate(0 143.5 25)"><text x="0" y="17" font-family="Virgil, Segoe UI Emoji" font-size="20px" fill="#d9480f" text-anchor="start" style="white-space: pre;" direction="ltr">versore allineato col vettore</text><text x="0" y="42" font-family="Virgil, Segoe UI Emoji" font-size="20px" fill="#d9480f" text-anchor="start" style="white-space: pre;" direction="ltr">congiungente i 2 corpi</text></g><g stroke-linecap="round"><g transform="translate(791.6500244140625 702.873014374921) rotate(0 -62.800018310546875 -21.00524803218707)"><path d="M-0.1 -0.41 C-21.03 -7.41, -105.38 -35.02, -126.37 -41.78 M-1.61 -1.67 C-22.09 -9.08, -103.16 -36.94, -124.05 -43.79" stroke="#1864ab" stroke-width="1" fill="none"></path></g><g transform="translate(791.6500244140625 702.873014374921) rotate(0 -62.800018310546875 -21.00524803218707)"><path d="M-94.74 -45.78 C-100.74 -45, -106.43 -43.59, -125.18 -44.89 M-94.18 -44.06 C-103.52 -44.82, -111.52 -44.65, -124.25 -44.52" stroke="#1864ab" stroke-width="1" fill="none"></path></g><g transform="translate(791.6500244140625 702.873014374921) rotate(0 -62.800018310546875 -21.00524803218707)"><path d="M-101.3 -26.33 C-105.8 -30.13, -109.94 -33.29, -125.18 -44.89 M-100.73 -24.61 C-108.05 -31.05, -114.15 -36.54, -124.25 -44.52" stroke="#1864ab" stroke-width="1" fill="none"></path></g></g><g transform="translate(794.8499755859375 695.6625061035156) rotate(0 128 12.5)"><text x="0" y="18" font-family="Virgil, Segoe UI Emoji" font-size="20px" fill="#1864ab" text-anchor="start" style="white-space: pre;" direction="ltr">distanza fra i 2 corpi ^2</text></g><g stroke-linecap="round"><g transform="translate(770.0499877929688 576.0625) rotate(0 -55.156941754077565 9.949969171066769)"><path d="M-0.38 -0.48 C-18.81 2.85, -92.51 16.59, -110.68 20.18 M1.61 -1.77 C-16.99 1.15, -93.26 14.68, -111.83 18.2" stroke="#1864ab" stroke-width="1" fill="none"></path></g><g transform="translate(770.0499877929688 576.0625) rotate(0 -55.156941754077565 9.949969171066769)"><path d="M-86.73 2.44 C-92.89 8.77, -98.87 13.34, -110.14 16.28 M-85.24 2.62 C-94.74 7.72, -102.7 13.11, -111.76 18.1" stroke="#1864ab" stroke-width="1" fill="none"></path></g><g transform="translate(770.0499877929688 576.0625) rotate(0 -55.156941754077565 9.949969171066769)"><path d="M-83.05 22.63 C-90.31 23.14, -97.35 21.91, -110.14 16.28 M-81.57 22.81 C-92.1 21.13, -101.3 19.72, -111.76 18.1" stroke="#1864ab" stroke-width="1" fill="none"></path></g></g></svg>