<svg version="1.1" xmlns="http://www.w3.org/2000/svg" viewBox="0 0 10020 631.2247847139836" width="10020" height="631.2247847139836">
  <!-- svg-source:excalidraw -->
  
  <defs>
    <style>
      @font-face {
        font-family: "Virgil";
        src: url("https://excalidraw.com/Virgil.woff2");
      }
      @font-face {
        font-family: "Cascadia";
        src: url("https://excalidraw.com/Cascadia.woff2");
      }
    </style>
  </defs>
  <rect x="0" y="0" width="10020" height="631.2247847139836" fill="#fff0"></rect><g stroke-linecap="round" transform="translate(10 10) rotate(0 5000 0.5)"><path d="M-0.52 -0.26 C3022.65 -30.2, 6044.59 -29.2, 9999.32 0.22 M0.38 -0.31 C3948.03 -0.44, 7895.41 0.2, 9999.95 0.08 M10000.08 -0.06 C10000.09 0.27, 10000.05 0.48, 10000.09 0.92 M9999.97 0.01 C9999.95 0.33, 9999.98 0.72, 10000 0.99 M10000.22 1.51 C7095.77 35.76, 4193.15 34.95, -0.25 0.75 M10000.01 1.13 C7827.97 2.74, 5656.23 3.35, -0.33 0.84 M-0.04 1.01 C0 0.63, -0.06 0.15, 0.05 -0.03 M-0.04 0.95 C-0.04 0.73, -0.03 0.59, -0.05 -0.02" stroke="transparent" stroke-width="1" fill="none"></path></g><g stroke-linecap="round"><g transform="translate(699.0198589107581 561.7329449468665) rotate(0 -13.68089882538655 29.745919883558514)"><path d="M-0.73 0.87 C-5.41 10.8, -23.51 50.19, -27.96 59.92 M1.08 0.28 C-3.2 9.82, -20.68 47.99, -25.56 58.02" stroke="#d9480f" stroke-width="1" fill="none"></path></g><g transform="translate(699.0198589107581 561.7329449468665) rotate(0 -13.68089882538655 29.745919883558514)"><path d="M-21.4 27.15 C-22.9 37.29, -24.85 46.86, -24.59 57.95 M-22.72 28.15 C-23.24 35.73, -23.41 44.98, -25.4 58.6" stroke="#d9480f" stroke-width="1" fill="none"></path></g><g transform="translate(699.0198589107581 561.7329449468665) rotate(0 -13.68089882538655 29.745919883558514)"><path d="M-2.83 35.88 C-10.1 43.2, -17.8 50.08, -24.59 57.95 M-4.15 36.89 C-10.03 42.09, -15.48 48.86, -25.4 58.6" stroke="#d9480f" stroke-width="1" fill="none"></path></g></g></svg>